<?xml version="1.0" standalone="no"?>
<!DOCTYPE svg PUBLIC "-//W3C//DTD SVG 1.1//EN"
"http://www.w3.org/Graphics/SVG/1.1/DTD/svg11.dtd">
<svg width="129.789" height="103.332" viewBox="0 0 2703.94 2152.76" version="1.1"
xmlns="http://www.w3.org/2000/svg"
xmlns:xlink="http://www.w3.org/1999/xlink">
<g fill-rule="evenodd"><path d="M 2283.75,1440.55 L 1062.6,1440.55 L 1057.99,1440.1 L 1053.56,1438.75 L 1049.47,1436.57 L 1045.89,1433.63 L 987.853,1375.59 L 495.61,1375.59 L 417.491,1453.71 L 413.911,1456.65 L 409.827,1458.83 L 405.396,1460.18 L 400.787,1460.63 L 183.966,1460.63 L 182.796,1464.23 L 175.8,1476.35 L 166.438,1486.75 L 155.118,1494.97 L 142.336,1500.66 L 128.65,1503.57 L 114.658,1503.57 L 100.971,1500.66 L 88.189,1494.97 L 76.8692,1486.75 L 67.5067,1476.35 L 60.5107,1464.23 L 56.187,1450.92 L 54.7244,1437.01 L 56.187,1423.09 L 60.5107,1409.79 L 67.5067,1397.67 L 76.8692,1387.27 L 88.189,1379.05 L 100.971,1373.35 L 114.658,1370.45 L 128.65,1370.45 L 142.336,1373.35 L 155.118,1379.05 L 166.438,1387.27 L 175.8,1397.67 L 182.796,1409.79 L 183.966,1413.39 L 391.002,1413.39 L 469.122,1335.26 L 472.701,1332.33 L 476.785,1330.14 L 481.217,1328.8 L 485.825,1328.35 L 997.637,1328.35 L 1002.25,1328.8 L 1006.68,1330.14 L 1010.76,1332.33 L 1014.34,1335.26 L 1072.38,1393.31 L 2283.75,1393.31 L 2284.92,1389.71 L 2291.92,1377.59 L 2301.28,1367.19 L 2312.6,1358.97 L 2325.38,1353.28 L 2339.07,1350.37 L 2353.06,1350.37 L 2366.75,1353.28 L 2379.53,1358.97 L 2390.85,1367.19 L 2400.21,1377.59 L 2407.21,1389.71 L 2411.53,1403.01 L 2412.99,1416.93 L 2411.53,1430.84 L 2407.21,1444.15 L 2400.21,1456.27 L 2390.85,1466.67 L 2379.53,1474.89 L 2366.75,1480.58 L 2353.06,1483.49 L 2339.07,1483.49 L 2325.38,1480.58 L 2312.6,1474.89 L 2301.28,1466.67 L 2291.92,1456.27 L 2284.92,1444.15 L 2283.75,1440.55 z " style="fill-opacity:1.000000;fill:rgb(103,198,105);stroke:rgb(0,0,0);stroke-width:2"/></g>
<g fill-rule="evenodd"><path d="M 2283.75,1040.55 L 1224.35,1040.55 L 1132.45,1132.45 L 1128.87,1135.39 L 1124.79,1137.57 L 1120.36,1138.92 L 1115.75,1139.37 L 407.085,1139.37 L 402.477,1138.92 L 398.045,1137.57 L 393.962,1135.39 L 390.382,1132.45 L 318.561,1060.63 L 183.966,1060.63 L 182.796,1064.23 L 175.8,1076.35 L 166.438,1086.75 L 155.118,1094.97 L 142.336,1100.66 L 128.65,1103.57 L 114.658,1103.57 L 100.971,1100.66 L 88.189,1094.97 L 76.8692,1086.75 L 67.5067,1076.35 L 60.5107,1064.23 L 56.187,1050.92 L 54.7244,1037.01 L 56.187,1023.09 L 60.5107,1009.79 L 67.5067,997.668 L 76.8692,987.27 L 88.189,979.046 L 100.971,973.354 L 114.658,970.445 L 128.65,970.445 L 142.336,973.354 L 155.118,979.046 L 166.438,987.27 L 175.8,997.668 L 182.796,1009.79 L 183.966,1013.39 L 328.345,1013.39 L 332.954,1013.84 L 337.385,1015.18 L 341.469,1017.37 L 345.049,1020.3 L 416.87,1092.13 L 1105.96,1092.13 L 1197.86,1000.22 L 1201.44,997.287 L 1205.53,995.104 L 1209.96,993.759 L 1214.57,993.306 L 2283.75,993.306 L 2284.92,989.707 L 2291.92,977.589 L 2301.28,967.191 L 2312.6,958.967 L 2325.38,953.276 L 2339.07,950.367 L 2353.06,950.367 L 2366.75,953.276 L 2379.53,958.967 L 2390.85,967.191 L 2400.21,977.589 L 2407.21,989.707 L 2411.53,1003.01 L 2412.99,1016.93 L 2411.53,1030.84 L 2407.21,1044.15 L 2400.21,1056.27 L 2390.85,1066.67 L 2379.53,1074.89 L 2366.75,1080.58 L 2353.06,1083.49 L 2339.07,1083.49 L 2325.38,1080.58 L 2312.6,1074.89 L 2301.28,1066.67 L 2291.92,1056.27 L 2284.92,1044.15 L 2283.75,1040.55 z " style="fill-opacity:1.000000;fill:rgb(115,81,255);stroke:rgb(0,0,0);stroke-width:2"/></g>
<g fill-rule="evenodd"><path d="M 2283.75,840.55 L 1188.13,840.55 L 1053.71,974.971 L 1050.13,977.909 L 1046.05,980.091 L 1041.62,981.436 L 1037.01,981.89 L 407.085,981.89 L 402.477,981.436 L 398.045,980.092 L 393.962,977.909 L 390.382,974.971 L 276.041,860.63 L 183.966,860.63 L 182.796,864.23 L 175.8,876.348 L 166.438,886.746 L 155.118,894.97 L 142.336,900.661 L 128.65,903.57 L 114.658,903.57 L 100.971,900.661 L 88.189,894.97 L 76.8692,886.746 L 67.5067,876.348 L 60.5107,864.23 L 56.187,850.923 L 54.7244,837.008 L 56.187,823.093 L 60.5107,809.785 L 67.5067,797.668 L 76.8692,787.27 L 88.189,779.046 L 100.971,773.354 L 114.658,770.445 L 128.65,770.445 L 142.336,773.354 L 155.118,779.046 L 166.438,787.27 L 175.8,797.668 L 182.796,809.785 L 183.966,813.385 L 285.825,813.386 L 290.434,813.839 L 294.865,815.184 L 298.949,817.367 L 302.529,820.304 L 416.87,934.646 L 1027.22,934.646 L 1161.64,800.224 L 1165.22,797.287 L 1169.31,795.104 L 1173.74,793.759 L 1178.35,793.306 L 2283.75,793.306 L 2284.92,789.707 L 2291.92,777.589 L 2301.28,767.191 L 2312.6,758.967 L 2325.38,753.276 L 2339.07,750.367 L 2353.06,750.367 L 2366.75,753.276 L 2379.53,758.967 L 2390.85,767.191 L 2400.21,777.589 L 2407.21,789.707 L 2411.53,803.014 L 2412.99,816.929 L 2411.53,830.844 L 2407.21,844.152 L 2400.21,856.269 L 2390.85,866.667 L 2379.53,874.891 L 2366.75,880.583 L 2353.06,883.492 L 2339.07,883.492 L 2325.38,880.583 L 2312.6,874.891 L 2301.28,866.667 L 2291.92,856.269 L 2284.92,844.152 L 2283.75,840.55 z " style="fill-opacity:1.000000;fill:rgb(74,236,41);stroke:rgb(0,0,0);stroke-width:2"/></g>
<g fill-rule="evenodd"><path d="M 2315.05,675.983 L 1166.59,675.983 L 1000.03,842.544 L 991.077,849.888 L 980.867,855.345 L 969.788,858.706 L 958.267,859.841 L 485.825,859.841 L 474.304,858.706 L 463.226,855.345 L 453.016,849.888 L 444.067,842.544 L 297.584,696.063 L 152.664,696.063 L 142.336,700.661 L 128.65,703.57 L 114.658,703.57 L 100.971,700.661 L 88.189,694.97 L 76.8692,686.746 L 67.5067,676.348 L 60.5107,664.23 L 56.187,650.923 L 54.7244,637.008 L 56.187,623.093 L 60.5107,609.785 L 67.5067,597.668 L 76.8692,587.27 L 88.189,579.046 L 100.971,573.354 L 114.658,570.445 L 128.65,570.445 L 142.336,573.354 L 152.663,577.953 L 322.045,577.952 L 333.566,579.087 L 344.645,582.448 L 354.854,587.905 L 363.803,595.249 L 510.286,741.73 L 933.806,741.73 L 1100.37,575.169 L 1109.32,567.825 L 1119.53,562.368 L 1130.6,559.007 L 1142.13,557.872 L 2315.06,557.872 L 2325.38,553.276 L 2339.07,550.367 L 2353.06,550.367 L 2366.75,553.276 L 2379.53,558.967 L 2390.85,567.191 L 2400.21,577.589 L 2407.21,589.707 L 2411.53,603.014 L 2412.99,616.929 L 2411.53,630.844 L 2407.21,644.152 L 2400.21,656.269 L 2390.85,666.667 L 2379.53,674.891 L 2366.75,680.583 L 2353.06,683.492 L 2339.07,683.492 L 2325.38,680.583 L 2315.05,675.983 z " style="fill-opacity:1.000000;fill:rgb(205,186,171);stroke:rgb(0,0,0);stroke-width:2"/></g>
<g fill-rule="evenodd"><path d="M 2279.13,357.872 L 2279.13,350 L 2412.99,350 L 2412.99,483.858 L 2279.13,483.858 L 2279.13,475.983 L 1130.37,475.983 L 921.286,685.064 L 912.337,692.408 L 902.127,697.865 L 891.048,701.226 L 879.527,702.361 L 564.565,702.361 L 553.044,701.226 L 541.966,697.865 L 531.756,692.408 L 522.807,685.064 L 333.806,496.063 L 152.664,496.063 L 142.336,500.661 L 128.65,503.57 L 114.658,503.57 L 100.971,500.661 L 88.189,494.97 L 76.8692,486.746 L 67.5067,476.348 L 60.5107,464.23 L 56.187,450.923 L 54.7244,437.008 L 56.187,423.093 L 60.5107,409.785 L 67.5067,397.668 L 76.8692,387.27 L 88.189,379.046 L 100.971,373.354 L 114.658,370.445 L 128.65,370.445 L 142.336,373.354 L 152.663,377.953 L 358.267,377.952 L 369.788,379.087 L 380.867,382.448 L 391.077,387.905 L 400.026,395.249 L 589.027,584.25 L 855.066,584.25 L 1064.15,375.169 L 1073.1,367.825 L 1083.31,362.368 L 1094.38,359.007 L 1105.91,357.872 L 2279.13,357.872 z " style="fill-opacity:1.000000;fill:rgb(242,251,227);stroke:rgb(0,0,0);stroke-width:2"/></g>
<g fill-rule="evenodd"><path d="M 2283.75,1240.55 L 1804.67,1240.55 L 1791.5,1253.71 L 1787.92,1256.65 L 1783.84,1258.83 L 1779.41,1260.18 L 1774.8,1260.63 L 183.966,1260.63 L 182.796,1264.23 L 175.8,1276.35 L 166.438,1286.75 L 155.118,1294.97 L 142.336,1300.66 L 128.65,1303.57 L 114.658,1303.57 L 100.971,1300.66 L 88.189,1294.97 L 76.8692,1286.75 L 67.5067,1276.35 L 60.5107,1264.23 L 56.187,1250.92 L 54.7244,1237.01 L 56.187,1223.09 L 60.5107,1209.79 L 67.5067,1197.67 L 76.8692,1187.27 L 88.189,1179.05 L 100.971,1173.35 L 114.658,1170.45 L 128.65,1170.45 L 142.336,1173.35 L 155.118,1179.05 L 166.438,1187.27 L 175.8,1197.67 L 182.796,1209.79 L 183.966,1213.39 L 1765.02,1213.39 L 1778.18,1200.22 L 1781.76,1197.29 L 1785.84,1195.1 L 1790.27,1193.76 L 1794.88,1193.31 L 2283.75,1193.31 L 2284.92,1189.71 L 2291.92,1177.59 L 2301.28,1167.19 L 2312.6,1158.97 L 2325.38,1153.28 L 2339.07,1150.37 L 2353.06,1150.37 L 2366.75,1153.28 L 2379.53,1158.97 L 2390.85,1167.19 L 2400.21,1177.59 L 2407.21,1189.71 L 2411.53,1203.01 L 2412.99,1216.93 L 2411.53,1230.84 L 2407.21,1244.15 L 2400.21,1256.27 L 2390.85,1266.67 L 2379.53,1274.89 L 2366.75,1280.58 L 2353.06,1283.49 L 2339.07,1283.49 L 2325.38,1280.58 L 2312.6,1274.89 L 2301.28,1266.67 L 2291.92,1256.27 L 2284.92,1244.15 L 2283.75,1240.55 z " style="fill-opacity:1.000000;fill:rgb(70,124,194);stroke:rgb(0,0,0);stroke-width:2"/></g>
<g fill-rule="evenodd"><path d="M 2283.75,1840.55 L 1108.27,1840.55 L 1103.66,1840.1 L 1099.23,1838.75 L 1095.14,1836.57 L 1091.56,1833.63 L 869.743,1611.81 L 574.35,1611.81 L 332.451,1853.71 L 328.871,1856.65 L 324.787,1858.83 L 320.356,1860.18 L 315.747,1860.63 L 188.583,1860.63 L 188.583,1903.94 L 54.7244,1903.94 L 54.7244,1770.08 L 188.583,1770.08 L 188.583,1813.39 L 305.963,1813.39 L 547.862,1571.48 L 551.441,1568.55 L 555.525,1566.36 L 559.957,1565.02 L 564.565,1564.57 L 879.527,1564.57 L 884.136,1565.02 L 888.567,1566.36 L 892.651,1568.55 L 896.231,1571.48 L 1118.05,1793.31 L 2283.75,1793.31 L 2284.92,1789.71 L 2291.92,1777.59 L 2301.28,1767.19 L 2312.6,1758.97 L 2325.38,1753.28 L 2339.07,1750.37 L 2353.06,1750.37 L 2366.75,1753.28 L 2379.53,1758.97 L 2390.85,1767.19 L 2400.21,1777.59 L 2407.21,1789.71 L 2411.53,1803.01 L 2412.99,1816.93 L 2411.53,1830.84 L 2407.21,1844.15 L 2400.21,1856.27 L 2390.85,1866.67 L 2379.53,1874.89 L 2366.75,1880.58 L 2353.06,1883.49 L 2339.07,1883.49 L 2325.38,1880.58 L 2312.6,1874.89 L 2301.28,1866.67 L 2291.92,1856.27 L 2284.92,1844.15 L 2283.75,1840.55 z " style="fill-opacity:1.000000;fill:rgb(84,248,27);stroke:rgb(0,0,0);stroke-width:2"/></g>
<g fill-rule="evenodd"><path d="M 2283.75,1640.55 L 1105.12,1640.55 L 1100.51,1640.1 L 1096.08,1638.75 L 1091.99,1636.57 L 1088.41,1633.63 L 948.483,1493.7 L 534.98,1493.7 L 374.971,1653.71 L 371.391,1656.65 L 367.307,1658.83 L 362.876,1660.18 L 358.267,1660.63 L 183.966,1660.63 L 182.796,1664.23 L 175.8,1676.35 L 166.438,1686.75 L 155.118,1694.97 L 142.336,1700.66 L 128.65,1703.57 L 114.658,1703.57 L 100.971,1700.66 L 88.189,1694.97 L 76.8692,1686.75 L 67.5067,1676.35 L 60.5107,1664.23 L 56.187,1650.92 L 54.7244,1637.01 L 56.187,1623.09 L 60.5107,1609.79 L 67.5067,1597.67 L 76.8692,1587.27 L 88.189,1579.05 L 100.971,1573.35 L 114.658,1570.45 L 128.65,1570.45 L 142.336,1573.35 L 155.118,1579.05 L 166.438,1587.27 L 175.8,1597.67 L 182.796,1609.79 L 183.966,1613.39 L 348.483,1613.39 L 508.492,1453.37 L 512.071,1450.44 L 516.155,1448.25 L 520.587,1446.91 L 525.195,1446.46 L 958.267,1446.46 L 962.876,1446.91 L 967.307,1448.25 L 971.391,1450.44 L 974.971,1453.37 L 1114.9,1593.31 L 2283.75,1593.31 L 2284.92,1589.71 L 2291.92,1577.59 L 2301.28,1567.19 L 2312.6,1558.97 L 2325.38,1553.28 L 2339.07,1550.37 L 2353.06,1550.37 L 2366.75,1553.28 L 2379.53,1558.97 L 2390.85,1567.19 L 2400.21,1577.59 L 2407.21,1589.71 L 2411.53,1603.01 L 2412.99,1616.93 L 2411.53,1630.84 L 2407.21,1644.15 L 2400.21,1656.27 L 2390.85,1666.67 L 2379.53,1674.89 L 2366.75,1680.58 L 2353.06,1683.49 L 2339.07,1683.49 L 2325.38,1680.58 L 2312.6,1674.89 L 2301.28,1666.67 L 2291.92,1656.27 L 2284.92,1644.15 L 2283.75,1640.55 z " style="fill-opacity:1.000000;fill:rgb(232,231,141);stroke:rgb(0,0,0);stroke-width:2"/></g>
</svg>
