<?xml version="1.0" standalone="no"?>
<!DOCTYPE svg PUBLIC "-//W3C//DTD SVG 1.1//EN"
"http://www.w3.org/Graphics/SVG/1.1/DTD/svg11.dtd">
<svg width="129.789" height="103.332" viewBox="0 0 2703.94 2152.76" version="1.1"
xmlns="http://www.w3.org/2000/svg"
xmlns:xlink="http://www.w3.org/1999/xlink">
<g fill-rule="evenodd"><path d="M 3.48655e-05,1337.01 L 0.132617,1337.01 L 21.0433,1337.01 L 40.3429,1337.01 L 40.3518,1337.01 L 57.6399,1337.01 L 57.6473,1337.01 L 69.4771,1337.01 L 84.7937,1337.01 L 93.2429,1337.01 L 107.548,1337.01 L 114.657,1337.01 L 128.649,1337.01 L 135.759,1337.01 L 150.064,1337.01 L 158.515,1337.01 L 173.83,1337.01 L 185.657,1337.01 L 185.665,1337.01 L 202.953,1337.01 L 202.962,1337.01 L 222.261,1337.01 L 223.956,1337.01 L 223.957,1337.01 L 359.364,1337.01 L 438.206,1304.35 L 442.417,1302.72 L 447.048,1301.07 L 454.749,1298.73 L 459.38,1297.57 L 466.458,1296.15 L 471.088,1295.47 L 477.867,1294.8 L 482.499,1294.57 L 485.825,1294.49 L 997.637,1294.49 L 1000.96,1294.57 L 1005.6,1294.8 L 1012.37,1295.47 L 1017,1296.15 L 1024.08,1297.57 L 1028.71,1298.73 L 1036.41,1301.07 L 1041.04,1302.72 L 1045.25,1304.35 L 1099.86,1326.97 L 1774.8,1326.97 L 1781.32,1326.81 L 1785.95,1326.58 L 1799.19,1325.27 L 1803.82,1324.58 L 1817.51,1321.85 L 1822.14,1320.69 L 1834.83,1316.93 L 2243.76,1316.93 L 2243.76,1316.93 L 2245.45,1316.93 L 2264.76,1316.93 L 2282.06,1316.93 L 2293.88,1316.93 L 2293.88,1316.93 L 2309.19,1316.93 L 2309.2,1316.93 L 2317.65,1316.93 L 2331.96,1316.93 L 2339.07,1316.93 L 2353.06,1316.93 L 2360.17,1316.93 L 2374.47,1316.93 L 2382.92,1316.93 L 2382.93,1316.93 L 2398.24,1316.93 L 2398.24,1316.93 L 2410.07,1316.93 L 2427.36,1316.93 L 2446.67,1316.93 L 2467.58,1316.93 L 2505.26,1316.93 L 2505.28,1316.93 L 2533.24,1316.93 L 2533.26,1316.93 L 2631.19,1316.93 L 2676.47,1316.93 L 2703.94,1316.93 L 2703.94,1516.93 L 2676.47,1516.93 L 2631.19,1516.93 L 2533.26,1516.93 L 2533.24,1516.93 L 2505.28,1516.93 L 2505.26,1516.93 L 2467.58,1516.93 L 2446.67,1516.93 L 2427.36,1516.93 L 2410.07,1516.93 L 2398.24,1516.93 L 2398.24,1516.93 L 2382.93,1516.93 L 2382.92,1516.93 L 2374.47,1516.93 L 2360.17,1516.93 L 2353.06,1516.93 L 2339.07,1516.93 L 2331.96,1516.93 L 2317.65,1516.93 L 2309.2,1516.93 L 2309.19,1516.93 L 2293.88,1516.93 L 2293.88,1516.93 L 2282.06,1516.93 L 2264.76,1516.93 L 2245.45,1516.93 L 2243.76,1516.93 L 2243.76,1516.93 L 1146.54,1516.93 L 1062.6,1482.16 L 1058.67,1480.42 L 1054.22,1478.32 L 1047.47,1474.71 L 1043.38,1472.26 L 1037.69,1468.46 L 1033.93,1465.67 L 1028.94,1461.58 L 1025.51,1458.47 L 1023.23,1456.3 L 997.636,1430.71 L 995.354,1428.53 L 991.918,1425.42 L 986.937,1421.33 L 983.177,1418.55 L 977.486,1414.75 L 973.393,1412.29 L 972.795,1411.94 L 966.38,1411.33 L 961.75,1411.11 L 958.267,1411.02 L 525.195,1411.02 L 521.714,1411.11 L 517.082,1411.33 L 510.665,1411.94 L 510.068,1412.29 L 505.975,1414.75 L 500.284,1418.55 L 496.523,1421.34 L 491.542,1425.42 L 488.107,1428.53 L 485.825,1430.71 L 440.156,1476.38 L 437.874,1478.55 L 434.438,1481.66 L 429.457,1485.75 L 425.697,1488.54 L 420.006,1492.34 L 415.913,1494.79 L 409.161,1498.39 L 404.715,1500.5 L 400.787,1502.24 L 316.845,1537.01 L 223.958,1537.01 L 223.956,1537.01 L 222.261,1537.01 L 202.962,1537.01 L 202.953,1537.01 L 185.665,1537.01 L 185.657,1537.01 L 173.83,1537.01 L 158.515,1537.01 L 150.064,1537.01 L 135.759,1537.01 L 128.649,1537.01 L 114.657,1537.01 L 107.548,1537.01 L 93.2429,1537.01 L 84.7937,1537.01 L 69.4771,1537.01 L 57.6473,1537.01 L 57.6399,1537.01 L 40.3518,1537.01 L 40.3429,1537.01 L 21.0433,1537.01 L 0.132617,1537.01 L 3.48655e-05,1537.01 L 3.48655e-05,1337.01 z " style="fill-opacity:0.200000;fill:rgb(103,198,105);"/></g>
<g fill-rule="evenodd"><path d="M 3.48655e-05,937.008 L 0.132617,937.008 L 21.0433,937.008 L 40.3429,937.008 L 40.3518,937.008 L 57.6399,937.007 L 57.6473,937.007 L 69.4771,937.007 L 84.7937,937.007 L 93.2429,937.007 L 107.548,937.007 L 114.657,937.007 L 128.649,937.007 L 135.759,937.007 L 150.064,937.007 L 158.515,937.007 L 173.83,937.007 L 185.657,937.007 L 185.665,937.007 L 202.953,937.008 L 202.962,937.008 L 222.261,937.008 L 223.955,937.008 L 223.957,937.007 L 244.403,937.007 L 328.345,971.776 L 332.273,973.516 L 336.719,975.619 L 343.471,979.222 L 347.564,981.677 L 353.255,985.476 L 357.015,988.265 L 361.997,992.35 L 365.432,995.464 L 367.714,997.637 L 367.714,997.637 L 369.996,999.809 L 373.432,1002.92 L 378.413,1007.01 L 382.173,1009.8 L 387.865,1013.6 L 391.958,1016.05 L 398.711,1019.66 L 403.159,1021.76 L 407.085,1023.5 L 439.7,1037.01 L 1037.01,1037.01 L 1042.42,1036.87 L 1047.05,1036.65 L 1058.06,1035.56 L 1062.69,1034.87 L 1074.1,1032.6 L 1078.73,1031.44 L 1080.62,1030.95 L 1088.36,1024.49 L 1091.8,1021.38 L 1096.06,1017.32 L 1155.51,957.873 L 1159.77,953.813 L 1163.21,950.699 L 1172.49,943.09 L 1176.25,940.302 L 1186.74,933.293 L 1190.84,930.838 L 1203.11,924.287 L 1207.56,922.183 L 1214.57,919.081 L 1219.77,916.927 L 2243.76,916.927 L 2243.76,916.928 L 2245.45,916.928 L 2264.76,916.928 L 2282.06,916.928 L 2293.88,916.928 L 2293.88,916.928 L 2309.19,916.929 L 2309.2,916.929 L 2317.65,916.929 L 2331.96,916.929 L 2339.07,916.929 L 2353.06,916.929 L 2360.17,916.929 L 2374.47,916.929 L 2382.92,916.929 L 2382.93,916.929 L 2398.24,916.928 L 2398.24,916.928 L 2410.07,916.928 L 2427.36,916.928 L 2446.67,916.928 L 2467.58,916.928 L 2505.26,916.928 L 2505.28,916.928 L 2533.24,916.929 L 2533.26,916.929 L 2631.19,916.929 L 2676.47,916.929 L 2703.94,916.929 L 2703.94,1116.93 L 2676.47,1116.93 L 2631.19,1116.93 L 2533.26,1116.93 L 2533.24,1116.93 L 2505.28,1116.93 L 2505.26,1116.93 L 2467.58,1116.93 L 2446.67,1116.93 L 2427.36,1116.93 L 2410.07,1116.93 L 2398.24,1116.93 L 2398.24,1116.93 L 2382.93,1116.93 L 2382.92,1116.93 L 2374.47,1116.93 L 2360.17,1116.93 L 2353.06,1116.93 L 2339.07,1116.93 L 2331.96,1116.93 L 2317.65,1116.93 L 2309.2,1116.93 L 2309.19,1116.93 L 2293.88,1116.93 L 2293.88,1116.93 L 2282.06,1116.93 L 2264.76,1116.93 L 2245.45,1116.93 L 2243.76,1116.93 L 2243.76,1116.93 L 1794.88,1116.93 L 1787.38,1117.11 L 1782.75,1117.34 L 1767.51,1118.84 L 1762.88,1119.53 L 1747.14,1122.67 L 1742.51,1123.83 L 1731.53,1126.97 L 1260.14,1126.97 L 1165.97,1165.97 L 1161.41,1167.74 L 1156.78,1169.39 L 1148.4,1171.94 L 1143.77,1173.1 L 1136.05,1174.64 L 1131.42,1175.33 L 1124.01,1176.06 L 1119.38,1176.29 L 1115.75,1176.38 L 407.085,1176.38 L 403.45,1176.29 L 398.817,1176.06 L 391.412,1175.33 L 386.782,1174.64 L 379.062,1173.1 L 374.432,1171.94 L 366.054,1169.39 L 361.423,1167.74 L 356.858,1165.97 L 286.923,1137.01 L 223.957,1137.01 L 223.955,1137.01 L 222.261,1137.01 L 202.962,1137.01 L 202.953,1137.01 L 185.665,1137.01 L 185.657,1137.01 L 173.83,1137.01 L 158.515,1137.01 L 150.064,1137.01 L 135.759,1137.01 L 128.649,1137.01 L 114.657,1137.01 L 107.548,1137.01 L 93.2429,1137.01 L 84.7937,1137.01 L 69.4771,1137.01 L 57.6473,1137.01 L 57.6399,1137.01 L 40.3518,1137.01 L 40.3429,1137.01 L 21.0433,1137.01 L 0.132617,1137.01 L 3.48655e-05,1137.01 L 3.48655e-05,937.008 z " style="fill-opacity:0.200000;fill:rgb(115,81,255);"/></g>
<g fill-rule="evenodd"><path d="M 3.48655e-05,737.008 L 0.132617,737.008 L 21.0433,737.008 L 40.3429,737.008 L 40.3518,737.008 L 57.6399,737.007 L 57.6473,737.007 L 69.4771,737.007 L 84.7937,737.007 L 93.2429,737.007 L 107.548,737.007 L 114.657,737.007 L 128.649,737.007 L 135.759,737.007 L 150.064,737.007 L 158.515,737.007 L 158.517,737.007 L 161.366,737.007 L 172.753,739.427 L 182.084,741.934 L 196.077,746.482 L 207.047,750.706 L 216.068,754.723 L 273.285,754.723 L 285.825,759.917 L 290.873,762.153 L 295.318,764.256 L 304.078,768.931 L 308.171,771.385 L 315.61,776.352 L 319.37,779.14 L 325.914,784.507 L 329.349,787.621 L 332.352,790.479 L 414.241,872.368 L 417.245,875.229 L 425.834,883.013 L 432.425,888.418 L 435.173,890.456 L 443.366,892.508 L 451.457,894.121 L 463.034,895.839 L 470.575,896.584 L 482.153,897.152 L 485.825,897.243 L 958.267,897.243 L 961.94,897.152 L 973.516,896.584 L 981.057,895.839 L 992.634,894.121 L 1000.73,892.508 L 1008.92,890.456 L 1011.67,888.418 L 1018.26,883.012 L 1026.85,875.228 L 1029.85,872.368 L 1131.82,770.399 L 1134.82,767.541 L 1138.26,764.427 L 1144.8,759.06 L 1148.56,756.272 L 1156,751.305 L 1160.09,748.851 L 1168.85,744.175 L 1173.3,742.071 L 1178.35,739.836 L 1190.88,734.643 L 2251.65,734.643 L 2260.67,730.626 L 2271.64,726.4 L 2285.64,721.854 L 2294.96,719.348 L 2306.34,716.928 L 2309.19,716.929 L 2309.2,716.929 L 2317.65,716.929 L 2331.96,716.929 L 2339.07,716.929 L 2353.06,716.929 L 2360.17,716.929 L 2374.47,716.929 L 2382.92,716.929 L 2382.93,716.929 L 2398.24,716.928 L 2398.24,716.928 L 2410.07,716.928 L 2427.36,716.928 L 2446.67,716.928 L 2467.58,716.928 L 2505.26,716.928 L 2505.28,716.928 L 2533.24,716.929 L 2533.26,716.929 L 2631.19,716.929 L 2676.47,716.929 L 2703.94,716.929 L 2703.94,916.929 L 2676.47,916.929 L 2631.19,916.929 L 2533.26,916.929 L 2533.24,916.929 L 2505.28,916.928 L 2505.26,916.928 L 2467.58,916.928 L 2446.67,916.928 L 2427.36,916.928 L 2410.07,916.928 L 2398.24,916.928 L 2398.24,916.928 L 2382.93,916.929 L 2382.92,916.929 L 2374.47,916.929 L 2360.17,916.929 L 2353.06,916.929 L 2339.07,916.929 L 2331.96,916.929 L 2317.65,916.929 L 2309.2,916.929 L 2309.19,916.929 L 2293.88,916.928 L 2293.88,916.928 L 2282.06,916.928 L 2264.76,916.928 L 2245.45,916.928 L 2243.76,916.928 L 2243.76,916.927 L 1219.77,916.927 L 1214.57,919.081 L 1207.56,922.183 L 1203.11,924.287 L 1190.84,930.838 L 1186.74,933.293 L 1176.25,940.302 L 1172.49,943.09 L 1163.21,950.699 L 1159.77,953.813 L 1155.51,957.873 L 1096.06,1017.32 L 1091.8,1021.38 L 1088.36,1024.49 L 1080.62,1030.95 L 1078.73,1031.44 L 1074.1,1032.6 L 1062.69,1034.87 L 1058.06,1035.56 L 1047.05,1036.65 L 1042.42,1036.87 L 1037.01,1037.01 L 439.7,1037.01 L 407.085,1023.5 L 403.159,1021.76 L 398.711,1019.66 L 391.958,1016.05 L 387.865,1013.6 L 382.173,1009.8 L 378.413,1007.01 L 373.432,1002.92 L 369.996,999.809 L 367.714,997.637 L 367.714,997.637 L 365.432,995.464 L 361.997,992.35 L 357.015,988.265 L 353.255,985.476 L 347.564,981.677 L 343.471,979.222 L 336.719,975.619 L 332.273,973.516 L 328.345,971.776 L 244.403,937.007 L 223.957,937.007 L 223.955,937.008 L 222.261,937.008 L 202.962,937.008 L 202.953,937.008 L 185.665,937.007 L 185.657,937.007 L 173.83,937.007 L 158.515,937.007 L 150.064,937.007 L 135.759,937.007 L 128.649,937.007 L 114.657,937.007 L 107.548,937.007 L 93.2429,937.007 L 84.7937,937.007 L 69.4771,937.007 L 57.6473,937.007 L 57.6399,937.007 L 40.3518,937.008 L 40.3429,937.008 L 21.0433,937.008 L 0.132617,937.008 L 3.48655e-05,937.008 L 3.48655e-05,737.008 z " style="fill-opacity:0.200000;fill:rgb(74,236,41);"/></g>
<g fill-rule="evenodd"><path d="M 4.32451e-05,537.008 L 0.132617,537.008 L 21.0433,537.008 L 40.3429,537.008 L 40.3518,537.008 L 57.6399,537.007 L 57.6473,537.007 L 69.4771,537.007 L 84.7937,537.007 L 93.2429,537.007 L 107.548,537.007 L 114.657,537.007 L 128.649,537.007 L 135.759,537.007 L 150.064,537.007 L 158.517,537.007 L 158.52,537.007 L 161.365,537.007 L 161.366,537.007 L 316.845,537.007 L 322.045,539.161 L 325.704,540.781 L 336.818,546.038 L 342.65,549.15 L 352.886,555.286 L 357.509,558.371 L 366.909,565.342 L 370.769,568.508 L 379.358,576.292 L 381.1,577.951 L 505.509,702.36 L 507.251,704.019 L 515.84,711.803 L 519.699,714.968 L 520.978,715.916 L 530.98,718.421 L 535.456,719.314 L 547.032,721.032 L 551.055,721.429 L 562.633,721.997 L 564.565,722.045 L 879.527,722.045 L 881.46,721.997 L 893.036,721.429 L 897.058,721.032 L 908.635,719.314 L 913.111,718.421 L 923.113,715.916 L 924.391,714.968 L 928.25,711.803 L 936.839,704.019 L 938.582,702.36 L 1083.07,557.871 L 1084.81,556.212 L 1093.4,548.428 L 1097.26,545.263 L 1106.66,538.292 L 1111.28,535.206 L 1121.52,529.07 L 1127.35,525.958 L 1138.47,520.701 L 1142.13,519.081 L 1147.33,516.927 L 2254.99,516.927 L 2267.06,519.88 L 2279.13,520.865 L 2307.19,520.865 L 2310.63,520.134 L 2318.08,518.95 L 2332.07,517.479 L 2339.07,517.112 L 2353.06,517.112 L 2360.05,517.479 L 2374.04,518.95 L 2381.49,520.134 L 2395.49,523.107 L 2403.93,525.376 L 2412.99,528.32 L 2418.01,529.8 L 2429.1,532.747 L 2446.25,536.13 L 2467.1,538.972 L 2491.2,541.215 L 2547.05,544.268 L 2588.25,545.595 L 2703.94,547.014 L 2703.94,716.929 L 2676.47,716.929 L 2631.19,716.929 L 2533.26,716.929 L 2533.24,716.929 L 2505.28,716.928 L 2505.26,716.928 L 2467.58,716.928 L 2446.67,716.928 L 2427.36,716.928 L 2410.07,716.928 L 2398.24,716.928 L 2398.24,716.928 L 2382.93,716.929 L 2382.92,716.929 L 2374.47,716.929 L 2360.17,716.929 L 2353.06,716.929 L 2339.07,716.929 L 2331.96,716.929 L 2317.65,716.929 L 2309.2,716.929 L 2309.19,716.929 L 2306.34,716.928 L 2294.96,719.348 L 2285.64,721.854 L 2271.64,726.4 L 2260.67,730.626 L 2251.65,734.643 L 1190.88,734.643 L 1178.35,739.836 L 1173.3,742.071 L 1168.85,744.175 L 1160.09,748.851 L 1156,751.305 L 1148.56,756.272 L 1144.8,759.06 L 1138.26,764.427 L 1134.82,767.541 L 1131.82,770.399 L 1029.85,872.368 L 1026.85,875.228 L 1018.26,883.012 L 1011.67,888.418 L 1008.92,890.456 L 1000.73,892.508 L 992.634,894.121 L 981.057,895.839 L 973.516,896.584 L 961.94,897.152 L 958.267,897.243 L 485.825,897.243 L 482.153,897.152 L 470.575,896.584 L 463.034,895.839 L 451.457,894.121 L 443.366,892.508 L 435.173,890.456 L 432.425,888.418 L 425.834,883.013 L 417.245,875.229 L 414.241,872.368 L 332.352,790.479 L 329.349,787.621 L 325.914,784.507 L 319.37,779.14 L 315.61,776.352 L 308.171,771.385 L 304.078,768.931 L 295.318,764.256 L 290.873,762.153 L 285.825,759.917 L 273.285,754.723 L 216.068,754.723 L 207.047,750.706 L 196.077,746.482 L 182.084,741.934 L 172.753,739.427 L 161.366,737.007 L 158.517,737.007 L 158.515,737.007 L 150.064,737.007 L 135.759,737.007 L 128.649,737.007 L 114.657,737.007 L 107.548,737.007 L 93.2429,737.007 L 84.7937,737.007 L 69.4771,737.007 L 57.6473,737.007 L 57.6399,737.007 L 40.3518,737.008 L 40.3429,737.008 L 21.0433,737.008 L 0.132617,737.008 L 4.32451e-05,737.008 L 4.32451e-05,537.008 z " style="fill-opacity:0.200000;fill:rgb(205,186,171);"/></g>
<g fill-rule="evenodd"><path d="M 2703.94,547.014 L 2588.25,545.595 L 2547.05,544.268 L 2491.2,541.215 L 2467.1,538.972 L 2446.25,536.13 L 2429.1,532.747 L 2418.01,529.8 L 2412.99,528.32 L 2403.93,525.376 L 2395.49,523.107 L 2381.49,520.134 L 2374.04,518.95 L 2360.05,517.479 L 2353.06,517.112 L 2339.07,517.112 L 2332.07,517.479 L 2318.08,518.95 L 2310.63,520.134 L 2307.19,520.865 L 2279.13,520.865 L 2267.06,519.88 L 2254.99,516.927 L 1147.33,516.927 L 1142.13,519.081 L 1138.47,520.701 L 1127.35,525.958 L 1121.52,529.07 L 1111.28,535.206 L 1106.66,538.292 L 1097.26,545.263 L 1093.4,548.428 L 1084.81,556.212 L 1083.07,557.871 L 938.582,702.36 L 936.839,704.019 L 928.25,711.803 L 924.391,714.968 L 923.113,715.916 L 913.111,718.421 L 908.635,719.314 L 897.058,721.032 L 893.036,721.429 L 881.46,721.997 L 879.527,722.045 L 564.565,722.045 L 562.633,721.997 L 551.055,721.429 L 547.032,721.032 L 535.456,719.314 L 530.98,718.421 L 520.978,715.916 L 519.699,714.968 L 515.84,711.803 L 507.251,704.019 L 505.509,702.36 L 381.1,577.951 L 379.358,576.292 L 370.769,568.508 L 366.909,565.342 L 357.509,558.371 L 352.886,555.286 L 342.65,549.15 L 336.818,546.038 L 325.704,540.781 L 322.045,539.161 L 316.845,537.007 L 161.366,537.007 L 161.365,537.007 L 158.52,537.007 L 158.517,537.007 L 150.064,537.007 L 135.759,537.007 L 128.649,537.007 L 114.657,537.007 L 107.548,537.007 L 93.2429,537.007 L 84.7937,537.007 L 69.4771,537.007 L 57.6473,537.007 L 57.6399,537.007 L 40.3518,537.008 L 40.3429,537.008 L 21.0433,537.008 L 0.132617,537.008 L 3.48655e-05,537.008 L 4.54747e-13,0 L 2703.94,0 L 2703.94,547.014 z " style="fill-opacity:0.200000;fill:rgb(242,251,227);"/></g>
<g fill-rule="evenodd"><path d="M 3.48655e-05,1137.01 L 0.132617,1137.01 L 21.0433,1137.01 L 40.3429,1137.01 L 40.3518,1137.01 L 57.6399,1137.01 L 57.6473,1137.01 L 69.4771,1137.01 L 84.7937,1137.01 L 93.2429,1137.01 L 107.548,1137.01 L 114.657,1137.01 L 128.649,1137.01 L 135.759,1137.01 L 150.064,1137.01 L 158.515,1137.01 L 173.83,1137.01 L 185.657,1137.01 L 185.665,1137.01 L 202.953,1137.01 L 202.962,1137.01 L 222.261,1137.01 L 223.955,1137.01 L 223.957,1137.01 L 286.923,1137.01 L 356.858,1165.97 L 361.423,1167.74 L 366.054,1169.39 L 374.432,1171.94 L 379.062,1173.1 L 386.782,1174.64 L 391.412,1175.33 L 398.817,1176.06 L 403.45,1176.29 L 407.085,1176.38 L 1115.75,1176.38 L 1119.38,1176.29 L 1124.01,1176.06 L 1131.42,1175.33 L 1136.05,1174.64 L 1143.77,1173.1 L 1148.4,1171.94 L 1156.78,1169.39 L 1161.41,1167.74 L 1165.97,1165.97 L 1260.14,1126.97 L 1731.53,1126.97 L 1742.51,1123.83 L 1747.14,1122.67 L 1762.88,1119.53 L 1767.51,1118.84 L 1782.75,1117.34 L 1787.38,1117.11 L 1794.88,1116.93 L 2243.76,1116.93 L 2243.76,1116.93 L 2245.45,1116.93 L 2264.76,1116.93 L 2282.06,1116.93 L 2293.88,1116.93 L 2293.88,1116.93 L 2309.19,1116.93 L 2309.2,1116.93 L 2317.65,1116.93 L 2331.96,1116.93 L 2339.07,1116.93 L 2353.06,1116.93 L 2360.17,1116.93 L 2374.47,1116.93 L 2382.92,1116.93 L 2382.93,1116.93 L 2398.24,1116.93 L 2398.24,1116.93 L 2410.07,1116.93 L 2427.36,1116.93 L 2446.67,1116.93 L 2467.58,1116.93 L 2505.26,1116.93 L 2505.28,1116.93 L 2533.24,1116.93 L 2533.26,1116.93 L 2631.19,1116.93 L 2676.47,1116.93 L 2703.94,1116.93 L 2703.94,1316.93 L 2676.47,1316.93 L 2631.19,1316.93 L 2533.26,1316.93 L 2533.24,1316.93 L 2505.28,1316.93 L 2505.26,1316.93 L 2467.58,1316.93 L 2446.67,1316.93 L 2427.36,1316.93 L 2410.07,1316.93 L 2398.24,1316.93 L 2398.24,1316.93 L 2382.93,1316.93 L 2382.92,1316.93 L 2374.47,1316.93 L 2360.17,1316.93 L 2353.06,1316.93 L 2339.07,1316.93 L 2331.96,1316.93 L 2317.65,1316.93 L 2309.2,1316.93 L 2309.19,1316.93 L 2293.88,1316.93 L 2293.88,1316.93 L 2282.06,1316.93 L 2264.76,1316.93 L 2245.45,1316.93 L 2243.76,1316.93 L 2243.76,1316.93 L 1834.83,1316.93 L 1822.14,1320.69 L 1817.51,1321.85 L 1803.82,1324.58 L 1799.19,1325.27 L 1785.95,1326.58 L 1781.32,1326.81 L 1774.8,1326.97 L 1099.86,1326.97 L 1045.25,1304.35 L 1041.04,1302.72 L 1036.41,1301.07 L 1028.71,1298.73 L 1024.08,1297.57 L 1017,1296.15 L 1012.37,1295.47 L 1005.6,1294.8 L 1000.96,1294.57 L 997.637,1294.49 L 485.825,1294.49 L 482.499,1294.57 L 477.867,1294.8 L 471.088,1295.47 L 466.458,1296.15 L 459.38,1297.57 L 454.749,1298.73 L 447.048,1301.07 L 442.417,1302.72 L 438.206,1304.35 L 359.364,1337.01 L 223.957,1337.01 L 223.956,1337.01 L 222.261,1337.01 L 202.962,1337.01 L 202.953,1337.01 L 185.665,1337.01 L 185.657,1337.01 L 173.83,1337.01 L 158.515,1337.01 L 150.064,1337.01 L 135.759,1337.01 L 128.649,1337.01 L 114.657,1337.01 L 107.548,1337.01 L 93.2429,1337.01 L 84.7937,1337.01 L 69.4771,1337.01 L 57.6473,1337.01 L 57.6399,1337.01 L 40.3518,1337.01 L 40.3429,1337.01 L 21.0433,1337.01 L 0.132617,1337.01 L 3.48655e-05,1337.01 L 3.48655e-05,1137.01 z " style="fill-opacity:0.200000;fill:rgb(70,124,194);"/></g>
<g fill-rule="evenodd"><path d="M -0.000604339,1714.91 L 0.618636,1714.96 L 21.4602,1717.8 L 38.613,1721.19 L 49.7034,1724.14 L 54.7233,1725.62 L 63.7843,1728.56 L 72.2272,1730.83 L 86.2203,1733.8 L 93.6728,1734.98 L 107.665,1736.46 L 114.657,1736.82 L 128.649,1736.82 L 135.642,1736.46 L 149.634,1734.98 L 157.088,1733.8 L 171.08,1730.83 L 179.52,1728.56 L 188.581,1725.62 L 193.601,1724.14 L 204.692,1721.19 L 215.826,1718.74 L 236.627,1725.9 L 257.427,1737.01 L 274.325,1737.01 L 358.267,1702.24 L 362.195,1700.5 L 366.641,1698.39 L 373.392,1694.79 L 377.486,1692.34 L 383.177,1688.54 L 386.937,1685.75 L 391.918,1681.66 L 395.354,1678.55 L 397.636,1676.38 L 525.194,1548.82 L 527.476,1546.64 L 530.912,1543.53 L 535.893,1539.44 L 539.653,1536.66 L 545.345,1532.86 L 549.438,1530.4 L 550.036,1530.05 L 556.452,1529.44 L 561.084,1529.22 L 564.565,1529.13 L 879.527,1529.13 L 883.01,1529.22 L 887.64,1529.44 L 894.731,1530.14 L 899.361,1530.83 L 906.76,1532.31 L 911.391,1533.47 L 919.43,1535.91 L 924.061,1537.57 L 928.449,1539.26 L 929.438,1539.67 L 1055.9,1666.14 L 1059.18,1669.25 L 1062.61,1672.37 L 1069.74,1678.22 L 1073.5,1681 L 1081.6,1686.41 L 1085.69,1688.86 L 1095.2,1693.94 L 1099.65,1696.04 L 1105.12,1698.47 L 1149.69,1716.93 L 2243.76,1716.93 L 2243.76,1716.93 L 2245.45,1716.93 L 2264.76,1716.93 L 2282.06,1716.93 L 2293.88,1716.93 L 2293.88,1716.93 L 2309.19,1716.93 L 2309.2,1716.93 L 2317.65,1716.93 L 2331.96,1716.93 L 2339.07,1716.93 L 2353.06,1716.93 L 2360.17,1716.93 L 2374.47,1716.93 L 2382.92,1716.93 L 2382.93,1716.93 L 2398.24,1716.93 L 2398.24,1716.93 L 2410.07,1716.93 L 2427.36,1716.93 L 2446.67,1716.93 L 2467.58,1716.93 L 2505.26,1716.93 L 2505.28,1716.93 L 2533.24,1716.93 L 2533.26,1716.93 L 2631.19,1716.93 L 2676.47,1716.93 L 2703.94,1716.93 L 2703.94,2152.76 L 4.54747e-13,2152.76 L -0.000604339,1714.91 z " style="fill-opacity:0.200000;fill:rgb(84,248,27);"/></g>
<g fill-rule="evenodd"><path d="M 4.32451e-05,1537.01 L 0.132617,1537.01 L 21.0433,1537.01 L 40.3429,1537.01 L 40.3518,1537.01 L 57.6399,1537.01 L 57.6473,1537.01 L 69.4771,1537.01 L 84.7937,1537.01 L 93.2429,1537.01 L 107.548,1537.01 L 114.657,1537.01 L 128.649,1537.01 L 135.759,1537.01 L 150.064,1537.01 L 158.515,1537.01 L 173.83,1537.01 L 185.657,1537.01 L 185.665,1537.01 L 202.953,1537.01 L 202.962,1537.01 L 222.261,1537.01 L 223.956,1537.01 L 223.958,1537.01 L 316.845,1537.01 L 400.787,1502.24 L 404.715,1500.5 L 409.161,1498.39 L 415.913,1494.79 L 420.006,1492.34 L 425.697,1488.54 L 429.457,1485.75 L 434.438,1481.66 L 437.874,1478.55 L 440.156,1476.38 L 485.825,1430.71 L 488.107,1428.53 L 491.542,1425.42 L 496.523,1421.34 L 500.284,1418.55 L 505.975,1414.75 L 510.068,1412.29 L 510.665,1411.94 L 517.082,1411.33 L 521.714,1411.11 L 525.195,1411.02 L 958.267,1411.02 L 961.75,1411.11 L 966.38,1411.33 L 972.795,1411.94 L 973.393,1412.29 L 977.486,1414.75 L 983.177,1418.55 L 986.937,1421.33 L 991.918,1425.42 L 995.354,1428.53 L 997.636,1430.71 L 1023.23,1456.3 L 1025.51,1458.47 L 1028.94,1461.58 L 1033.93,1465.67 L 1037.69,1468.46 L 1043.38,1472.26 L 1047.47,1474.71 L 1054.22,1478.32 L 1058.67,1480.42 L 1062.6,1482.16 L 1146.54,1516.93 L 2243.76,1516.93 L 2243.76,1516.93 L 2245.45,1516.93 L 2264.76,1516.93 L 2282.06,1516.93 L 2293.88,1516.93 L 2293.88,1516.93 L 2309.19,1516.93 L 2309.2,1516.93 L 2317.65,1516.93 L 2331.96,1516.93 L 2339.07,1516.93 L 2353.06,1516.93 L 2360.17,1516.93 L 2374.47,1516.93 L 2382.92,1516.93 L 2382.93,1516.93 L 2398.24,1516.93 L 2398.24,1516.93 L 2410.07,1516.93 L 2427.36,1516.93 L 2446.67,1516.93 L 2467.58,1516.93 L 2505.26,1516.93 L 2505.28,1516.93 L 2533.24,1516.93 L 2533.26,1516.93 L 2631.19,1516.93 L 2676.47,1516.93 L 2703.94,1516.93 L 2703.94,1716.93 L 2676.47,1716.93 L 2631.19,1716.93 L 2533.26,1716.93 L 2533.24,1716.93 L 2505.28,1716.93 L 2505.26,1716.93 L 2467.58,1716.93 L 2446.67,1716.93 L 2427.36,1716.93 L 2410.07,1716.93 L 2398.24,1716.93 L 2398.24,1716.93 L 2382.93,1716.93 L 2382.92,1716.93 L 2374.47,1716.93 L 2360.17,1716.93 L 2353.06,1716.93 L 2339.07,1716.93 L 2331.96,1716.93 L 2317.65,1716.93 L 2309.2,1716.93 L 2309.19,1716.93 L 2293.88,1716.93 L 2293.88,1716.93 L 2282.06,1716.93 L 2264.76,1716.93 L 2245.45,1716.93 L 2243.76,1716.93 L 2243.76,1716.93 L 1149.69,1716.93 L 1105.12,1698.47 L 1099.65,1696.04 L 1095.2,1693.94 L 1085.69,1688.86 L 1081.6,1686.41 L 1073.5,1681 L 1069.74,1678.22 L 1062.61,1672.37 L 1059.18,1669.25 L 1055.9,1666.14 L 929.438,1539.67 L 928.449,1539.26 L 924.061,1537.57 L 919.43,1535.91 L 911.391,1533.47 L 906.76,1532.31 L 899.361,1530.83 L 894.731,1530.14 L 887.64,1529.44 L 883.01,1529.22 L 879.527,1529.13 L 564.565,1529.13 L 561.084,1529.22 L 556.452,1529.44 L 550.036,1530.05 L 549.438,1530.4 L 545.345,1532.86 L 539.653,1536.66 L 535.893,1539.44 L 530.912,1543.53 L 527.476,1546.64 L 525.194,1548.82 L 397.636,1676.38 L 395.354,1678.55 L 391.918,1681.66 L 386.937,1685.75 L 383.177,1688.54 L 377.486,1692.34 L 373.392,1694.79 L 366.641,1698.39 L 362.195,1700.5 L 358.267,1702.24 L 274.325,1737.01 L 257.427,1737.01 L 236.627,1725.9 L 215.826,1718.74 L 204.692,1721.19 L 193.601,1724.14 L 188.581,1725.62 L 179.52,1728.56 L 171.08,1730.83 L 157.088,1733.8 L 149.634,1734.98 L 135.642,1736.46 L 128.649,1736.82 L 114.657,1736.82 L 107.665,1736.46 L 93.6728,1734.98 L 86.2203,1733.8 L 72.2272,1730.83 L 63.7843,1728.56 L 54.7233,1725.62 L 49.7034,1724.14 L 38.613,1721.19 L 21.4602,1717.8 L 0.618636,1714.96 L 0.000230297,1714.91 L 4.32451e-05,1537.01 z " style="fill-opacity:0.200000;fill:rgb(232,231,141);"/></g>
<polyline points="50.0253,1437.5 51.5653,1422.11 56.1933,1407.86 63.4153,1395.31 73.3573,1384.11 85.4113,1375.22 99.0493,1369.04 114.657,1365.72 128.649,1365.72 143.317,1368.73 157.893,1375.22 169.597,1383.76 179.311,1394.51 187.397,1408.66 389.045,1408.66 466.123,1331.61 475.413,1325.62 485.825,1323.62 1002.71,1324.1 1008.9,1325.98 1017.34,1331.61 1074.34,1388.58 2280.32,1388.58 2288.41,1374.43 2298.12,1363.68 2309.82,1355.14 2324.4,1348.65 2338.57,1345.67 2353.06,1345.64 2368.2,1348.78 2381.45,1354.65 2394.36,1364.03 2404.3,1375.23 2411.52,1387.78 2416.15,1402.03 2417.69,1416.43 2416.15,1431.83 2411.52,1446.07 2403.72,1459.43 2394.01,1470.18 2382.3,1478.71 2368.2,1485.08 2353.55,1488.19 2339.07,1488.22 2323.46,1484.9 2309.82,1478.71 2298.5,1470.49 2287.82,1458.63 2280.32,1445.27 1062.6,1445.27 1052.19,1443.27 1042.9,1437.28 985.895,1380.31 497.565,1380.31 420.831,1457.05 411.197,1463.35 400.787,1465.35 187.397,1465.35 179.891,1478.71 169.213,1490.57 157.039,1499.29 144.257,1504.98 128.649,1508.29 113.675,1508.19 99.5113,1505.15 85.4113,1498.79 73.7073,1490.26 63.4153,1478.71 56.1933,1466.15 51.5653,1451.9 50.0253,1437.5" style="stroke:rgb(103,198,105);stroke-width:9.448819;fill:none;stroke-opacity:0.5;stroke-linecap:round;stroke-linejoin:round;;fill:none"/>
<polyline points="50.0253,1437.5 51.5653,1422.11 56.1933,1407.86 63.4153,1395.31 73.3573,1384.11 85.4113,1375.22 99.0493,1369.04 114.657,1365.72 128.649,1365.72 143.317,1368.73 157.893,1375.22 169.597,1383.76 179.311,1394.51 187.397,1408.66 389.045,1408.66 466.123,1331.61 475.413,1325.62 485.825,1323.62 1002.71,1324.1 1008.9,1325.98 1017.34,1331.61 1074.34,1388.58 2280.32,1388.58 2288.41,1374.43 2298.12,1363.68 2309.82,1355.14 2324.4,1348.65 2338.57,1345.67 2353.06,1345.64 2368.2,1348.78 2381.45,1354.65 2394.36,1364.03 2404.3,1375.23 2411.52,1387.78 2416.15,1402.03 2417.69,1416.43 2416.15,1431.83 2411.52,1446.07 2403.72,1459.43 2394.01,1470.18 2382.3,1478.71 2368.2,1485.08 2353.55,1488.19 2339.07,1488.22 2323.46,1484.9 2309.82,1478.71 2298.5,1470.49 2287.82,1458.63 2280.32,1445.27 1062.6,1445.27 1052.19,1443.27 1042.9,1437.28 985.895,1380.31 497.565,1380.31 420.831,1457.05 411.197,1463.35 400.787,1465.35 187.397,1465.35 179.891,1478.71 169.213,1490.57 157.039,1499.29 144.257,1504.98 128.649,1508.29 113.675,1508.19 99.5113,1505.15 85.4113,1498.79 73.7073,1490.26 63.4153,1478.71 56.1933,1466.15 51.5653,1451.9 50.0253,1437.5" style="stroke:rgb(0,0,0);stroke-width:1px;fill:none;stroke-opacity:1;stroke-linecap:round;stroke-linejoin:round;;fill:none"/>
<polyline points="50.0253,1037.5 51.5653,1022.11 56.1933,1007.86 63.9953,994.506 73.7073,983.758 85.4113,975.222 99.5113,968.86 113.675,965.824 128.649,965.72 144.257,969.038 157.893,975.222 169.213,983.448 179.891,995.306 187.397,1008.66 328.345,1008.66 339.611,1011.02 348.387,1016.96 418.825,1087.4 1104.01,1087.4 1194.52,996.884 1203.3,990.936 1209.49,989.058 2280.32,988.58 2287.82,975.226 2298.5,963.368 2310.68,954.65 2323.46,948.96 2339.07,945.642 2353.55,945.668 2368.2,948.782 2382.3,955.144 2394.01,963.68 2404.3,975.226 2411.52,987.784 2416.15,1002.03 2417.69,1016.43 2416.15,1031.83 2411.52,1046.07 2404.3,1058.63 2394.36,1069.83 2382.3,1078.71 2368.67,1084.9 2353.06,1088.22 2338.57,1088.19 2324.4,1085.2 2309.82,1078.71 2298.12,1070.18 2288.41,1059.43 2280.32,1045.27 1226.31,1045.27 1135.45,1136.1 1126.16,1142.09 1115.75,1144.09 402.013,1143.62 395.817,1141.74 387.041,1135.79 316.603,1065.35 187.397,1065.35 179.311,1079.51 169.597,1090.26 157.039,1099.29 143.795,1105.15 128.649,1108.29 113.675,1108.19 99.5113,1105.15 85.4113,1098.79 73.7073,1090.26 63.9953,1079.51 56.0173,1065.69 51.5653,1051.9 50.0253,1037.5" style="stroke:rgb(115,81,255);stroke-width:9.448819;fill:none;stroke-opacity:0.5;stroke-linecap:round;stroke-linejoin:round;;fill:none"/>
<polyline points="50.0253,1037.5 51.5653,1022.11 56.1933,1007.86 63.9953,994.506 73.7073,983.758 85.4113,975.222 99.5113,968.86 113.675,965.824 128.649,965.72 144.257,969.038 157.893,975.222 169.213,983.448 179.891,995.306 187.397,1008.66 328.345,1008.66 339.611,1011.02 348.387,1016.96 418.825,1087.4 1104.01,1087.4 1194.52,996.884 1203.3,990.936 1209.49,989.058 2280.32,988.58 2287.82,975.226 2298.5,963.368 2310.68,954.65 2323.46,948.96 2339.07,945.642 2353.55,945.668 2368.2,948.782 2382.3,955.144 2394.01,963.68 2404.3,975.226 2411.52,987.784 2416.15,1002.03 2417.69,1016.43 2416.15,1031.83 2411.52,1046.07 2404.3,1058.63 2394.36,1069.83 2382.3,1078.71 2368.67,1084.9 2353.06,1088.22 2338.57,1088.19 2324.4,1085.2 2309.82,1078.71 2298.12,1070.18 2288.41,1059.43 2280.32,1045.27 1226.31,1045.27 1135.45,1136.1 1126.16,1142.09 1115.75,1144.09 402.013,1143.62 395.817,1141.74 387.041,1135.79 316.603,1065.35 187.397,1065.35 179.311,1079.51 169.597,1090.26 157.039,1099.29 143.795,1105.15 128.649,1108.29 113.675,1108.19 99.5113,1105.15 85.4113,1098.79 73.7073,1090.26 63.9953,1079.51 56.0173,1065.69 51.5653,1051.9 50.0253,1037.5" style="stroke:rgb(0,0,0);stroke-width:1px;fill:none;stroke-opacity:1;stroke-linecap:round;stroke-linejoin:round;;fill:none"/>
<polyline points="50.0253,837.502 51.5653,822.11 56.1933,807.864 63.9953,794.506 73.7073,783.758 85.4113,775.222 99.5113,768.86 113.675,765.824 128.649,765.72 144.257,769.038 157.893,775.222 169.213,783.448 179.891,795.306 187.397,808.66 285.825,808.66 291.803,809.318 301.175,813.2 418.825,929.92 1025.27,929.92 1158.3,796.884 1167.08,790.936 1177.88,788.604 2280.32,788.58 2288.41,774.428 2298.12,763.68 2309.82,755.144 2324.4,748.654 2338.57,745.668 2353.06,745.642 2368.2,748.782 2381.45,754.65 2394.36,764.03 2404.3,775.226 2411.52,787.784 2416.15,802.03 2417.69,816.434 2416.15,831.826 2411.52,846.072 2404.3,858.63 2394.36,869.828 2382.3,878.714 2368.67,884.898 2353.06,888.216 2338.57,888.19 2324.4,885.204 2309.82,878.714 2298.12,870.178 2288.41,859.43 2280.32,845.274 1190.09,845.274 1057.05,978.31 1048.27,984.258 1037.01,986.614 402.013,986.136 395.817,984.258 387.041,978.31 274.083,865.354 187.397,865.354 179.311,879.508 169.597,890.256 157.893,898.792 143.317,905.282 128.649,908.294 113.675,908.19 99.5113,905.154 86.2673,899.286 73.3573,889.906 63.4153,878.71 56.1933,866.152 51.5653,851.904 50.0253,837.502" style="stroke:rgb(74,236,41);stroke-width:9.448819;fill:none;stroke-opacity:0.5;stroke-linecap:round;stroke-linejoin:round;;fill:none"/>
<polyline points="50.0253,837.502 51.5653,822.11 56.1933,807.864 63.9953,794.506 73.7073,783.758 85.4113,775.222 99.5113,768.86 113.675,765.824 128.649,765.72 144.257,769.038 157.893,775.222 169.213,783.448 179.891,795.306 187.397,808.66 285.825,808.66 291.803,809.318 301.175,813.2 418.825,929.92 1025.27,929.92 1158.3,796.884 1167.08,790.936 1177.88,788.604 2280.32,788.58 2288.41,774.428 2298.12,763.68 2309.82,755.144 2324.4,748.654 2338.57,745.668 2353.06,745.642 2368.2,748.782 2381.45,754.65 2394.36,764.03 2404.3,775.226 2411.52,787.784 2416.15,802.03 2417.69,816.434 2416.15,831.826 2411.52,846.072 2404.3,858.63 2394.36,869.828 2382.3,878.714 2368.67,884.898 2353.06,888.216 2338.57,888.19 2324.4,885.204 2309.82,878.714 2298.12,870.178 2288.41,859.43 2280.32,845.274 1190.09,845.274 1057.05,978.31 1048.27,984.258 1037.01,986.614 402.013,986.136 395.817,984.258 387.041,978.31 274.083,865.354 187.397,865.354 179.311,879.508 169.597,890.256 157.893,898.792 143.317,905.282 128.649,908.294 113.675,908.19 99.5113,905.154 86.2673,899.286 73.3573,889.906 63.4153,878.71 56.1933,866.152 51.5653,851.904 50.0253,837.502" style="stroke:rgb(0,0,0);stroke-width:1px;fill:none;stroke-opacity:1;stroke-linecap:round;stroke-linejoin:round;;fill:none"/>
<polyline points="50.0253,637.502 51.6933,621.632 56.1933,607.864 63.9953,594.506 73.7073,583.758 85.4113,575.222 99.9873,568.732 114.657,565.72 128.649,565.72 143.795,568.86 153.667,573.228 322.043,573.228 334.029,574.384 346.871,578.28 357.851,584.252 367.143,591.908 512.243,737.006 931.847,737.006 1097.37,571.516 1106.32,564.172 1117.3,558.2 1129.23,554.486 1141.66,553.17 2314.05,553.148 2324.4,548.654 2338.08,545.744 2353.06,545.642 2368.2,548.782 2381.45,554.65 2394.36,564.03 2404.3,575.226 2411.52,587.784 2416.15,602.03 2417.69,616.434 2416.15,631.826 2411.52,646.072 2404.3,658.63 2394.36,669.828 2382.3,678.714 2368.67,684.898 2353.06,688.216 2338.08,688.112 2323.92,685.076 2314.05,680.706 1168.54,680.706 1003.02,846.196 993.303,854.054 982.237,859.866 970.251,863.408 958.267,864.564 485.825,864.564 472.931,863.226 460.997,859.512 450.787,854.054 440.725,845.884 295.625,700.786 153.667,700.786 143.795,705.154 128.649,708.294 114.657,708.294 99.9873,705.282 85.4113,698.792 73.7073,690.256 63.9953,679.508 56.0173,665.69 51.5653,651.904 50.0253,637.502" style="stroke:rgb(205,186,171);stroke-width:9.448819;fill:none;stroke-opacity:0.5;stroke-linecap:round;stroke-linejoin:round;;fill:none"/>
<polyline points="50.0253,637.502 51.6933,621.632 56.1933,607.864 63.9953,594.506 73.7073,583.758 85.4113,575.222 99.9873,568.732 114.657,565.72 128.649,565.72 143.795,568.86 153.667,573.228 322.043,573.228 334.029,574.384 346.871,578.28 357.851,584.252 367.143,591.908 512.243,737.006 931.847,737.006 1097.37,571.516 1106.32,564.172 1117.3,558.2 1129.23,554.486 1141.66,553.17 2314.05,553.148 2324.4,548.654 2338.08,545.744 2353.06,545.642 2368.2,548.782 2381.45,554.65 2394.36,564.03 2404.3,575.226 2411.52,587.784 2416.15,602.03 2417.69,616.434 2416.15,631.826 2411.52,646.072 2404.3,658.63 2394.36,669.828 2382.3,678.714 2368.67,684.898 2353.06,688.216 2338.08,688.112 2323.92,685.076 2314.05,680.706 1168.54,680.706 1003.02,846.196 993.303,854.054 982.237,859.866 970.251,863.408 958.267,864.564 485.825,864.564 472.931,863.226 460.997,859.512 450.787,854.054 440.725,845.884 295.625,700.786 153.667,700.786 143.795,705.154 128.649,708.294 114.657,708.294 99.9873,705.282 85.4113,698.792 73.7073,690.256 63.9953,679.508 56.0173,665.69 51.5653,651.904 50.0253,637.502" style="stroke:rgb(0,0,0);stroke-width:1px;fill:none;stroke-opacity:1;stroke-linecap:round;stroke-linejoin:round;;fill:none"/>
<polyline points="50.0253,437.502 51.6933,421.632 56.1933,407.864 63.9953,394.506 73.7073,383.758 85.4113,375.222 99.5113,368.86 113.675,365.824 129.631,365.824 143.795,368.86 153.667,373.228 358.265,373.228 370.251,374.384 383.093,378.28 394.073,384.252 403.365,391.908 590.983,579.526 853.107,579.526 1060.81,371.828 1070.1,364.172 1081.08,358.2 1093.92,354.304 1105.9,353.148 2274.41,353.148 2275.21,347.374 2279.13,345.276 2412.99,345.276 2416.33,346.658 2417.72,350 2417.72,483.858 2416.92,486.482 2413.91,488.492 2279.13,488.582 2275.21,486.482 2274.41,480.706 1132.32,480.706 924.281,688.716 914.563,696.574 903.497,702.386 891.511,705.928 879.527,707.084 564.565,707.084 552.579,705.928 540.593,702.386 529.527,696.574 519.465,688.404 331.847,500.786 153.667,500.786 143.795,505.154 128.649,508.294 114.657,508.294 99.9873,505.282 85.4113,498.792 73.7073,490.256 63.9953,479.508 56.0173,465.69 51.5653,451.904 50.0253,437.502" style="stroke:rgb(242,251,227);stroke-width:9.448819;fill:none;stroke-opacity:0.5;stroke-linecap:round;stroke-linejoin:round;;fill:none"/>
<polyline points="50.0253,437.502 51.6933,421.632 56.1933,407.864 63.9953,394.506 73.7073,383.758 85.4113,375.222 99.5113,368.86 113.675,365.824 129.631,365.824 143.795,368.86 153.667,373.228 358.265,373.228 370.251,374.384 383.093,378.28 394.073,384.252 403.365,391.908 590.983,579.526 853.107,579.526 1060.81,371.828 1070.1,364.172 1081.08,358.2 1093.92,354.304 1105.9,353.148 2274.41,353.148 2275.21,347.374 2279.13,345.276 2412.99,345.276 2416.33,346.658 2417.72,350 2417.72,483.858 2416.92,486.482 2413.91,488.492 2279.13,488.582 2275.21,486.482 2274.41,480.706 1132.32,480.706 924.281,688.716 914.563,696.574 903.497,702.386 891.511,705.928 879.527,707.084 564.565,707.084 552.579,705.928 540.593,702.386 529.527,696.574 519.465,688.404 331.847,500.786 153.667,500.786 143.795,505.154 128.649,508.294 114.657,508.294 99.9873,505.282 85.4113,498.792 73.7073,490.256 63.9953,479.508 56.0173,465.69 51.5653,451.904 50.0253,437.502" style="stroke:rgb(0,0,0);stroke-width:1px;fill:none;stroke-opacity:1;stroke-linecap:round;stroke-linejoin:round;;fill:none"/>
<polyline points="50.0253,1237.5 51.5653,1222.11 56.1933,1207.86 63.4153,1195.31 73.3573,1184.11 85.4113,1175.22 99.0493,1169.04 114.657,1165.72 128.649,1165.72 143.317,1168.73 157.893,1175.22 169.597,1183.76 179.311,1194.51 187.397,1208.66 1763.06,1208.66 1779.53,1193.12 1788.9,1189.24 1794.88,1188.58 2280.32,1188.58 2287.82,1175.23 2298.5,1163.37 2310.68,1154.65 2323.46,1148.96 2339.07,1145.64 2353.55,1145.67 2368.2,1148.78 2382.3,1155.14 2394.01,1163.68 2404.3,1175.23 2411.52,1187.78 2416.15,1202.03 2417.69,1216.43 2416.15,1231.83 2411.52,1246.07 2404.3,1258.63 2394.36,1269.83 2382.3,1278.71 2368.67,1284.9 2353.06,1288.22 2338.57,1288.19 2324.4,1285.2 2309.82,1278.71 2298.12,1270.18 2288.41,1259.43 2280.32,1245.27 1806.62,1245.27 1790.15,1260.81 1780.78,1264.7 1774.8,1265.35 187.397,1265.35 179.891,1278.71 169.213,1290.57 157.039,1299.29 144.257,1304.98 128.649,1308.29 113.675,1308.19 99.5113,1305.15 85.4113,1298.79 73.7073,1290.26 63.4153,1278.71 56.1933,1266.15 51.5653,1251.9 50.0253,1237.5" style="stroke:rgb(70,124,194);stroke-width:9.448819;fill:none;stroke-opacity:0.5;stroke-linecap:round;stroke-linejoin:round;;fill:none"/>
<polyline points="50.0253,1237.5 51.5653,1222.11 56.1933,1207.86 63.4153,1195.31 73.3573,1184.11 85.4113,1175.22 99.0493,1169.04 114.657,1165.72 128.649,1165.72 143.317,1168.73 157.893,1175.22 169.597,1183.76 179.311,1194.51 187.397,1208.66 1763.06,1208.66 1779.53,1193.12 1788.9,1189.24 1794.88,1188.58 2280.32,1188.58 2287.82,1175.23 2298.5,1163.37 2310.68,1154.65 2323.46,1148.96 2339.07,1145.64 2353.55,1145.67 2368.2,1148.78 2382.3,1155.14 2394.01,1163.68 2404.3,1175.23 2411.52,1187.78 2416.15,1202.03 2417.69,1216.43 2416.15,1231.83 2411.52,1246.07 2404.3,1258.63 2394.36,1269.83 2382.3,1278.71 2368.67,1284.9 2353.06,1288.22 2338.57,1288.19 2324.4,1285.2 2309.82,1278.71 2298.12,1270.18 2288.41,1259.43 2280.32,1245.27 1806.62,1245.27 1790.15,1260.81 1780.78,1264.7 1774.8,1265.35 187.397,1265.35 179.891,1278.71 169.213,1290.57 157.039,1299.29 144.257,1304.98 128.649,1308.29 113.675,1308.19 99.5113,1305.15 85.4113,1298.79 73.7073,1290.26 63.4153,1278.71 56.1933,1266.15 51.5653,1251.9 50.0253,1237.5" style="stroke:rgb(0,0,0);stroke-width:1px;fill:none;stroke-opacity:1;stroke-linecap:round;stroke-linejoin:round;;fill:none"/>
<polyline points="49.9993,1903.94 49.9993,1770.08 52.0993,1766.15 189.503,1765.44 191.923,1766.74 193.305,1770.08 193.305,1808.66 304.005,1808.66 544.519,1568.14 553.297,1562.2 564.565,1559.84 879.527,1559.84 889.937,1561.84 899.569,1568.14 1120.01,1788.58 2280.32,1788.58 2288.41,1774.43 2298.12,1763.68 2309.82,1755.14 2324.4,1748.65 2338.57,1745.67 2353.06,1745.64 2368.2,1748.78 2381.45,1754.65 2394.36,1764.03 2404.3,1775.23 2411.52,1787.78 2416.15,1802.03 2417.69,1816.43 2416.15,1831.83 2411.52,1846.07 2404.3,1858.63 2394.36,1869.83 2382.3,1878.71 2368.67,1884.9 2353.06,1888.22 2338.57,1888.19 2324.4,1885.2 2309.82,1878.71 2298.12,1870.18 2288.41,1859.43 2280.32,1845.27 1103.2,1844.8 1097,1842.92 1088.22,1836.97 867.785,1616.53 576.305,1616.53 331.097,1860.81 321.725,1864.7 315.745,1865.35 193.305,1865.35 193.305,1903.94 191.923,1907.28 189.503,1908.57 54.7233,1908.66 51.3833,1907.28 49.9993,1903.94" style="stroke:rgb(84,248,27);stroke-width:9.448819;fill:none;stroke-opacity:0.5;stroke-linecap:round;stroke-linejoin:round;;fill:none"/>
<polyline points="49.9993,1903.94 49.9993,1770.08 52.0993,1766.15 189.503,1765.44 191.923,1766.74 193.305,1770.08 193.305,1808.66 304.005,1808.66 544.519,1568.14 553.297,1562.2 564.565,1559.84 879.527,1559.84 889.937,1561.84 899.569,1568.14 1120.01,1788.58 2280.32,1788.58 2288.41,1774.43 2298.12,1763.68 2309.82,1755.14 2324.4,1748.65 2338.57,1745.67 2353.06,1745.64 2368.2,1748.78 2381.45,1754.65 2394.36,1764.03 2404.3,1775.23 2411.52,1787.78 2416.15,1802.03 2417.69,1816.43 2416.15,1831.83 2411.52,1846.07 2404.3,1858.63 2394.36,1869.83 2382.3,1878.71 2368.67,1884.9 2353.06,1888.22 2338.57,1888.19 2324.4,1885.2 2309.82,1878.71 2298.12,1870.18 2288.41,1859.43 2280.32,1845.27 1103.2,1844.8 1097,1842.92 1088.22,1836.97 867.785,1616.53 576.305,1616.53 331.097,1860.81 321.725,1864.7 315.745,1865.35 193.305,1865.35 193.305,1903.94 191.923,1907.28 189.503,1908.57 54.7233,1908.66 51.3833,1907.28 49.9993,1903.94" style="stroke:rgb(0,0,0);stroke-width:1px;fill:none;stroke-opacity:1;stroke-linecap:round;stroke-linejoin:round;;fill:none"/>
<polyline points="50.0253,1637.5 51.5653,1622.11 56.1933,1607.86 63.4153,1595.31 73.3573,1584.11 85.4113,1575.22 99.0493,1569.04 114.657,1565.72 128.649,1565.72 143.317,1568.73 157.893,1575.22 169.597,1583.76 179.311,1594.51 187.397,1608.66 346.525,1608.66 505.149,1450.03 513.927,1444.09 525.195,1441.73 964.245,1442.39 973.617,1446.27 978.309,1450.03 1116.86,1588.58 2280.32,1588.58 2288.41,1574.43 2298.12,1563.68 2309.82,1555.14 2324.4,1548.65 2338.57,1545.67 2353.06,1545.64 2368.2,1548.78 2381.45,1554.65 2394.36,1564.03 2404.3,1575.23 2411.52,1587.78 2416.15,1602.03 2417.69,1616.43 2416.15,1631.83 2411.52,1646.07 2404.3,1658.63 2394.36,1669.83 2382.3,1678.71 2368.67,1684.9 2353.06,1688.22 2338.57,1688.19 2324.4,1685.2 2309.82,1678.71 2298.12,1670.18 2288.41,1659.43 2280.32,1645.27 1104.65,1645.25 1093.85,1642.92 1085.07,1636.97 946.525,1498.42 536.935,1498.42 378.311,1657.05 373.617,1660.81 364.245,1664.7 187.397,1665.35 179.311,1679.51 169.597,1690.26 157.893,1698.79 143.317,1705.28 128.649,1708.29 114.657,1708.29 99.5113,1705.15 86.2673,1699.29 73.3573,1689.91 63.4153,1678.71 56.1933,1666.15 51.5653,1651.9 50.0253,1637.5" style="stroke:rgb(232,231,141);stroke-width:9.448819;fill:none;stroke-opacity:0.5;stroke-linecap:round;stroke-linejoin:round;;fill:none"/>
<polyline points="50.0253,1637.5 51.5653,1622.11 56.1933,1607.86 63.4153,1595.31 73.3573,1584.11 85.4113,1575.22 99.0493,1569.04 114.657,1565.72 128.649,1565.72 143.317,1568.73 157.893,1575.22 169.597,1583.76 179.311,1594.51 187.397,1608.66 346.525,1608.66 505.149,1450.03 513.927,1444.09 525.195,1441.73 964.245,1442.39 973.617,1446.27 978.309,1450.03 1116.86,1588.58 2280.32,1588.58 2288.41,1574.43 2298.12,1563.68 2309.82,1555.14 2324.4,1548.65 2338.57,1545.67 2353.06,1545.64 2368.2,1548.78 2381.45,1554.65 2394.36,1564.03 2404.3,1575.23 2411.52,1587.78 2416.15,1602.03 2417.69,1616.43 2416.15,1631.83 2411.52,1646.07 2404.3,1658.63 2394.36,1669.83 2382.3,1678.71 2368.67,1684.9 2353.06,1688.22 2338.57,1688.19 2324.4,1685.2 2309.82,1678.71 2298.12,1670.18 2288.41,1659.43 2280.32,1645.27 1104.65,1645.25 1093.85,1642.92 1085.07,1636.97 946.525,1498.42 536.935,1498.42 378.311,1657.05 373.617,1660.81 364.245,1664.7 187.397,1665.35 179.311,1679.51 169.597,1690.26 157.893,1698.79 143.317,1705.28 128.649,1708.29 114.657,1708.29 99.5113,1705.15 86.2673,1699.29 73.3573,1689.91 63.4153,1678.71 56.1933,1666.15 51.5653,1651.9 50.0253,1637.5" style="stroke:rgb(0,0,0);stroke-width:1px;fill:none;stroke-opacity:1;stroke-linecap:round;stroke-linejoin:round;;fill:none"/>
<g fill-rule="evenodd"><path d="M 2283.75,1440.55 L 1062.6,1440.55 L 1057.99,1440.1 L 1053.56,1438.75 L 1049.47,1436.57 L 1045.89,1433.63 L 987.853,1375.59 L 495.61,1375.59 L 417.491,1453.71 L 413.911,1456.65 L 409.827,1458.83 L 405.396,1460.18 L 400.787,1460.63 L 183.966,1460.63 L 182.796,1464.23 L 175.8,1476.35 L 166.438,1486.75 L 155.118,1494.97 L 142.336,1500.66 L 128.65,1503.57 L 114.658,1503.57 L 100.971,1500.66 L 88.189,1494.97 L 76.8692,1486.75 L 67.5067,1476.35 L 60.5107,1464.23 L 56.187,1450.92 L 54.7244,1437.01 L 56.187,1423.09 L 60.5107,1409.79 L 67.5067,1397.67 L 76.8692,1387.27 L 88.189,1379.05 L 100.971,1373.35 L 114.658,1370.45 L 128.65,1370.45 L 142.336,1373.35 L 155.118,1379.05 L 166.438,1387.27 L 175.8,1397.67 L 182.796,1409.79 L 183.966,1413.39 L 391.002,1413.39 L 469.122,1335.26 L 472.701,1332.33 L 476.785,1330.14 L 481.217,1328.8 L 485.825,1328.35 L 997.637,1328.35 L 1002.25,1328.8 L 1006.68,1330.14 L 1010.76,1332.33 L 1014.34,1335.26 L 1072.38,1393.31 L 2283.75,1393.31 L 2284.92,1389.71 L 2291.92,1377.59 L 2301.28,1367.19 L 2312.6,1358.97 L 2325.38,1353.28 L 2339.07,1350.37 L 2353.06,1350.37 L 2366.75,1353.28 L 2379.53,1358.97 L 2390.85,1367.19 L 2400.21,1377.59 L 2407.21,1389.71 L 2411.53,1403.01 L 2412.99,1416.93 L 2411.53,1430.84 L 2407.21,1444.15 L 2400.21,1456.27 L 2390.85,1466.67 L 2379.53,1474.89 L 2366.75,1480.58 L 2353.06,1483.49 L 2339.07,1483.49 L 2325.38,1480.58 L 2312.6,1474.89 L 2301.28,1466.67 L 2291.92,1456.27 L 2284.92,1444.15 L 2283.75,1440.55 z " style="fill-opacity:1.000000;fill:rgb(103,198,105);stroke:rgb(0,0,0);stroke-width:2"/></g>
<g fill-rule="evenodd"><path d="M 2283.75,1040.55 L 1224.35,1040.55 L 1132.45,1132.45 L 1128.87,1135.39 L 1124.79,1137.57 L 1120.36,1138.92 L 1115.75,1139.37 L 407.085,1139.37 L 402.477,1138.92 L 398.045,1137.57 L 393.962,1135.39 L 390.382,1132.45 L 318.561,1060.63 L 183.966,1060.63 L 182.796,1064.23 L 175.8,1076.35 L 166.438,1086.75 L 155.118,1094.97 L 142.336,1100.66 L 128.65,1103.57 L 114.658,1103.57 L 100.971,1100.66 L 88.189,1094.97 L 76.8692,1086.75 L 67.5067,1076.35 L 60.5107,1064.23 L 56.187,1050.92 L 54.7244,1037.01 L 56.187,1023.09 L 60.5107,1009.79 L 67.5067,997.668 L 76.8692,987.27 L 88.189,979.046 L 100.971,973.354 L 114.658,970.445 L 128.65,970.445 L 142.336,973.354 L 155.118,979.046 L 166.438,987.27 L 175.8,997.668 L 182.796,1009.79 L 183.966,1013.39 L 328.345,1013.39 L 332.954,1013.84 L 337.385,1015.18 L 341.469,1017.37 L 345.049,1020.3 L 416.87,1092.13 L 1105.96,1092.13 L 1197.86,1000.22 L 1201.44,997.287 L 1205.53,995.104 L 1209.96,993.759 L 1214.57,993.306 L 2283.75,993.306 L 2284.92,989.707 L 2291.92,977.589 L 2301.28,967.191 L 2312.6,958.967 L 2325.38,953.276 L 2339.07,950.367 L 2353.06,950.367 L 2366.75,953.276 L 2379.53,958.967 L 2390.85,967.191 L 2400.21,977.589 L 2407.21,989.707 L 2411.53,1003.01 L 2412.99,1016.93 L 2411.53,1030.84 L 2407.21,1044.15 L 2400.21,1056.27 L 2390.85,1066.67 L 2379.53,1074.89 L 2366.75,1080.58 L 2353.06,1083.49 L 2339.07,1083.49 L 2325.38,1080.58 L 2312.6,1074.89 L 2301.28,1066.67 L 2291.92,1056.27 L 2284.92,1044.15 L 2283.75,1040.55 z " style="fill-opacity:1.000000;fill:rgb(115,81,255);stroke:rgb(0,0,0);stroke-width:2"/></g>
<g fill-rule="evenodd"><path d="M 2283.75,840.55 L 1188.13,840.55 L 1053.71,974.971 L 1050.13,977.909 L 1046.05,980.091 L 1041.62,981.436 L 1037.01,981.89 L 407.085,981.89 L 402.477,981.436 L 398.045,980.092 L 393.962,977.909 L 390.382,974.971 L 276.041,860.63 L 183.966,860.63 L 182.796,864.23 L 175.8,876.348 L 166.438,886.746 L 155.118,894.97 L 142.336,900.661 L 128.65,903.57 L 114.658,903.57 L 100.971,900.661 L 88.189,894.97 L 76.8692,886.746 L 67.5067,876.348 L 60.5107,864.23 L 56.187,850.923 L 54.7244,837.008 L 56.187,823.093 L 60.5107,809.785 L 67.5067,797.668 L 76.8692,787.27 L 88.189,779.046 L 100.971,773.354 L 114.658,770.445 L 128.65,770.445 L 142.336,773.354 L 155.118,779.046 L 166.438,787.27 L 175.8,797.668 L 182.796,809.785 L 183.966,813.385 L 285.825,813.386 L 290.434,813.839 L 294.865,815.184 L 298.949,817.367 L 302.529,820.304 L 416.87,934.646 L 1027.22,934.646 L 1161.64,800.224 L 1165.22,797.287 L 1169.31,795.104 L 1173.74,793.759 L 1178.35,793.306 L 2283.75,793.306 L 2284.92,789.707 L 2291.92,777.589 L 2301.28,767.191 L 2312.6,758.967 L 2325.38,753.276 L 2339.07,750.367 L 2353.06,750.367 L 2366.75,753.276 L 2379.53,758.967 L 2390.85,767.191 L 2400.21,777.589 L 2407.21,789.707 L 2411.53,803.014 L 2412.99,816.929 L 2411.53,830.844 L 2407.21,844.152 L 2400.21,856.269 L 2390.85,866.667 L 2379.53,874.891 L 2366.75,880.583 L 2353.06,883.492 L 2339.07,883.492 L 2325.38,880.583 L 2312.6,874.891 L 2301.28,866.667 L 2291.92,856.269 L 2284.92,844.152 L 2283.75,840.55 z " style="fill-opacity:1.000000;fill:rgb(74,236,41);stroke:rgb(0,0,0);stroke-width:2"/></g>
<g fill-rule="evenodd"><path d="M 2315.05,675.983 L 1166.59,675.983 L 1000.03,842.544 L 991.077,849.888 L 980.867,855.345 L 969.788,858.706 L 958.267,859.841 L 485.825,859.841 L 474.304,858.706 L 463.226,855.345 L 453.016,849.888 L 444.067,842.544 L 297.584,696.063 L 152.664,696.063 L 142.336,700.661 L 128.65,703.57 L 114.658,703.57 L 100.971,700.661 L 88.189,694.97 L 76.8692,686.746 L 67.5067,676.348 L 60.5107,664.23 L 56.187,650.923 L 54.7244,637.008 L 56.187,623.093 L 60.5107,609.785 L 67.5067,597.668 L 76.8692,587.27 L 88.189,579.046 L 100.971,573.354 L 114.658,570.445 L 128.65,570.445 L 142.336,573.354 L 152.663,577.953 L 322.045,577.952 L 333.566,579.087 L 344.645,582.448 L 354.854,587.905 L 363.803,595.249 L 510.286,741.73 L 933.806,741.73 L 1100.37,575.169 L 1109.32,567.825 L 1119.53,562.368 L 1130.6,559.007 L 1142.13,557.872 L 2315.06,557.872 L 2325.38,553.276 L 2339.07,550.367 L 2353.06,550.367 L 2366.75,553.276 L 2379.53,558.967 L 2390.85,567.191 L 2400.21,577.589 L 2407.21,589.707 L 2411.53,603.014 L 2412.99,616.929 L 2411.53,630.844 L 2407.21,644.152 L 2400.21,656.269 L 2390.85,666.667 L 2379.53,674.891 L 2366.75,680.583 L 2353.06,683.492 L 2339.07,683.492 L 2325.38,680.583 L 2315.05,675.983 z " style="fill-opacity:1.000000;fill:rgb(205,186,171);stroke:rgb(0,0,0);stroke-width:2"/></g>
<g fill-rule="evenodd"><path d="M 2279.13,357.872 L 2279.13,350 L 2412.99,350 L 2412.99,483.858 L 2279.13,483.858 L 2279.13,475.983 L 1130.37,475.983 L 921.286,685.064 L 912.337,692.408 L 902.127,697.865 L 891.048,701.226 L 879.527,702.361 L 564.565,702.361 L 553.044,701.226 L 541.966,697.865 L 531.756,692.408 L 522.807,685.064 L 333.806,496.063 L 152.664,496.063 L 142.336,500.661 L 128.65,503.57 L 114.658,503.57 L 100.971,500.661 L 88.189,494.97 L 76.8692,486.746 L 67.5067,476.348 L 60.5107,464.23 L 56.187,450.923 L 54.7244,437.008 L 56.187,423.093 L 60.5107,409.785 L 67.5067,397.668 L 76.8692,387.27 L 88.189,379.046 L 100.971,373.354 L 114.658,370.445 L 128.65,370.445 L 142.336,373.354 L 152.663,377.953 L 358.267,377.952 L 369.788,379.087 L 380.867,382.448 L 391.077,387.905 L 400.026,395.249 L 589.027,584.25 L 855.066,584.25 L 1064.15,375.169 L 1073.1,367.825 L 1083.31,362.368 L 1094.38,359.007 L 1105.91,357.872 L 2279.13,357.872 z " style="fill-opacity:1.000000;fill:rgb(242,251,227);stroke:rgb(0,0,0);stroke-width:2"/></g>
<g fill-rule="evenodd"><path d="M 2283.75,1240.55 L 1804.67,1240.55 L 1791.5,1253.71 L 1787.92,1256.65 L 1783.84,1258.83 L 1779.41,1260.18 L 1774.8,1260.63 L 183.966,1260.63 L 182.796,1264.23 L 175.8,1276.35 L 166.438,1286.75 L 155.118,1294.97 L 142.336,1300.66 L 128.65,1303.57 L 114.658,1303.57 L 100.971,1300.66 L 88.189,1294.97 L 76.8692,1286.75 L 67.5067,1276.35 L 60.5107,1264.23 L 56.187,1250.92 L 54.7244,1237.01 L 56.187,1223.09 L 60.5107,1209.79 L 67.5067,1197.67 L 76.8692,1187.27 L 88.189,1179.05 L 100.971,1173.35 L 114.658,1170.45 L 128.65,1170.45 L 142.336,1173.35 L 155.118,1179.05 L 166.438,1187.27 L 175.8,1197.67 L 182.796,1209.79 L 183.966,1213.39 L 1765.02,1213.39 L 1778.18,1200.22 L 1781.76,1197.29 L 1785.84,1195.1 L 1790.27,1193.76 L 1794.88,1193.31 L 2283.75,1193.31 L 2284.92,1189.71 L 2291.92,1177.59 L 2301.28,1167.19 L 2312.6,1158.97 L 2325.38,1153.28 L 2339.07,1150.37 L 2353.06,1150.37 L 2366.75,1153.28 L 2379.53,1158.97 L 2390.85,1167.19 L 2400.21,1177.59 L 2407.21,1189.71 L 2411.53,1203.01 L 2412.99,1216.93 L 2411.53,1230.84 L 2407.21,1244.15 L 2400.21,1256.27 L 2390.85,1266.67 L 2379.53,1274.89 L 2366.75,1280.58 L 2353.06,1283.49 L 2339.07,1283.49 L 2325.38,1280.58 L 2312.6,1274.89 L 2301.28,1266.67 L 2291.92,1256.27 L 2284.92,1244.15 L 2283.75,1240.55 z " style="fill-opacity:1.000000;fill:rgb(70,124,194);stroke:rgb(0,0,0);stroke-width:2"/></g>
<g fill-rule="evenodd"><path d="M 2283.75,1840.55 L 1108.27,1840.55 L 1103.66,1840.1 L 1099.23,1838.75 L 1095.14,1836.57 L 1091.56,1833.63 L 869.743,1611.81 L 574.35,1611.81 L 332.451,1853.71 L 328.871,1856.65 L 324.787,1858.83 L 320.356,1860.18 L 315.747,1860.63 L 188.583,1860.63 L 188.583,1903.94 L 54.7244,1903.94 L 54.7244,1770.08 L 188.583,1770.08 L 188.583,1813.39 L 305.963,1813.39 L 547.862,1571.48 L 551.441,1568.55 L 555.525,1566.36 L 559.957,1565.02 L 564.565,1564.57 L 879.527,1564.57 L 884.136,1565.02 L 888.567,1566.36 L 892.651,1568.55 L 896.231,1571.48 L 1118.05,1793.31 L 2283.75,1793.31 L 2284.92,1789.71 L 2291.92,1777.59 L 2301.28,1767.19 L 2312.6,1758.97 L 2325.38,1753.28 L 2339.07,1750.37 L 2353.06,1750.37 L 2366.75,1753.28 L 2379.53,1758.97 L 2390.85,1767.19 L 2400.21,1777.59 L 2407.21,1789.71 L 2411.53,1803.01 L 2412.99,1816.93 L 2411.53,1830.84 L 2407.21,1844.15 L 2400.21,1856.27 L 2390.85,1866.67 L 2379.53,1874.89 L 2366.75,1880.58 L 2353.06,1883.49 L 2339.07,1883.49 L 2325.38,1880.58 L 2312.6,1874.89 L 2301.28,1866.67 L 2291.92,1856.27 L 2284.92,1844.15 L 2283.75,1840.55 z " style="fill-opacity:1.000000;fill:rgb(84,248,27);stroke:rgb(0,0,0);stroke-width:2"/></g>
<g fill-rule="evenodd"><path d="M 2283.75,1640.55 L 1105.12,1640.55 L 1100.51,1640.1 L 1096.08,1638.75 L 1091.99,1636.57 L 1088.41,1633.63 L 948.483,1493.7 L 534.98,1493.7 L 374.971,1653.71 L 371.391,1656.65 L 367.307,1658.83 L 362.876,1660.18 L 358.267,1660.63 L 183.966,1660.63 L 182.796,1664.23 L 175.8,1676.35 L 166.438,1686.75 L 155.118,1694.97 L 142.336,1700.66 L 128.65,1703.57 L 114.658,1703.57 L 100.971,1700.66 L 88.189,1694.97 L 76.8692,1686.75 L 67.5067,1676.35 L 60.5107,1664.23 L 56.187,1650.92 L 54.7244,1637.01 L 56.187,1623.09 L 60.5107,1609.79 L 67.5067,1597.67 L 76.8692,1587.27 L 88.189,1579.05 L 100.971,1573.35 L 114.658,1570.45 L 128.65,1570.45 L 142.336,1573.35 L 155.118,1579.05 L 166.438,1587.27 L 175.8,1597.67 L 182.796,1609.79 L 183.966,1613.39 L 348.483,1613.39 L 508.492,1453.37 L 512.071,1450.44 L 516.155,1448.25 L 520.587,1446.91 L 525.195,1446.46 L 958.267,1446.46 L 962.876,1446.91 L 967.307,1448.25 L 971.391,1450.44 L 974.971,1453.37 L 1114.9,1593.31 L 2283.75,1593.31 L 2284.92,1589.71 L 2291.92,1577.59 L 2301.28,1567.19 L 2312.6,1558.97 L 2325.38,1553.28 L 2339.07,1550.37 L 2353.06,1550.37 L 2366.75,1553.28 L 2379.53,1558.97 L 2390.85,1567.19 L 2400.21,1577.59 L 2407.21,1589.71 L 2411.53,1603.01 L 2412.99,1616.93 L 2411.53,1630.84 L 2407.21,1644.15 L 2400.21,1656.27 L 2390.85,1666.67 L 2379.53,1674.89 L 2366.75,1680.58 L 2353.06,1683.49 L 2339.07,1683.49 L 2325.38,1680.58 L 2312.6,1674.89 L 2301.28,1666.67 L 2291.92,1656.27 L 2284.92,1644.15 L 2283.75,1640.55 z " style="fill-opacity:1.000000;fill:rgb(232,231,141);stroke:rgb(0,0,0);stroke-width:2"/></g>
</svg>
