<?xml version="1.0" standalone="no"?>
<!DOCTYPE svg PUBLIC "-//W3C//DTD SVG 1.1//EN"
"http://www.w3.org/Graphics/SVG/1.1/DTD/svg11.dtd">
<svg width="129.789" height="103.332" viewBox="0 0 2703.94 2152.76" version="1.1"
xmlns="http://www.w3.org/2000/svg"
xmlns:xlink="http://www.w3.org/1999/xlink">
<polyline points="8.65926,2139.37 8.65926,13.3856 8.75126,12.4636 9.01926,11.5776 9.45526,10.7596 10.0433,10.0436 10.7593,9.45557 11.5773,9.01957 12.4633,8.75157 13.3853,8.65957 2690.55,8.65957 2691.47,8.75157 2692.36,9.01957 2693.17,9.45557 2693.89,10.0436 2694.48,10.7596 2694.91,11.5776 2695.18,12.4636 2695.27,13.3856 2695.27,2139.37 2695.18,2140.29 2694.91,2141.18 2694.48,2141.99 2693.89,2142.71 2693.17,2143.3 2692.36,2143.73 2691.47,2144 2690.55,2144.09 13.3853,2144.09 12.4633,2144 11.5773,2143.73 10.7593,2143.3 10.0433,2142.71 9.45526,2141.99 9.01926,2141.18 8.75126,2140.29 8.65926,2139.37" style="stroke:rgb(103,198,105);stroke-width:9.448819;fill:none;stroke-opacity:0.5;stroke-linecap:round;stroke-linejoin:round;;fill:none"/>
<polyline points="8.65926,2139.37 8.65926,13.3856 8.75126,12.4636 9.01926,11.5776 9.45526,10.7596 10.0433,10.0436 10.7593,9.45557 11.5773,9.01957 12.4633,8.75157 13.3853,8.65957 2690.55,8.65957 2691.47,8.75157 2692.36,9.01957 2693.17,9.45557 2693.89,10.0436 2694.48,10.7596 2694.91,11.5776 2695.18,12.4636 2695.27,13.3856 2695.27,2139.37 2695.18,2140.29 2694.91,2141.18 2694.48,2141.99 2693.89,2142.71 2693.17,2143.3 2692.36,2143.73 2691.47,2144 2690.55,2144.09 13.3853,2144.09 12.4633,2144 11.5773,2143.73 10.7593,2143.3 10.0433,2142.71 9.45526,2141.99 9.01926,2141.18 8.75126,2140.29 8.65926,2139.37" style="stroke:rgb(0,0,0);stroke-width:1px;fill:none;stroke-opacity:1;stroke-linecap:round;stroke-linejoin:round;;fill:none"/>
</svg>
