<?xml version="1.0" standalone="no"?>
<!DOCTYPE svg PUBLIC "-//W3C//DTD SVG 1.1//EN"
"http://www.w3.org/Graphics/SVG/1.1/DTD/svg11.dtd">
<svg width="129.789" height="103.332" viewBox="0 0 2703.94 2152.76" version="1.1"
xmlns="http://www.w3.org/2000/svg"
xmlns:xlink="http://www.w3.org/1999/xlink">
<polyline points="50.0253,1437.5 51.5653,1422.11 56.1933,1407.86 63.4153,1395.31 73.3573,1384.11 85.4113,1375.22 99.0493,1369.04 114.657,1365.72 128.649,1365.72 143.317,1368.73 157.893,1375.22 169.597,1383.76 179.311,1394.51 187.397,1408.66 389.045,1408.66 466.123,1331.61 475.413,1325.62 485.825,1323.62 1002.71,1324.1 1008.9,1325.98 1017.34,1331.61 1074.34,1388.58 2280.32,1388.58 2288.41,1374.43 2298.12,1363.68 2309.82,1355.14 2324.4,1348.65 2338.57,1345.67 2353.06,1345.64 2368.2,1348.78 2381.45,1354.65 2394.36,1364.03 2404.3,1375.23 2411.52,1387.78 2416.15,1402.03 2417.69,1416.43 2416.15,1431.83 2411.52,1446.07 2403.72,1459.43 2394.01,1470.18 2382.3,1478.71 2368.2,1485.08 2353.55,1488.19 2339.07,1488.22 2323.46,1484.9 2309.82,1478.71 2298.5,1470.49 2287.82,1458.63 2280.32,1445.27 1062.6,1445.27 1052.19,1443.27 1042.9,1437.28 985.895,1380.31 497.565,1380.31 420.831,1457.05 411.197,1463.35 400.787,1465.35 187.397,1465.35 179.891,1478.71 169.213,1490.57 157.039,1499.29 144.257,1504.98 128.649,1508.29 113.675,1508.19 99.5113,1505.15 85.4113,1498.79 73.7073,1490.26 63.4153,1478.71 56.1933,1466.15 51.5653,1451.9 50.0253,1437.5" style="stroke:rgb(103,198,105);stroke-width:9.448819;fill:none;stroke-opacity:0.5;stroke-linecap:round;stroke-linejoin:round;;fill:none"/>
<polyline points="50.0253,1437.5 51.5653,1422.11 56.1933,1407.86 63.4153,1395.31 73.3573,1384.11 85.4113,1375.22 99.0493,1369.04 114.657,1365.72 128.649,1365.72 143.317,1368.73 157.893,1375.22 169.597,1383.76 179.311,1394.51 187.397,1408.66 389.045,1408.66 466.123,1331.61 475.413,1325.62 485.825,1323.62 1002.71,1324.1 1008.9,1325.98 1017.34,1331.61 1074.34,1388.58 2280.32,1388.58 2288.41,1374.43 2298.12,1363.68 2309.82,1355.14 2324.4,1348.65 2338.57,1345.67 2353.06,1345.64 2368.2,1348.78 2381.45,1354.65 2394.36,1364.03 2404.3,1375.23 2411.52,1387.78 2416.15,1402.03 2417.69,1416.43 2416.15,1431.83 2411.52,1446.07 2403.72,1459.43 2394.01,1470.18 2382.3,1478.71 2368.2,1485.08 2353.55,1488.19 2339.07,1488.22 2323.46,1484.9 2309.82,1478.71 2298.5,1470.49 2287.82,1458.63 2280.32,1445.27 1062.6,1445.27 1052.19,1443.27 1042.9,1437.28 985.895,1380.31 497.565,1380.31 420.831,1457.05 411.197,1463.35 400.787,1465.35 187.397,1465.35 179.891,1478.71 169.213,1490.57 157.039,1499.29 144.257,1504.98 128.649,1508.29 113.675,1508.19 99.5113,1505.15 85.4113,1498.79 73.7073,1490.26 63.4153,1478.71 56.1933,1466.15 51.5653,1451.9 50.0253,1437.5" style="stroke:rgb(0,0,0);stroke-width:1px;fill:none;stroke-opacity:1;stroke-linecap:round;stroke-linejoin:round;;fill:none"/>
<polyline points="50.0253,1037.5 51.5653,1022.11 56.1933,1007.86 63.9953,994.506 73.7073,983.758 85.4113,975.222 99.5113,968.86 113.675,965.824 128.649,965.72 144.257,969.038 157.893,975.222 169.213,983.448 179.891,995.306 187.397,1008.66 328.345,1008.66 339.611,1011.02 348.387,1016.96 418.825,1087.4 1104.01,1087.4 1194.52,996.884 1203.3,990.936 1209.49,989.058 2280.32,988.58 2287.82,975.226 2298.5,963.368 2310.68,954.65 2323.46,948.96 2339.07,945.642 2353.55,945.668 2368.2,948.782 2382.3,955.144 2394.01,963.68 2404.3,975.226 2411.52,987.784 2416.15,1002.03 2417.69,1016.43 2416.15,1031.83 2411.52,1046.07 2404.3,1058.63 2394.36,1069.83 2382.3,1078.71 2368.67,1084.9 2353.06,1088.22 2338.57,1088.19 2324.4,1085.2 2309.82,1078.71 2298.12,1070.18 2288.41,1059.43 2280.32,1045.27 1226.31,1045.27 1135.45,1136.1 1126.16,1142.09 1115.75,1144.09 402.013,1143.62 395.817,1141.74 387.041,1135.79 316.603,1065.35 187.397,1065.35 179.311,1079.51 169.597,1090.26 157.039,1099.29 143.795,1105.15 128.649,1108.29 113.675,1108.19 99.5113,1105.15 85.4113,1098.79 73.7073,1090.26 63.9953,1079.51 56.0173,1065.69 51.5653,1051.9 50.0253,1037.5" style="stroke:rgb(115,81,255);stroke-width:9.448819;fill:none;stroke-opacity:0.5;stroke-linecap:round;stroke-linejoin:round;;fill:none"/>
<polyline points="50.0253,1037.5 51.5653,1022.11 56.1933,1007.86 63.9953,994.506 73.7073,983.758 85.4113,975.222 99.5113,968.86 113.675,965.824 128.649,965.72 144.257,969.038 157.893,975.222 169.213,983.448 179.891,995.306 187.397,1008.66 328.345,1008.66 339.611,1011.02 348.387,1016.96 418.825,1087.4 1104.01,1087.4 1194.52,996.884 1203.3,990.936 1209.49,989.058 2280.32,988.58 2287.82,975.226 2298.5,963.368 2310.68,954.65 2323.46,948.96 2339.07,945.642 2353.55,945.668 2368.2,948.782 2382.3,955.144 2394.01,963.68 2404.3,975.226 2411.52,987.784 2416.15,1002.03 2417.69,1016.43 2416.15,1031.83 2411.52,1046.07 2404.3,1058.63 2394.36,1069.83 2382.3,1078.71 2368.67,1084.9 2353.06,1088.22 2338.57,1088.19 2324.4,1085.2 2309.82,1078.71 2298.12,1070.18 2288.41,1059.43 2280.32,1045.27 1226.31,1045.27 1135.45,1136.1 1126.16,1142.09 1115.75,1144.09 402.013,1143.62 395.817,1141.74 387.041,1135.79 316.603,1065.35 187.397,1065.35 179.311,1079.51 169.597,1090.26 157.039,1099.29 143.795,1105.15 128.649,1108.29 113.675,1108.19 99.5113,1105.15 85.4113,1098.79 73.7073,1090.26 63.9953,1079.51 56.0173,1065.69 51.5653,1051.9 50.0253,1037.5" style="stroke:rgb(0,0,0);stroke-width:1px;fill:none;stroke-opacity:1;stroke-linecap:round;stroke-linejoin:round;;fill:none"/>
<polyline points="50.0253,837.502 51.5653,822.11 56.1933,807.864 63.9953,794.506 73.7073,783.758 85.4113,775.222 99.5113,768.86 113.675,765.824 128.649,765.72 144.257,769.038 157.893,775.222 169.213,783.448 179.891,795.306 187.397,808.66 285.825,808.66 291.803,809.318 301.175,813.2 418.825,929.92 1025.27,929.92 1158.3,796.884 1167.08,790.936 1177.88,788.604 2280.32,788.58 2288.41,774.428 2298.12,763.68 2309.82,755.144 2324.4,748.654 2338.57,745.668 2353.06,745.642 2368.2,748.782 2381.45,754.65 2394.36,764.03 2404.3,775.226 2411.52,787.784 2416.15,802.03 2417.69,816.434 2416.15,831.826 2411.52,846.072 2404.3,858.63 2394.36,869.828 2382.3,878.714 2368.67,884.898 2353.06,888.216 2338.57,888.19 2324.4,885.204 2309.82,878.714 2298.12,870.178 2288.41,859.43 2280.32,845.274 1190.09,845.274 1057.05,978.31 1048.27,984.258 1037.01,986.614 402.013,986.136 395.817,984.258 387.041,978.31 274.083,865.354 187.397,865.354 179.311,879.508 169.597,890.256 157.893,898.792 143.317,905.282 128.649,908.294 113.675,908.19 99.5113,905.154 86.2673,899.286 73.3573,889.906 63.4153,878.71 56.1933,866.152 51.5653,851.904 50.0253,837.502" style="stroke:rgb(74,236,41);stroke-width:9.448819;fill:none;stroke-opacity:0.5;stroke-linecap:round;stroke-linejoin:round;;fill:none"/>
<polyline points="50.0253,837.502 51.5653,822.11 56.1933,807.864 63.9953,794.506 73.7073,783.758 85.4113,775.222 99.5113,768.86 113.675,765.824 128.649,765.72 144.257,769.038 157.893,775.222 169.213,783.448 179.891,795.306 187.397,808.66 285.825,808.66 291.803,809.318 301.175,813.2 418.825,929.92 1025.27,929.92 1158.3,796.884 1167.08,790.936 1177.88,788.604 2280.32,788.58 2288.41,774.428 2298.12,763.68 2309.82,755.144 2324.4,748.654 2338.57,745.668 2353.06,745.642 2368.2,748.782 2381.45,754.65 2394.36,764.03 2404.3,775.226 2411.52,787.784 2416.15,802.03 2417.69,816.434 2416.15,831.826 2411.52,846.072 2404.3,858.63 2394.36,869.828 2382.3,878.714 2368.67,884.898 2353.06,888.216 2338.57,888.19 2324.4,885.204 2309.82,878.714 2298.12,870.178 2288.41,859.43 2280.32,845.274 1190.09,845.274 1057.05,978.31 1048.27,984.258 1037.01,986.614 402.013,986.136 395.817,984.258 387.041,978.31 274.083,865.354 187.397,865.354 179.311,879.508 169.597,890.256 157.893,898.792 143.317,905.282 128.649,908.294 113.675,908.19 99.5113,905.154 86.2673,899.286 73.3573,889.906 63.4153,878.71 56.1933,866.152 51.5653,851.904 50.0253,837.502" style="stroke:rgb(0,0,0);stroke-width:1px;fill:none;stroke-opacity:1;stroke-linecap:round;stroke-linejoin:round;;fill:none"/>
<polyline points="50.0253,637.502 51.6933,621.632 56.1933,607.864 63.9953,594.506 73.7073,583.758 85.4113,575.222 99.9873,568.732 114.657,565.72 128.649,565.72 143.795,568.86 153.667,573.228 322.043,573.228 334.029,574.384 346.871,578.28 357.851,584.252 367.143,591.908 512.243,737.006 931.847,737.006 1097.37,571.516 1106.32,564.172 1117.3,558.2 1129.23,554.486 1141.66,553.17 2314.05,553.148 2324.4,548.654 2338.08,545.744 2353.06,545.642 2368.2,548.782 2381.45,554.65 2394.36,564.03 2404.3,575.226 2411.52,587.784 2416.15,602.03 2417.69,616.434 2416.15,631.826 2411.52,646.072 2404.3,658.63 2394.36,669.828 2382.3,678.714 2368.67,684.898 2353.06,688.216 2338.08,688.112 2323.92,685.076 2314.05,680.706 1168.54,680.706 1003.02,846.196 993.303,854.054 982.237,859.866 970.251,863.408 958.267,864.564 485.825,864.564 472.931,863.226 460.997,859.512 450.787,854.054 440.725,845.884 295.625,700.786 153.667,700.786 143.795,705.154 128.649,708.294 114.657,708.294 99.9873,705.282 85.4113,698.792 73.7073,690.256 63.9953,679.508 56.0173,665.69 51.5653,651.904 50.0253,637.502" style="stroke:rgb(205,186,171);stroke-width:9.448819;fill:none;stroke-opacity:0.5;stroke-linecap:round;stroke-linejoin:round;;fill:none"/>
<polyline points="50.0253,637.502 51.6933,621.632 56.1933,607.864 63.9953,594.506 73.7073,583.758 85.4113,575.222 99.9873,568.732 114.657,565.72 128.649,565.72 143.795,568.86 153.667,573.228 322.043,573.228 334.029,574.384 346.871,578.28 357.851,584.252 367.143,591.908 512.243,737.006 931.847,737.006 1097.37,571.516 1106.32,564.172 1117.3,558.2 1129.23,554.486 1141.66,553.17 2314.05,553.148 2324.4,548.654 2338.08,545.744 2353.06,545.642 2368.2,548.782 2381.45,554.65 2394.36,564.03 2404.3,575.226 2411.52,587.784 2416.15,602.03 2417.69,616.434 2416.15,631.826 2411.52,646.072 2404.3,658.63 2394.36,669.828 2382.3,678.714 2368.67,684.898 2353.06,688.216 2338.08,688.112 2323.92,685.076 2314.05,680.706 1168.54,680.706 1003.02,846.196 993.303,854.054 982.237,859.866 970.251,863.408 958.267,864.564 485.825,864.564 472.931,863.226 460.997,859.512 450.787,854.054 440.725,845.884 295.625,700.786 153.667,700.786 143.795,705.154 128.649,708.294 114.657,708.294 99.9873,705.282 85.4113,698.792 73.7073,690.256 63.9953,679.508 56.0173,665.69 51.5653,651.904 50.0253,637.502" style="stroke:rgb(0,0,0);stroke-width:1px;fill:none;stroke-opacity:1;stroke-linecap:round;stroke-linejoin:round;;fill:none"/>
<polyline points="50.0253,437.502 51.6933,421.632 56.1933,407.864 63.9953,394.506 73.7073,383.758 85.4113,375.222 99.5113,368.86 113.675,365.824 129.631,365.824 143.795,368.86 153.667,373.228 358.265,373.228 370.251,374.384 383.093,378.28 394.073,384.252 403.365,391.908 590.983,579.526 853.107,579.526 1060.81,371.828 1070.1,364.172 1081.08,358.2 1093.92,354.304 1105.9,353.148 2274.41,353.148 2275.21,347.374 2279.13,345.276 2412.99,345.276 2416.33,346.658 2417.72,350 2417.72,483.858 2416.92,486.482 2413.91,488.492 2279.13,488.582 2275.21,486.482 2274.41,480.706 1132.32,480.706 924.281,688.716 914.563,696.574 903.497,702.386 891.511,705.928 879.527,707.084 564.565,707.084 552.579,705.928 540.593,702.386 529.527,696.574 519.465,688.404 331.847,500.786 153.667,500.786 143.795,505.154 128.649,508.294 114.657,508.294 99.9873,505.282 85.4113,498.792 73.7073,490.256 63.9953,479.508 56.0173,465.69 51.5653,451.904 50.0253,437.502" style="stroke:rgb(242,251,227);stroke-width:9.448819;fill:none;stroke-opacity:0.5;stroke-linecap:round;stroke-linejoin:round;;fill:none"/>
<polyline points="50.0253,437.502 51.6933,421.632 56.1933,407.864 63.9953,394.506 73.7073,383.758 85.4113,375.222 99.5113,368.86 113.675,365.824 129.631,365.824 143.795,368.86 153.667,373.228 358.265,373.228 370.251,374.384 383.093,378.28 394.073,384.252 403.365,391.908 590.983,579.526 853.107,579.526 1060.81,371.828 1070.1,364.172 1081.08,358.2 1093.92,354.304 1105.9,353.148 2274.41,353.148 2275.21,347.374 2279.13,345.276 2412.99,345.276 2416.33,346.658 2417.72,350 2417.72,483.858 2416.92,486.482 2413.91,488.492 2279.13,488.582 2275.21,486.482 2274.41,480.706 1132.32,480.706 924.281,688.716 914.563,696.574 903.497,702.386 891.511,705.928 879.527,707.084 564.565,707.084 552.579,705.928 540.593,702.386 529.527,696.574 519.465,688.404 331.847,500.786 153.667,500.786 143.795,505.154 128.649,508.294 114.657,508.294 99.9873,505.282 85.4113,498.792 73.7073,490.256 63.9953,479.508 56.0173,465.69 51.5653,451.904 50.0253,437.502" style="stroke:rgb(0,0,0);stroke-width:1px;fill:none;stroke-opacity:1;stroke-linecap:round;stroke-linejoin:round;;fill:none"/>
<polyline points="50.0253,1237.5 51.5653,1222.11 56.1933,1207.86 63.4153,1195.31 73.3573,1184.11 85.4113,1175.22 99.0493,1169.04 114.657,1165.72 128.649,1165.72 143.317,1168.73 157.893,1175.22 169.597,1183.76 179.311,1194.51 187.397,1208.66 1763.06,1208.66 1779.53,1193.12 1788.9,1189.24 1794.88,1188.58 2280.32,1188.58 2287.82,1175.23 2298.5,1163.37 2310.68,1154.65 2323.46,1148.96 2339.07,1145.64 2353.55,1145.67 2368.2,1148.78 2382.3,1155.14 2394.01,1163.68 2404.3,1175.23 2411.52,1187.78 2416.15,1202.03 2417.69,1216.43 2416.15,1231.83 2411.52,1246.07 2404.3,1258.63 2394.36,1269.83 2382.3,1278.71 2368.67,1284.9 2353.06,1288.22 2338.57,1288.19 2324.4,1285.2 2309.82,1278.71 2298.12,1270.18 2288.41,1259.43 2280.32,1245.27 1806.62,1245.27 1790.15,1260.81 1780.78,1264.7 1774.8,1265.35 187.397,1265.35 179.891,1278.71 169.213,1290.57 157.039,1299.29 144.257,1304.98 128.649,1308.29 113.675,1308.19 99.5113,1305.15 85.4113,1298.79 73.7073,1290.26 63.4153,1278.71 56.1933,1266.15 51.5653,1251.9 50.0253,1237.5" style="stroke:rgb(70,124,194);stroke-width:9.448819;fill:none;stroke-opacity:0.5;stroke-linecap:round;stroke-linejoin:round;;fill:none"/>
<polyline points="50.0253,1237.5 51.5653,1222.11 56.1933,1207.86 63.4153,1195.31 73.3573,1184.11 85.4113,1175.22 99.0493,1169.04 114.657,1165.72 128.649,1165.72 143.317,1168.73 157.893,1175.22 169.597,1183.76 179.311,1194.51 187.397,1208.66 1763.06,1208.66 1779.53,1193.12 1788.9,1189.24 1794.88,1188.58 2280.32,1188.58 2287.82,1175.23 2298.5,1163.37 2310.68,1154.65 2323.46,1148.96 2339.07,1145.64 2353.55,1145.67 2368.2,1148.78 2382.3,1155.14 2394.01,1163.68 2404.3,1175.23 2411.52,1187.78 2416.15,1202.03 2417.69,1216.43 2416.15,1231.83 2411.52,1246.07 2404.3,1258.63 2394.36,1269.83 2382.3,1278.71 2368.67,1284.9 2353.06,1288.22 2338.57,1288.19 2324.4,1285.2 2309.82,1278.71 2298.12,1270.18 2288.41,1259.43 2280.32,1245.27 1806.62,1245.27 1790.15,1260.81 1780.78,1264.7 1774.8,1265.35 187.397,1265.35 179.891,1278.71 169.213,1290.57 157.039,1299.29 144.257,1304.98 128.649,1308.29 113.675,1308.19 99.5113,1305.15 85.4113,1298.79 73.7073,1290.26 63.4153,1278.71 56.1933,1266.15 51.5653,1251.9 50.0253,1237.5" style="stroke:rgb(0,0,0);stroke-width:1px;fill:none;stroke-opacity:1;stroke-linecap:round;stroke-linejoin:round;;fill:none"/>
<polyline points="49.9993,1903.94 49.9993,1770.08 52.0993,1766.15 189.503,1765.44 191.923,1766.74 193.305,1770.08 193.305,1808.66 304.005,1808.66 544.519,1568.14 553.297,1562.2 564.565,1559.84 879.527,1559.84 889.937,1561.84 899.569,1568.14 1120.01,1788.58 2280.32,1788.58 2288.41,1774.43 2298.12,1763.68 2309.82,1755.14 2324.4,1748.65 2338.57,1745.67 2353.06,1745.64 2368.2,1748.78 2381.45,1754.65 2394.36,1764.03 2404.3,1775.23 2411.52,1787.78 2416.15,1802.03 2417.69,1816.43 2416.15,1831.83 2411.52,1846.07 2404.3,1858.63 2394.36,1869.83 2382.3,1878.71 2368.67,1884.9 2353.06,1888.22 2338.57,1888.19 2324.4,1885.2 2309.82,1878.71 2298.12,1870.18 2288.41,1859.43 2280.32,1845.27 1103.2,1844.8 1097,1842.92 1088.22,1836.97 867.785,1616.53 576.305,1616.53 331.097,1860.81 321.725,1864.7 315.745,1865.35 193.305,1865.35 193.305,1903.94 191.923,1907.28 189.503,1908.57 54.7233,1908.66 51.3833,1907.28 49.9993,1903.94" style="stroke:rgb(84,248,27);stroke-width:9.448819;fill:none;stroke-opacity:0.5;stroke-linecap:round;stroke-linejoin:round;;fill:none"/>
<polyline points="49.9993,1903.94 49.9993,1770.08 52.0993,1766.15 189.503,1765.44 191.923,1766.74 193.305,1770.08 193.305,1808.66 304.005,1808.66 544.519,1568.14 553.297,1562.2 564.565,1559.84 879.527,1559.84 889.937,1561.84 899.569,1568.14 1120.01,1788.58 2280.32,1788.58 2288.41,1774.43 2298.12,1763.68 2309.82,1755.14 2324.4,1748.65 2338.57,1745.67 2353.06,1745.64 2368.2,1748.78 2381.45,1754.65 2394.36,1764.03 2404.3,1775.23 2411.52,1787.78 2416.15,1802.03 2417.69,1816.43 2416.15,1831.83 2411.52,1846.07 2404.3,1858.63 2394.36,1869.83 2382.3,1878.71 2368.67,1884.9 2353.06,1888.22 2338.57,1888.19 2324.4,1885.2 2309.82,1878.71 2298.12,1870.18 2288.41,1859.43 2280.32,1845.27 1103.2,1844.8 1097,1842.92 1088.22,1836.97 867.785,1616.53 576.305,1616.53 331.097,1860.81 321.725,1864.7 315.745,1865.35 193.305,1865.35 193.305,1903.94 191.923,1907.28 189.503,1908.57 54.7233,1908.66 51.3833,1907.28 49.9993,1903.94" style="stroke:rgb(0,0,0);stroke-width:1px;fill:none;stroke-opacity:1;stroke-linecap:round;stroke-linejoin:round;;fill:none"/>
<polyline points="50.0253,1637.5 51.5653,1622.11 56.1933,1607.86 63.4153,1595.31 73.3573,1584.11 85.4113,1575.22 99.0493,1569.04 114.657,1565.72 128.649,1565.72 143.317,1568.73 157.893,1575.22 169.597,1583.76 179.311,1594.51 187.397,1608.66 346.525,1608.66 505.149,1450.03 513.927,1444.09 525.195,1441.73 964.245,1442.39 973.617,1446.27 978.309,1450.03 1116.86,1588.58 2280.32,1588.58 2288.41,1574.43 2298.12,1563.68 2309.82,1555.14 2324.4,1548.65 2338.57,1545.67 2353.06,1545.64 2368.2,1548.78 2381.45,1554.65 2394.36,1564.03 2404.3,1575.23 2411.52,1587.78 2416.15,1602.03 2417.69,1616.43 2416.15,1631.83 2411.52,1646.07 2404.3,1658.63 2394.36,1669.83 2382.3,1678.71 2368.67,1684.9 2353.06,1688.22 2338.57,1688.19 2324.4,1685.2 2309.82,1678.71 2298.12,1670.18 2288.41,1659.43 2280.32,1645.27 1104.65,1645.25 1093.85,1642.92 1085.07,1636.97 946.525,1498.42 536.935,1498.42 378.311,1657.05 373.617,1660.81 364.245,1664.7 187.397,1665.35 179.311,1679.51 169.597,1690.26 157.893,1698.79 143.317,1705.28 128.649,1708.29 114.657,1708.29 99.5113,1705.15 86.2673,1699.29 73.3573,1689.91 63.4153,1678.71 56.1933,1666.15 51.5653,1651.9 50.0253,1637.5" style="stroke:rgb(232,231,141);stroke-width:9.448819;fill:none;stroke-opacity:0.5;stroke-linecap:round;stroke-linejoin:round;;fill:none"/>
<polyline points="50.0253,1637.5 51.5653,1622.11 56.1933,1607.86 63.4153,1595.31 73.3573,1584.11 85.4113,1575.22 99.0493,1569.04 114.657,1565.72 128.649,1565.72 143.317,1568.73 157.893,1575.22 169.597,1583.76 179.311,1594.51 187.397,1608.66 346.525,1608.66 505.149,1450.03 513.927,1444.09 525.195,1441.73 964.245,1442.39 973.617,1446.27 978.309,1450.03 1116.86,1588.58 2280.32,1588.58 2288.41,1574.43 2298.12,1563.68 2309.82,1555.14 2324.4,1548.65 2338.57,1545.67 2353.06,1545.64 2368.2,1548.78 2381.45,1554.65 2394.36,1564.03 2404.3,1575.23 2411.52,1587.78 2416.15,1602.03 2417.69,1616.43 2416.15,1631.83 2411.52,1646.07 2404.3,1658.63 2394.36,1669.83 2382.3,1678.71 2368.67,1684.9 2353.06,1688.22 2338.57,1688.19 2324.4,1685.2 2309.82,1678.71 2298.12,1670.18 2288.41,1659.43 2280.32,1645.27 1104.65,1645.25 1093.85,1642.92 1085.07,1636.97 946.525,1498.42 536.935,1498.42 378.311,1657.05 373.617,1660.81 364.245,1664.7 187.397,1665.35 179.311,1679.51 169.597,1690.26 157.893,1698.79 143.317,1705.28 128.649,1708.29 114.657,1708.29 99.5113,1705.15 86.2673,1699.29 73.3573,1689.91 63.4153,1678.71 56.1933,1666.15 51.5653,1651.9 50.0253,1637.5" style="stroke:rgb(0,0,0);stroke-width:1px;fill:none;stroke-opacity:1;stroke-linecap:round;stroke-linejoin:round;;fill:none"/>
</svg>
