%TF.GenerationSoftware,KiCad,Pcbnew,7.0.7-7.0.7~ubuntu20.04.1*%
%TF.CreationDate,2023-08-31T15:52:28+01:00*%
%TF.ProjectId,hot-end-connector,686f742d-656e-4642-9d63-6f6e6e656374,rev?*%
%TF.SameCoordinates,Original*%
%TF.FileFunction,Legend,Top*%
%TF.FilePolarity,Positive*%
%FSLAX46Y46*%
G04 Gerber Fmt 4.6, Leading zero omitted, Abs format (unit mm)*
G04 Created by KiCad (PCBNEW 7.0.7-7.0.7~ubuntu20.04.1) date 2023-08-31 15:52:28*
%MOMM*%
%LPD*%
G01*
G04 APERTURE LIST*
%ADD10C,0.150000*%
%ADD11C,0.120000*%
G04 APERTURE END LIST*
D10*
X42408207Y-155929819D02*
X42074874Y-155453628D01*
X41836779Y-155929819D02*
X41836779Y-154929819D01*
X41836779Y-154929819D02*
X42217731Y-154929819D01*
X42217731Y-154929819D02*
X42312969Y-154977438D01*
X42312969Y-154977438D02*
X42360588Y-155025057D01*
X42360588Y-155025057D02*
X42408207Y-155120295D01*
X42408207Y-155120295D02*
X42408207Y-155263152D01*
X42408207Y-155263152D02*
X42360588Y-155358390D01*
X42360588Y-155358390D02*
X42312969Y-155406009D01*
X42312969Y-155406009D02*
X42217731Y-155453628D01*
X42217731Y-155453628D02*
X41836779Y-155453628D01*
X43217731Y-155882200D02*
X43122493Y-155929819D01*
X43122493Y-155929819D02*
X42932017Y-155929819D01*
X42932017Y-155929819D02*
X42836779Y-155882200D01*
X42836779Y-155882200D02*
X42789160Y-155786961D01*
X42789160Y-155786961D02*
X42789160Y-155406009D01*
X42789160Y-155406009D02*
X42836779Y-155310771D01*
X42836779Y-155310771D02*
X42932017Y-155263152D01*
X42932017Y-155263152D02*
X43122493Y-155263152D01*
X43122493Y-155263152D02*
X43217731Y-155310771D01*
X43217731Y-155310771D02*
X43265350Y-155406009D01*
X43265350Y-155406009D02*
X43265350Y-155501247D01*
X43265350Y-155501247D02*
X42789160Y-155596485D01*
X43693922Y-155263152D02*
X43693922Y-156263152D01*
X43693922Y-155310771D02*
X43789160Y-155263152D01*
X43789160Y-155263152D02*
X43979636Y-155263152D01*
X43979636Y-155263152D02*
X44074874Y-155310771D01*
X44074874Y-155310771D02*
X44122493Y-155358390D01*
X44122493Y-155358390D02*
X44170112Y-155453628D01*
X44170112Y-155453628D02*
X44170112Y-155739342D01*
X44170112Y-155739342D02*
X44122493Y-155834580D01*
X44122493Y-155834580D02*
X44074874Y-155882200D01*
X44074874Y-155882200D02*
X43979636Y-155929819D01*
X43979636Y-155929819D02*
X43789160Y-155929819D01*
X43789160Y-155929819D02*
X43693922Y-155882200D01*
X45170112Y-155929819D02*
X44836779Y-155453628D01*
X44598684Y-155929819D02*
X44598684Y-154929819D01*
X44598684Y-154929819D02*
X44979636Y-154929819D01*
X44979636Y-154929819D02*
X45074874Y-154977438D01*
X45074874Y-154977438D02*
X45122493Y-155025057D01*
X45122493Y-155025057D02*
X45170112Y-155120295D01*
X45170112Y-155120295D02*
X45170112Y-155263152D01*
X45170112Y-155263152D02*
X45122493Y-155358390D01*
X45122493Y-155358390D02*
X45074874Y-155406009D01*
X45074874Y-155406009D02*
X44979636Y-155453628D01*
X44979636Y-155453628D02*
X44598684Y-155453628D01*
X46027255Y-155929819D02*
X46027255Y-155406009D01*
X46027255Y-155406009D02*
X45979636Y-155310771D01*
X45979636Y-155310771D02*
X45884398Y-155263152D01*
X45884398Y-155263152D02*
X45693922Y-155263152D01*
X45693922Y-155263152D02*
X45598684Y-155310771D01*
X46027255Y-155882200D02*
X45932017Y-155929819D01*
X45932017Y-155929819D02*
X45693922Y-155929819D01*
X45693922Y-155929819D02*
X45598684Y-155882200D01*
X45598684Y-155882200D02*
X45551065Y-155786961D01*
X45551065Y-155786961D02*
X45551065Y-155691723D01*
X45551065Y-155691723D02*
X45598684Y-155596485D01*
X45598684Y-155596485D02*
X45693922Y-155548866D01*
X45693922Y-155548866D02*
X45932017Y-155548866D01*
X45932017Y-155548866D02*
X46027255Y-155501247D01*
X46503446Y-155263152D02*
X46503446Y-156263152D01*
X46503446Y-155310771D02*
X46598684Y-155263152D01*
X46598684Y-155263152D02*
X46789160Y-155263152D01*
X46789160Y-155263152D02*
X46884398Y-155310771D01*
X46884398Y-155310771D02*
X46932017Y-155358390D01*
X46932017Y-155358390D02*
X46979636Y-155453628D01*
X46979636Y-155453628D02*
X46979636Y-155739342D01*
X46979636Y-155739342D02*
X46932017Y-155834580D01*
X46932017Y-155834580D02*
X46884398Y-155882200D01*
X46884398Y-155882200D02*
X46789160Y-155929819D01*
X46789160Y-155929819D02*
X46598684Y-155929819D01*
X46598684Y-155929819D02*
X46503446Y-155882200D01*
X48646303Y-155929819D02*
X48170113Y-155929819D01*
X48170113Y-155929819D02*
X48170113Y-154929819D01*
X48836780Y-155263152D02*
X49217732Y-155263152D01*
X48979637Y-154929819D02*
X48979637Y-155786961D01*
X48979637Y-155786961D02*
X49027256Y-155882200D01*
X49027256Y-155882200D02*
X49122494Y-155929819D01*
X49122494Y-155929819D02*
X49217732Y-155929819D01*
X49979637Y-155929819D02*
X49979637Y-154929819D01*
X49979637Y-155882200D02*
X49884399Y-155929819D01*
X49884399Y-155929819D02*
X49693923Y-155929819D01*
X49693923Y-155929819D02*
X49598685Y-155882200D01*
X49598685Y-155882200D02*
X49551066Y-155834580D01*
X49551066Y-155834580D02*
X49503447Y-155739342D01*
X49503447Y-155739342D02*
X49503447Y-155453628D01*
X49503447Y-155453628D02*
X49551066Y-155358390D01*
X49551066Y-155358390D02*
X49598685Y-155310771D01*
X49598685Y-155310771D02*
X49693923Y-155263152D01*
X49693923Y-155263152D02*
X49884399Y-155263152D01*
X49884399Y-155263152D02*
X49979637Y-155310771D01*
X41836779Y-157539819D02*
X41836779Y-156539819D01*
X42265350Y-157539819D02*
X42265350Y-157016009D01*
X42265350Y-157016009D02*
X42217731Y-156920771D01*
X42217731Y-156920771D02*
X42122493Y-156873152D01*
X42122493Y-156873152D02*
X41979636Y-156873152D01*
X41979636Y-156873152D02*
X41884398Y-156920771D01*
X41884398Y-156920771D02*
X41836779Y-156968390D01*
X42598684Y-156873152D02*
X42979636Y-156873152D01*
X42741541Y-156539819D02*
X42741541Y-157396961D01*
X42741541Y-157396961D02*
X42789160Y-157492200D01*
X42789160Y-157492200D02*
X42884398Y-157539819D01*
X42884398Y-157539819D02*
X42979636Y-157539819D01*
X43170113Y-156873152D02*
X43551065Y-156873152D01*
X43312970Y-156539819D02*
X43312970Y-157396961D01*
X43312970Y-157396961D02*
X43360589Y-157492200D01*
X43360589Y-157492200D02*
X43455827Y-157539819D01*
X43455827Y-157539819D02*
X43551065Y-157539819D01*
X43884399Y-156873152D02*
X43884399Y-157873152D01*
X43884399Y-156920771D02*
X43979637Y-156873152D01*
X43979637Y-156873152D02*
X44170113Y-156873152D01*
X44170113Y-156873152D02*
X44265351Y-156920771D01*
X44265351Y-156920771D02*
X44312970Y-156968390D01*
X44312970Y-156968390D02*
X44360589Y-157063628D01*
X44360589Y-157063628D02*
X44360589Y-157349342D01*
X44360589Y-157349342D02*
X44312970Y-157444580D01*
X44312970Y-157444580D02*
X44265351Y-157492200D01*
X44265351Y-157492200D02*
X44170113Y-157539819D01*
X44170113Y-157539819D02*
X43979637Y-157539819D01*
X43979637Y-157539819D02*
X43884399Y-157492200D01*
X44741542Y-157492200D02*
X44836780Y-157539819D01*
X44836780Y-157539819D02*
X45027256Y-157539819D01*
X45027256Y-157539819D02*
X45122494Y-157492200D01*
X45122494Y-157492200D02*
X45170113Y-157396961D01*
X45170113Y-157396961D02*
X45170113Y-157349342D01*
X45170113Y-157349342D02*
X45122494Y-157254104D01*
X45122494Y-157254104D02*
X45027256Y-157206485D01*
X45027256Y-157206485D02*
X44884399Y-157206485D01*
X44884399Y-157206485D02*
X44789161Y-157158866D01*
X44789161Y-157158866D02*
X44741542Y-157063628D01*
X44741542Y-157063628D02*
X44741542Y-157016009D01*
X44741542Y-157016009D02*
X44789161Y-156920771D01*
X44789161Y-156920771D02*
X44884399Y-156873152D01*
X44884399Y-156873152D02*
X45027256Y-156873152D01*
X45027256Y-156873152D02*
X45122494Y-156920771D01*
X45598685Y-157444580D02*
X45646304Y-157492200D01*
X45646304Y-157492200D02*
X45598685Y-157539819D01*
X45598685Y-157539819D02*
X45551066Y-157492200D01*
X45551066Y-157492200D02*
X45598685Y-157444580D01*
X45598685Y-157444580D02*
X45598685Y-157539819D01*
X45598685Y-156920771D02*
X45646304Y-156968390D01*
X45646304Y-156968390D02*
X45598685Y-157016009D01*
X45598685Y-157016009D02*
X45551066Y-156968390D01*
X45551066Y-156968390D02*
X45598685Y-156920771D01*
X45598685Y-156920771D02*
X45598685Y-157016009D01*
X46789160Y-156492200D02*
X45932018Y-157777914D01*
X47836779Y-156492200D02*
X46979637Y-157777914D01*
X48170113Y-157539819D02*
X48170113Y-156873152D01*
X48170113Y-157063628D02*
X48217732Y-156968390D01*
X48217732Y-156968390D02*
X48265351Y-156920771D01*
X48265351Y-156920771D02*
X48360589Y-156873152D01*
X48360589Y-156873152D02*
X48455827Y-156873152D01*
X49170113Y-157492200D02*
X49074875Y-157539819D01*
X49074875Y-157539819D02*
X48884399Y-157539819D01*
X48884399Y-157539819D02*
X48789161Y-157492200D01*
X48789161Y-157492200D02*
X48741542Y-157396961D01*
X48741542Y-157396961D02*
X48741542Y-157016009D01*
X48741542Y-157016009D02*
X48789161Y-156920771D01*
X48789161Y-156920771D02*
X48884399Y-156873152D01*
X48884399Y-156873152D02*
X49074875Y-156873152D01*
X49074875Y-156873152D02*
X49170113Y-156920771D01*
X49170113Y-156920771D02*
X49217732Y-157016009D01*
X49217732Y-157016009D02*
X49217732Y-157111247D01*
X49217732Y-157111247D02*
X48741542Y-157206485D01*
X49646304Y-156873152D02*
X49646304Y-157873152D01*
X49646304Y-156920771D02*
X49741542Y-156873152D01*
X49741542Y-156873152D02*
X49932018Y-156873152D01*
X49932018Y-156873152D02*
X50027256Y-156920771D01*
X50027256Y-156920771D02*
X50074875Y-156968390D01*
X50074875Y-156968390D02*
X50122494Y-157063628D01*
X50122494Y-157063628D02*
X50122494Y-157349342D01*
X50122494Y-157349342D02*
X50074875Y-157444580D01*
X50074875Y-157444580D02*
X50027256Y-157492200D01*
X50027256Y-157492200D02*
X49932018Y-157539819D01*
X49932018Y-157539819D02*
X49741542Y-157539819D01*
X49741542Y-157539819D02*
X49646304Y-157492200D01*
X50551066Y-157539819D02*
X50551066Y-156873152D01*
X50551066Y-157063628D02*
X50598685Y-156968390D01*
X50598685Y-156968390D02*
X50646304Y-156920771D01*
X50646304Y-156920771D02*
X50741542Y-156873152D01*
X50741542Y-156873152D02*
X50836780Y-156873152D01*
X51598685Y-157539819D02*
X51598685Y-157016009D01*
X51598685Y-157016009D02*
X51551066Y-156920771D01*
X51551066Y-156920771D02*
X51455828Y-156873152D01*
X51455828Y-156873152D02*
X51265352Y-156873152D01*
X51265352Y-156873152D02*
X51170114Y-156920771D01*
X51598685Y-157492200D02*
X51503447Y-157539819D01*
X51503447Y-157539819D02*
X51265352Y-157539819D01*
X51265352Y-157539819D02*
X51170114Y-157492200D01*
X51170114Y-157492200D02*
X51122495Y-157396961D01*
X51122495Y-157396961D02*
X51122495Y-157301723D01*
X51122495Y-157301723D02*
X51170114Y-157206485D01*
X51170114Y-157206485D02*
X51265352Y-157158866D01*
X51265352Y-157158866D02*
X51503447Y-157158866D01*
X51503447Y-157158866D02*
X51598685Y-157111247D01*
X52074876Y-156873152D02*
X52074876Y-157873152D01*
X52074876Y-156920771D02*
X52170114Y-156873152D01*
X52170114Y-156873152D02*
X52360590Y-156873152D01*
X52360590Y-156873152D02*
X52455828Y-156920771D01*
X52455828Y-156920771D02*
X52503447Y-156968390D01*
X52503447Y-156968390D02*
X52551066Y-157063628D01*
X52551066Y-157063628D02*
X52551066Y-157349342D01*
X52551066Y-157349342D02*
X52503447Y-157444580D01*
X52503447Y-157444580D02*
X52455828Y-157492200D01*
X52455828Y-157492200D02*
X52360590Y-157539819D01*
X52360590Y-157539819D02*
X52170114Y-157539819D01*
X52170114Y-157539819D02*
X52074876Y-157492200D01*
X53122495Y-157539819D02*
X53027257Y-157492200D01*
X53027257Y-157492200D02*
X52979638Y-157396961D01*
X52979638Y-157396961D02*
X52979638Y-156539819D01*
X53360591Y-156873152D02*
X53741543Y-156873152D01*
X53503448Y-156539819D02*
X53503448Y-157396961D01*
X53503448Y-157396961D02*
X53551067Y-157492200D01*
X53551067Y-157492200D02*
X53646305Y-157539819D01*
X53646305Y-157539819D02*
X53741543Y-157539819D01*
X54503448Y-157539819D02*
X54503448Y-156539819D01*
X54503448Y-157492200D02*
X54408210Y-157539819D01*
X54408210Y-157539819D02*
X54217734Y-157539819D01*
X54217734Y-157539819D02*
X54122496Y-157492200D01*
X54122496Y-157492200D02*
X54074877Y-157444580D01*
X54074877Y-157444580D02*
X54027258Y-157349342D01*
X54027258Y-157349342D02*
X54027258Y-157063628D01*
X54027258Y-157063628D02*
X54074877Y-156968390D01*
X54074877Y-156968390D02*
X54122496Y-156920771D01*
X54122496Y-156920771D02*
X54217734Y-156873152D01*
X54217734Y-156873152D02*
X54408210Y-156873152D01*
X54408210Y-156873152D02*
X54503448Y-156920771D01*
X54979639Y-157444580D02*
X55027258Y-157492200D01*
X55027258Y-157492200D02*
X54979639Y-157539819D01*
X54979639Y-157539819D02*
X54932020Y-157492200D01*
X54932020Y-157492200D02*
X54979639Y-157444580D01*
X54979639Y-157444580D02*
X54979639Y-157539819D01*
X55884400Y-157492200D02*
X55789162Y-157539819D01*
X55789162Y-157539819D02*
X55598686Y-157539819D01*
X55598686Y-157539819D02*
X55503448Y-157492200D01*
X55503448Y-157492200D02*
X55455829Y-157444580D01*
X55455829Y-157444580D02*
X55408210Y-157349342D01*
X55408210Y-157349342D02*
X55408210Y-157063628D01*
X55408210Y-157063628D02*
X55455829Y-156968390D01*
X55455829Y-156968390D02*
X55503448Y-156920771D01*
X55503448Y-156920771D02*
X55598686Y-156873152D01*
X55598686Y-156873152D02*
X55789162Y-156873152D01*
X55789162Y-156873152D02*
X55884400Y-156920771D01*
X56455829Y-157539819D02*
X56360591Y-157492200D01*
X56360591Y-157492200D02*
X56312972Y-157444580D01*
X56312972Y-157444580D02*
X56265353Y-157349342D01*
X56265353Y-157349342D02*
X56265353Y-157063628D01*
X56265353Y-157063628D02*
X56312972Y-156968390D01*
X56312972Y-156968390D02*
X56360591Y-156920771D01*
X56360591Y-156920771D02*
X56455829Y-156873152D01*
X56455829Y-156873152D02*
X56598686Y-156873152D01*
X56598686Y-156873152D02*
X56693924Y-156920771D01*
X56693924Y-156920771D02*
X56741543Y-156968390D01*
X56741543Y-156968390D02*
X56789162Y-157063628D01*
X56789162Y-157063628D02*
X56789162Y-157349342D01*
X56789162Y-157349342D02*
X56741543Y-157444580D01*
X56741543Y-157444580D02*
X56693924Y-157492200D01*
X56693924Y-157492200D02*
X56598686Y-157539819D01*
X56598686Y-157539819D02*
X56455829Y-157539819D01*
X57217734Y-157539819D02*
X57217734Y-156873152D01*
X57217734Y-156968390D02*
X57265353Y-156920771D01*
X57265353Y-156920771D02*
X57360591Y-156873152D01*
X57360591Y-156873152D02*
X57503448Y-156873152D01*
X57503448Y-156873152D02*
X57598686Y-156920771D01*
X57598686Y-156920771D02*
X57646305Y-157016009D01*
X57646305Y-157016009D02*
X57646305Y-157539819D01*
X57646305Y-157016009D02*
X57693924Y-156920771D01*
X57693924Y-156920771D02*
X57789162Y-156873152D01*
X57789162Y-156873152D02*
X57932019Y-156873152D01*
X57932019Y-156873152D02*
X58027258Y-156920771D01*
X58027258Y-156920771D02*
X58074877Y-157016009D01*
X58074877Y-157016009D02*
X58074877Y-157539819D01*
X41836779Y-160759819D02*
X41836779Y-159759819D01*
X41836779Y-160236009D02*
X42408207Y-160236009D01*
X42408207Y-160759819D02*
X42408207Y-159759819D01*
X43027255Y-160759819D02*
X42932017Y-160712200D01*
X42932017Y-160712200D02*
X42884398Y-160664580D01*
X42884398Y-160664580D02*
X42836779Y-160569342D01*
X42836779Y-160569342D02*
X42836779Y-160283628D01*
X42836779Y-160283628D02*
X42884398Y-160188390D01*
X42884398Y-160188390D02*
X42932017Y-160140771D01*
X42932017Y-160140771D02*
X43027255Y-160093152D01*
X43027255Y-160093152D02*
X43170112Y-160093152D01*
X43170112Y-160093152D02*
X43265350Y-160140771D01*
X43265350Y-160140771D02*
X43312969Y-160188390D01*
X43312969Y-160188390D02*
X43360588Y-160283628D01*
X43360588Y-160283628D02*
X43360588Y-160569342D01*
X43360588Y-160569342D02*
X43312969Y-160664580D01*
X43312969Y-160664580D02*
X43265350Y-160712200D01*
X43265350Y-160712200D02*
X43170112Y-160759819D01*
X43170112Y-160759819D02*
X43027255Y-160759819D01*
X43646303Y-160093152D02*
X44027255Y-160093152D01*
X43789160Y-159759819D02*
X43789160Y-160616961D01*
X43789160Y-160616961D02*
X43836779Y-160712200D01*
X43836779Y-160712200D02*
X43932017Y-160759819D01*
X43932017Y-160759819D02*
X44027255Y-160759819D01*
X45122494Y-160236009D02*
X45455827Y-160236009D01*
X45598684Y-160759819D02*
X45122494Y-160759819D01*
X45122494Y-160759819D02*
X45122494Y-159759819D01*
X45122494Y-159759819D02*
X45598684Y-159759819D01*
X46027256Y-160093152D02*
X46027256Y-160759819D01*
X46027256Y-160188390D02*
X46074875Y-160140771D01*
X46074875Y-160140771D02*
X46170113Y-160093152D01*
X46170113Y-160093152D02*
X46312970Y-160093152D01*
X46312970Y-160093152D02*
X46408208Y-160140771D01*
X46408208Y-160140771D02*
X46455827Y-160236009D01*
X46455827Y-160236009D02*
X46455827Y-160759819D01*
X47360589Y-160759819D02*
X47360589Y-159759819D01*
X47360589Y-160712200D02*
X47265351Y-160759819D01*
X47265351Y-160759819D02*
X47074875Y-160759819D01*
X47074875Y-160759819D02*
X46979637Y-160712200D01*
X46979637Y-160712200D02*
X46932018Y-160664580D01*
X46932018Y-160664580D02*
X46884399Y-160569342D01*
X46884399Y-160569342D02*
X46884399Y-160283628D01*
X46884399Y-160283628D02*
X46932018Y-160188390D01*
X46932018Y-160188390D02*
X46979637Y-160140771D01*
X46979637Y-160140771D02*
X47074875Y-160093152D01*
X47074875Y-160093152D02*
X47265351Y-160093152D01*
X47265351Y-160093152D02*
X47360589Y-160140771D01*
X49170113Y-160664580D02*
X49122494Y-160712200D01*
X49122494Y-160712200D02*
X48979637Y-160759819D01*
X48979637Y-160759819D02*
X48884399Y-160759819D01*
X48884399Y-160759819D02*
X48741542Y-160712200D01*
X48741542Y-160712200D02*
X48646304Y-160616961D01*
X48646304Y-160616961D02*
X48598685Y-160521723D01*
X48598685Y-160521723D02*
X48551066Y-160331247D01*
X48551066Y-160331247D02*
X48551066Y-160188390D01*
X48551066Y-160188390D02*
X48598685Y-159997914D01*
X48598685Y-159997914D02*
X48646304Y-159902676D01*
X48646304Y-159902676D02*
X48741542Y-159807438D01*
X48741542Y-159807438D02*
X48884399Y-159759819D01*
X48884399Y-159759819D02*
X48979637Y-159759819D01*
X48979637Y-159759819D02*
X49122494Y-159807438D01*
X49122494Y-159807438D02*
X49170113Y-159855057D01*
X49741542Y-160759819D02*
X49646304Y-160712200D01*
X49646304Y-160712200D02*
X49598685Y-160664580D01*
X49598685Y-160664580D02*
X49551066Y-160569342D01*
X49551066Y-160569342D02*
X49551066Y-160283628D01*
X49551066Y-160283628D02*
X49598685Y-160188390D01*
X49598685Y-160188390D02*
X49646304Y-160140771D01*
X49646304Y-160140771D02*
X49741542Y-160093152D01*
X49741542Y-160093152D02*
X49884399Y-160093152D01*
X49884399Y-160093152D02*
X49979637Y-160140771D01*
X49979637Y-160140771D02*
X50027256Y-160188390D01*
X50027256Y-160188390D02*
X50074875Y-160283628D01*
X50074875Y-160283628D02*
X50074875Y-160569342D01*
X50074875Y-160569342D02*
X50027256Y-160664580D01*
X50027256Y-160664580D02*
X49979637Y-160712200D01*
X49979637Y-160712200D02*
X49884399Y-160759819D01*
X49884399Y-160759819D02*
X49741542Y-160759819D01*
X50503447Y-160093152D02*
X50503447Y-160759819D01*
X50503447Y-160188390D02*
X50551066Y-160140771D01*
X50551066Y-160140771D02*
X50646304Y-160093152D01*
X50646304Y-160093152D02*
X50789161Y-160093152D01*
X50789161Y-160093152D02*
X50884399Y-160140771D01*
X50884399Y-160140771D02*
X50932018Y-160236009D01*
X50932018Y-160236009D02*
X50932018Y-160759819D01*
X51408209Y-160093152D02*
X51408209Y-160759819D01*
X51408209Y-160188390D02*
X51455828Y-160140771D01*
X51455828Y-160140771D02*
X51551066Y-160093152D01*
X51551066Y-160093152D02*
X51693923Y-160093152D01*
X51693923Y-160093152D02*
X51789161Y-160140771D01*
X51789161Y-160140771D02*
X51836780Y-160236009D01*
X51836780Y-160236009D02*
X51836780Y-160759819D01*
X52693923Y-160712200D02*
X52598685Y-160759819D01*
X52598685Y-160759819D02*
X52408209Y-160759819D01*
X52408209Y-160759819D02*
X52312971Y-160712200D01*
X52312971Y-160712200D02*
X52265352Y-160616961D01*
X52265352Y-160616961D02*
X52265352Y-160236009D01*
X52265352Y-160236009D02*
X52312971Y-160140771D01*
X52312971Y-160140771D02*
X52408209Y-160093152D01*
X52408209Y-160093152D02*
X52598685Y-160093152D01*
X52598685Y-160093152D02*
X52693923Y-160140771D01*
X52693923Y-160140771D02*
X52741542Y-160236009D01*
X52741542Y-160236009D02*
X52741542Y-160331247D01*
X52741542Y-160331247D02*
X52265352Y-160426485D01*
X53598685Y-160712200D02*
X53503447Y-160759819D01*
X53503447Y-160759819D02*
X53312971Y-160759819D01*
X53312971Y-160759819D02*
X53217733Y-160712200D01*
X53217733Y-160712200D02*
X53170114Y-160664580D01*
X53170114Y-160664580D02*
X53122495Y-160569342D01*
X53122495Y-160569342D02*
X53122495Y-160283628D01*
X53122495Y-160283628D02*
X53170114Y-160188390D01*
X53170114Y-160188390D02*
X53217733Y-160140771D01*
X53217733Y-160140771D02*
X53312971Y-160093152D01*
X53312971Y-160093152D02*
X53503447Y-160093152D01*
X53503447Y-160093152D02*
X53598685Y-160140771D01*
X53884400Y-160093152D02*
X54265352Y-160093152D01*
X54027257Y-159759819D02*
X54027257Y-160616961D01*
X54027257Y-160616961D02*
X54074876Y-160712200D01*
X54074876Y-160712200D02*
X54170114Y-160759819D01*
X54170114Y-160759819D02*
X54265352Y-160759819D01*
X54741543Y-160759819D02*
X54646305Y-160712200D01*
X54646305Y-160712200D02*
X54598686Y-160664580D01*
X54598686Y-160664580D02*
X54551067Y-160569342D01*
X54551067Y-160569342D02*
X54551067Y-160283628D01*
X54551067Y-160283628D02*
X54598686Y-160188390D01*
X54598686Y-160188390D02*
X54646305Y-160140771D01*
X54646305Y-160140771D02*
X54741543Y-160093152D01*
X54741543Y-160093152D02*
X54884400Y-160093152D01*
X54884400Y-160093152D02*
X54979638Y-160140771D01*
X54979638Y-160140771D02*
X55027257Y-160188390D01*
X55027257Y-160188390D02*
X55074876Y-160283628D01*
X55074876Y-160283628D02*
X55074876Y-160569342D01*
X55074876Y-160569342D02*
X55027257Y-160664580D01*
X55027257Y-160664580D02*
X54979638Y-160712200D01*
X54979638Y-160712200D02*
X54884400Y-160759819D01*
X54884400Y-160759819D02*
X54741543Y-160759819D01*
X55503448Y-160759819D02*
X55503448Y-160093152D01*
X55503448Y-160283628D02*
X55551067Y-160188390D01*
X55551067Y-160188390D02*
X55598686Y-160140771D01*
X55598686Y-160140771D02*
X55693924Y-160093152D01*
X55693924Y-160093152D02*
X55789162Y-160093152D01*
X42312969Y-162369819D02*
X41836779Y-162369819D01*
X41836779Y-162369819D02*
X41836779Y-161369819D01*
X42646303Y-162369819D02*
X42646303Y-161703152D01*
X42646303Y-161369819D02*
X42598684Y-161417438D01*
X42598684Y-161417438D02*
X42646303Y-161465057D01*
X42646303Y-161465057D02*
X42693922Y-161417438D01*
X42693922Y-161417438D02*
X42646303Y-161369819D01*
X42646303Y-161369819D02*
X42646303Y-161465057D01*
X43551064Y-162322200D02*
X43455826Y-162369819D01*
X43455826Y-162369819D02*
X43265350Y-162369819D01*
X43265350Y-162369819D02*
X43170112Y-162322200D01*
X43170112Y-162322200D02*
X43122493Y-162274580D01*
X43122493Y-162274580D02*
X43074874Y-162179342D01*
X43074874Y-162179342D02*
X43074874Y-161893628D01*
X43074874Y-161893628D02*
X43122493Y-161798390D01*
X43122493Y-161798390D02*
X43170112Y-161750771D01*
X43170112Y-161750771D02*
X43265350Y-161703152D01*
X43265350Y-161703152D02*
X43455826Y-161703152D01*
X43455826Y-161703152D02*
X43551064Y-161750771D01*
X44360588Y-162322200D02*
X44265350Y-162369819D01*
X44265350Y-162369819D02*
X44074874Y-162369819D01*
X44074874Y-162369819D02*
X43979636Y-162322200D01*
X43979636Y-162322200D02*
X43932017Y-162226961D01*
X43932017Y-162226961D02*
X43932017Y-161846009D01*
X43932017Y-161846009D02*
X43979636Y-161750771D01*
X43979636Y-161750771D02*
X44074874Y-161703152D01*
X44074874Y-161703152D02*
X44265350Y-161703152D01*
X44265350Y-161703152D02*
X44360588Y-161750771D01*
X44360588Y-161750771D02*
X44408207Y-161846009D01*
X44408207Y-161846009D02*
X44408207Y-161941247D01*
X44408207Y-161941247D02*
X43932017Y-162036485D01*
X44836779Y-161703152D02*
X44836779Y-162369819D01*
X44836779Y-161798390D02*
X44884398Y-161750771D01*
X44884398Y-161750771D02*
X44979636Y-161703152D01*
X44979636Y-161703152D02*
X45122493Y-161703152D01*
X45122493Y-161703152D02*
X45217731Y-161750771D01*
X45217731Y-161750771D02*
X45265350Y-161846009D01*
X45265350Y-161846009D02*
X45265350Y-162369819D01*
X46170112Y-162322200D02*
X46074874Y-162369819D01*
X46074874Y-162369819D02*
X45884398Y-162369819D01*
X45884398Y-162369819D02*
X45789160Y-162322200D01*
X45789160Y-162322200D02*
X45741541Y-162274580D01*
X45741541Y-162274580D02*
X45693922Y-162179342D01*
X45693922Y-162179342D02*
X45693922Y-161893628D01*
X45693922Y-161893628D02*
X45741541Y-161798390D01*
X45741541Y-161798390D02*
X45789160Y-161750771D01*
X45789160Y-161750771D02*
X45884398Y-161703152D01*
X45884398Y-161703152D02*
X46074874Y-161703152D01*
X46074874Y-161703152D02*
X46170112Y-161750771D01*
X46979636Y-162322200D02*
X46884398Y-162369819D01*
X46884398Y-162369819D02*
X46693922Y-162369819D01*
X46693922Y-162369819D02*
X46598684Y-162322200D01*
X46598684Y-162322200D02*
X46551065Y-162226961D01*
X46551065Y-162226961D02*
X46551065Y-161846009D01*
X46551065Y-161846009D02*
X46598684Y-161750771D01*
X46598684Y-161750771D02*
X46693922Y-161703152D01*
X46693922Y-161703152D02*
X46884398Y-161703152D01*
X46884398Y-161703152D02*
X46979636Y-161750771D01*
X46979636Y-161750771D02*
X47027255Y-161846009D01*
X47027255Y-161846009D02*
X47027255Y-161941247D01*
X47027255Y-161941247D02*
X46551065Y-162036485D01*
X47455827Y-162274580D02*
X47503446Y-162322200D01*
X47503446Y-162322200D02*
X47455827Y-162369819D01*
X47455827Y-162369819D02*
X47408208Y-162322200D01*
X47408208Y-162322200D02*
X47455827Y-162274580D01*
X47455827Y-162274580D02*
X47455827Y-162369819D01*
X47455827Y-161750771D02*
X47503446Y-161798390D01*
X47503446Y-161798390D02*
X47455827Y-161846009D01*
X47455827Y-161846009D02*
X47408208Y-161798390D01*
X47408208Y-161798390D02*
X47455827Y-161750771D01*
X47455827Y-161750771D02*
X47455827Y-161846009D01*
X49217731Y-161417438D02*
X49122493Y-161369819D01*
X49122493Y-161369819D02*
X48979636Y-161369819D01*
X48979636Y-161369819D02*
X48836779Y-161417438D01*
X48836779Y-161417438D02*
X48741541Y-161512676D01*
X48741541Y-161512676D02*
X48693922Y-161607914D01*
X48693922Y-161607914D02*
X48646303Y-161798390D01*
X48646303Y-161798390D02*
X48646303Y-161941247D01*
X48646303Y-161941247D02*
X48693922Y-162131723D01*
X48693922Y-162131723D02*
X48741541Y-162226961D01*
X48741541Y-162226961D02*
X48836779Y-162322200D01*
X48836779Y-162322200D02*
X48979636Y-162369819D01*
X48979636Y-162369819D02*
X49074874Y-162369819D01*
X49074874Y-162369819D02*
X49217731Y-162322200D01*
X49217731Y-162322200D02*
X49265350Y-162274580D01*
X49265350Y-162274580D02*
X49265350Y-161941247D01*
X49265350Y-161941247D02*
X49074874Y-161941247D01*
X49693922Y-162369819D02*
X49693922Y-161369819D01*
X49693922Y-161369819D02*
X50074874Y-161369819D01*
X50074874Y-161369819D02*
X50170112Y-161417438D01*
X50170112Y-161417438D02*
X50217731Y-161465057D01*
X50217731Y-161465057D02*
X50265350Y-161560295D01*
X50265350Y-161560295D02*
X50265350Y-161703152D01*
X50265350Y-161703152D02*
X50217731Y-161798390D01*
X50217731Y-161798390D02*
X50170112Y-161846009D01*
X50170112Y-161846009D02*
X50074874Y-161893628D01*
X50074874Y-161893628D02*
X49693922Y-161893628D01*
X51170112Y-162369819D02*
X50693922Y-162369819D01*
X50693922Y-162369819D02*
X50693922Y-161369819D01*
X56693922Y-162369819D02*
X57265350Y-162369819D01*
X56979636Y-163369819D02*
X56979636Y-162369819D01*
X51630180Y-175836779D02*
X52630180Y-175836779D01*
X51630180Y-176265350D02*
X52153990Y-176265350D01*
X52153990Y-176265350D02*
X52249228Y-176217731D01*
X52249228Y-176217731D02*
X52296847Y-176122493D01*
X52296847Y-176122493D02*
X52296847Y-175979636D01*
X52296847Y-175979636D02*
X52249228Y-175884398D01*
X52249228Y-175884398D02*
X52201609Y-175836779D01*
X51677800Y-177122493D02*
X51630180Y-177027255D01*
X51630180Y-177027255D02*
X51630180Y-176836779D01*
X51630180Y-176836779D02*
X51677800Y-176741541D01*
X51677800Y-176741541D02*
X51773038Y-176693922D01*
X51773038Y-176693922D02*
X52153990Y-176693922D01*
X52153990Y-176693922D02*
X52249228Y-176741541D01*
X52249228Y-176741541D02*
X52296847Y-176836779D01*
X52296847Y-176836779D02*
X52296847Y-177027255D01*
X52296847Y-177027255D02*
X52249228Y-177122493D01*
X52249228Y-177122493D02*
X52153990Y-177170112D01*
X52153990Y-177170112D02*
X52058752Y-177170112D01*
X52058752Y-177170112D02*
X51963514Y-176693922D01*
X51630180Y-178027255D02*
X52153990Y-178027255D01*
X52153990Y-178027255D02*
X52249228Y-177979636D01*
X52249228Y-177979636D02*
X52296847Y-177884398D01*
X52296847Y-177884398D02*
X52296847Y-177693922D01*
X52296847Y-177693922D02*
X52249228Y-177598684D01*
X51677800Y-178027255D02*
X51630180Y-177932017D01*
X51630180Y-177932017D02*
X51630180Y-177693922D01*
X51630180Y-177693922D02*
X51677800Y-177598684D01*
X51677800Y-177598684D02*
X51773038Y-177551065D01*
X51773038Y-177551065D02*
X51868276Y-177551065D01*
X51868276Y-177551065D02*
X51963514Y-177598684D01*
X51963514Y-177598684D02*
X52011133Y-177693922D01*
X52011133Y-177693922D02*
X52011133Y-177932017D01*
X52011133Y-177932017D02*
X52058752Y-178027255D01*
X52296847Y-178360589D02*
X52296847Y-178741541D01*
X52630180Y-178503446D02*
X51773038Y-178503446D01*
X51773038Y-178503446D02*
X51677800Y-178551065D01*
X51677800Y-178551065D02*
X51630180Y-178646303D01*
X51630180Y-178646303D02*
X51630180Y-178741541D01*
X33336779Y-176869819D02*
X33336779Y-175869819D01*
X33336779Y-176346009D02*
X33908207Y-176346009D01*
X33908207Y-176869819D02*
X33908207Y-175869819D01*
X33336779Y-171869819D02*
X33336779Y-170869819D01*
X33336779Y-170869819D02*
X33717731Y-170869819D01*
X33717731Y-170869819D02*
X33812969Y-170917438D01*
X33812969Y-170917438D02*
X33860588Y-170965057D01*
X33860588Y-170965057D02*
X33908207Y-171060295D01*
X33908207Y-171060295D02*
X33908207Y-171203152D01*
X33908207Y-171203152D02*
X33860588Y-171298390D01*
X33860588Y-171298390D02*
X33812969Y-171346009D01*
X33812969Y-171346009D02*
X33717731Y-171393628D01*
X33717731Y-171393628D02*
X33336779Y-171393628D01*
X56693922Y-159869819D02*
X57265350Y-159869819D01*
X56979636Y-160869819D02*
X56979636Y-159869819D01*
X33670112Y-158846009D02*
X33336779Y-158846009D01*
X33336779Y-159369819D02*
X33336779Y-158369819D01*
X33336779Y-158369819D02*
X33812969Y-158369819D01*
X34193922Y-158988866D02*
X34955827Y-158988866D01*
X34574874Y-159369819D02*
X34574874Y-158607914D01*
X52296847Y-168693922D02*
X52296847Y-169074874D01*
X52630180Y-168836779D02*
X51773038Y-168836779D01*
X51773038Y-168836779D02*
X51677800Y-168884398D01*
X51677800Y-168884398D02*
X51630180Y-168979636D01*
X51630180Y-168979636D02*
X51630180Y-169074874D01*
X51630180Y-169551065D02*
X51677800Y-169455827D01*
X51677800Y-169455827D02*
X51725419Y-169408208D01*
X51725419Y-169408208D02*
X51820657Y-169360589D01*
X51820657Y-169360589D02*
X52106371Y-169360589D01*
X52106371Y-169360589D02*
X52201609Y-169408208D01*
X52201609Y-169408208D02*
X52249228Y-169455827D01*
X52249228Y-169455827D02*
X52296847Y-169551065D01*
X52296847Y-169551065D02*
X52296847Y-169693922D01*
X52296847Y-169693922D02*
X52249228Y-169789160D01*
X52249228Y-169789160D02*
X52201609Y-169836779D01*
X52201609Y-169836779D02*
X52106371Y-169884398D01*
X52106371Y-169884398D02*
X51820657Y-169884398D01*
X51820657Y-169884398D02*
X51725419Y-169836779D01*
X51725419Y-169836779D02*
X51677800Y-169789160D01*
X51677800Y-169789160D02*
X51630180Y-169693922D01*
X51630180Y-169693922D02*
X51630180Y-169551065D01*
X52296847Y-170741541D02*
X51630180Y-170741541D01*
X52296847Y-170312970D02*
X51773038Y-170312970D01*
X51773038Y-170312970D02*
X51677800Y-170360589D01*
X51677800Y-170360589D02*
X51630180Y-170455827D01*
X51630180Y-170455827D02*
X51630180Y-170598684D01*
X51630180Y-170598684D02*
X51677800Y-170693922D01*
X51677800Y-170693922D02*
X51725419Y-170741541D01*
X51677800Y-171646303D02*
X51630180Y-171551065D01*
X51630180Y-171551065D02*
X51630180Y-171360589D01*
X51630180Y-171360589D02*
X51677800Y-171265351D01*
X51677800Y-171265351D02*
X51725419Y-171217732D01*
X51725419Y-171217732D02*
X51820657Y-171170113D01*
X51820657Y-171170113D02*
X52106371Y-171170113D01*
X52106371Y-171170113D02*
X52201609Y-171217732D01*
X52201609Y-171217732D02*
X52249228Y-171265351D01*
X52249228Y-171265351D02*
X52296847Y-171360589D01*
X52296847Y-171360589D02*
X52296847Y-171551065D01*
X52296847Y-171551065D02*
X52249228Y-171646303D01*
X51630180Y-172074875D02*
X52630180Y-172074875D01*
X51630180Y-172503446D02*
X52153990Y-172503446D01*
X52153990Y-172503446D02*
X52249228Y-172455827D01*
X52249228Y-172455827D02*
X52296847Y-172360589D01*
X52296847Y-172360589D02*
X52296847Y-172217732D01*
X52296847Y-172217732D02*
X52249228Y-172122494D01*
X52249228Y-172122494D02*
X52201609Y-172074875D01*
X55836779Y-175869819D02*
X55836779Y-174869819D01*
X55836779Y-175346009D02*
X56408207Y-175346009D01*
X56408207Y-175869819D02*
X56408207Y-174869819D01*
X56884398Y-175488866D02*
X57646303Y-175488866D01*
X57265350Y-175869819D02*
X57265350Y-175107914D01*
X55836779Y-173369819D02*
X55836779Y-172369819D01*
X55836779Y-172846009D02*
X56408207Y-172846009D01*
X56408207Y-173369819D02*
X56408207Y-172369819D01*
X56884398Y-172988866D02*
X57646303Y-172988866D01*
X33670112Y-161346009D02*
X33336779Y-161346009D01*
X33336779Y-161869819D02*
X33336779Y-160869819D01*
X33336779Y-160869819D02*
X33812969Y-160869819D01*
X34193922Y-161488866D02*
X34955827Y-161488866D01*
X54336779Y-168369819D02*
X54336779Y-167369819D01*
X54336779Y-167369819D02*
X54717731Y-167369819D01*
X54717731Y-167369819D02*
X54812969Y-167417438D01*
X54812969Y-167417438D02*
X54860588Y-167465057D01*
X54860588Y-167465057D02*
X54908207Y-167560295D01*
X54908207Y-167560295D02*
X54908207Y-167703152D01*
X54908207Y-167703152D02*
X54860588Y-167798390D01*
X54860588Y-167798390D02*
X54812969Y-167846009D01*
X54812969Y-167846009D02*
X54717731Y-167893628D01*
X54717731Y-167893628D02*
X54336779Y-167893628D01*
X55241541Y-167369819D02*
X55860588Y-167369819D01*
X55860588Y-167369819D02*
X55527255Y-167750771D01*
X55527255Y-167750771D02*
X55670112Y-167750771D01*
X55670112Y-167750771D02*
X55765350Y-167798390D01*
X55765350Y-167798390D02*
X55812969Y-167846009D01*
X55812969Y-167846009D02*
X55860588Y-167941247D01*
X55860588Y-167941247D02*
X55860588Y-168179342D01*
X55860588Y-168179342D02*
X55812969Y-168274580D01*
X55812969Y-168274580D02*
X55765350Y-168322200D01*
X55765350Y-168322200D02*
X55670112Y-168369819D01*
X55670112Y-168369819D02*
X55384398Y-168369819D01*
X55384398Y-168369819D02*
X55289160Y-168322200D01*
X55289160Y-168322200D02*
X55241541Y-168274580D01*
X56193922Y-167703152D02*
X56432017Y-168369819D01*
X56432017Y-168369819D02*
X56670112Y-167703152D01*
X56955827Y-167369819D02*
X57574874Y-167369819D01*
X57574874Y-167369819D02*
X57241541Y-167750771D01*
X57241541Y-167750771D02*
X57384398Y-167750771D01*
X57384398Y-167750771D02*
X57479636Y-167798390D01*
X57479636Y-167798390D02*
X57527255Y-167846009D01*
X57527255Y-167846009D02*
X57574874Y-167941247D01*
X57574874Y-167941247D02*
X57574874Y-168179342D01*
X57574874Y-168179342D02*
X57527255Y-168274580D01*
X57527255Y-168274580D02*
X57479636Y-168322200D01*
X57479636Y-168322200D02*
X57384398Y-168369819D01*
X57384398Y-168369819D02*
X57098684Y-168369819D01*
X57098684Y-168369819D02*
X57003446Y-168322200D01*
X57003446Y-168322200D02*
X56955827Y-168274580D01*
X33193922Y-165869819D02*
X33765350Y-165869819D01*
X33479636Y-166869819D02*
X33479636Y-165869819D01*
X55836779Y-170869819D02*
X55836779Y-169869819D01*
X55836779Y-169869819D02*
X56217731Y-169869819D01*
X56217731Y-169869819D02*
X56312969Y-169917438D01*
X56312969Y-169917438D02*
X56360588Y-169965057D01*
X56360588Y-169965057D02*
X56408207Y-170060295D01*
X56408207Y-170060295D02*
X56408207Y-170203152D01*
X56408207Y-170203152D02*
X56360588Y-170298390D01*
X56360588Y-170298390D02*
X56312969Y-170346009D01*
X56312969Y-170346009D02*
X56217731Y-170393628D01*
X56217731Y-170393628D02*
X55836779Y-170393628D01*
X57265350Y-170203152D02*
X57265350Y-171012676D01*
X57265350Y-171012676D02*
X57217731Y-171107914D01*
X57217731Y-171107914D02*
X57170112Y-171155533D01*
X57170112Y-171155533D02*
X57074874Y-171203152D01*
X57074874Y-171203152D02*
X56932017Y-171203152D01*
X56932017Y-171203152D02*
X56836779Y-171155533D01*
X57265350Y-170822200D02*
X57170112Y-170869819D01*
X57170112Y-170869819D02*
X56979636Y-170869819D01*
X56979636Y-170869819D02*
X56884398Y-170822200D01*
X56884398Y-170822200D02*
X56836779Y-170774580D01*
X56836779Y-170774580D02*
X56789160Y-170679342D01*
X56789160Y-170679342D02*
X56789160Y-170393628D01*
X56789160Y-170393628D02*
X56836779Y-170298390D01*
X56836779Y-170298390D02*
X56884398Y-170250771D01*
X56884398Y-170250771D02*
X56979636Y-170203152D01*
X56979636Y-170203152D02*
X57170112Y-170203152D01*
X57170112Y-170203152D02*
X57265350Y-170250771D01*
X33193922Y-163369819D02*
X33765350Y-163369819D01*
X33479636Y-164369819D02*
X33479636Y-163369819D01*
X33336779Y-174369819D02*
X33336779Y-173369819D01*
X33336779Y-173846009D02*
X33908207Y-173846009D01*
X33908207Y-174369819D02*
X33908207Y-173369819D01*
X56836779Y-165869819D02*
X56836779Y-164869819D01*
X56836779Y-164869819D02*
X57217731Y-164869819D01*
X57217731Y-164869819D02*
X57312969Y-164917438D01*
X57312969Y-164917438D02*
X57360588Y-164965057D01*
X57360588Y-164965057D02*
X57408207Y-165060295D01*
X57408207Y-165060295D02*
X57408207Y-165203152D01*
X57408207Y-165203152D02*
X57360588Y-165298390D01*
X57360588Y-165298390D02*
X57312969Y-165346009D01*
X57312969Y-165346009D02*
X57217731Y-165393628D01*
X57217731Y-165393628D02*
X56836779Y-165393628D01*
X33336779Y-169369819D02*
X33336779Y-168369819D01*
X33336779Y-168369819D02*
X33717731Y-168369819D01*
X33717731Y-168369819D02*
X33812969Y-168417438D01*
X33812969Y-168417438D02*
X33860588Y-168465057D01*
X33860588Y-168465057D02*
X33908207Y-168560295D01*
X33908207Y-168560295D02*
X33908207Y-168703152D01*
X33908207Y-168703152D02*
X33860588Y-168798390D01*
X33860588Y-168798390D02*
X33812969Y-168846009D01*
X33812969Y-168846009D02*
X33717731Y-168893628D01*
X33717731Y-168893628D02*
X33336779Y-168893628D01*
X43804819Y-171705357D02*
X43804819Y-172276785D01*
X43804819Y-171991071D02*
X42804819Y-171991071D01*
X42804819Y-171991071D02*
X42947676Y-172086309D01*
X42947676Y-172086309D02*
X43042914Y-172181547D01*
X43042914Y-172181547D02*
X43090533Y-172276785D01*
X43804819Y-171276785D02*
X42804819Y-171276785D01*
X42804819Y-171276785D02*
X43804819Y-170705357D01*
X43804819Y-170705357D02*
X42804819Y-170705357D01*
X43138152Y-169800595D02*
X43804819Y-169800595D01*
X42757200Y-170038690D02*
X43471485Y-170276785D01*
X43471485Y-170276785D02*
X43471485Y-169657738D01*
X43804819Y-168752976D02*
X43804819Y-169324404D01*
X43804819Y-169038690D02*
X42804819Y-169038690D01*
X42804819Y-169038690D02*
X42947676Y-169133928D01*
X42947676Y-169133928D02*
X43042914Y-169229166D01*
X43042914Y-169229166D02*
X43090533Y-169324404D01*
X43138152Y-167895833D02*
X43804819Y-167895833D01*
X42757200Y-168133928D02*
X43471485Y-168372023D01*
X43471485Y-168372023D02*
X43471485Y-167752976D01*
X43233390Y-167229166D02*
X43185771Y-167324404D01*
X43185771Y-167324404D02*
X43138152Y-167372023D01*
X43138152Y-167372023D02*
X43042914Y-167419642D01*
X43042914Y-167419642D02*
X42995295Y-167419642D01*
X42995295Y-167419642D02*
X42900057Y-167372023D01*
X42900057Y-167372023D02*
X42852438Y-167324404D01*
X42852438Y-167324404D02*
X42804819Y-167229166D01*
X42804819Y-167229166D02*
X42804819Y-167038690D01*
X42804819Y-167038690D02*
X42852438Y-166943452D01*
X42852438Y-166943452D02*
X42900057Y-166895833D01*
X42900057Y-166895833D02*
X42995295Y-166848214D01*
X42995295Y-166848214D02*
X43042914Y-166848214D01*
X43042914Y-166848214D02*
X43138152Y-166895833D01*
X43138152Y-166895833D02*
X43185771Y-166943452D01*
X43185771Y-166943452D02*
X43233390Y-167038690D01*
X43233390Y-167038690D02*
X43233390Y-167229166D01*
X43233390Y-167229166D02*
X43281009Y-167324404D01*
X43281009Y-167324404D02*
X43328628Y-167372023D01*
X43328628Y-167372023D02*
X43423866Y-167419642D01*
X43423866Y-167419642D02*
X43614342Y-167419642D01*
X43614342Y-167419642D02*
X43709580Y-167372023D01*
X43709580Y-167372023D02*
X43757200Y-167324404D01*
X43757200Y-167324404D02*
X43804819Y-167229166D01*
X43804819Y-167229166D02*
X43804819Y-167038690D01*
X43804819Y-167038690D02*
X43757200Y-166943452D01*
X43757200Y-166943452D02*
X43709580Y-166895833D01*
X43709580Y-166895833D02*
X43614342Y-166848214D01*
X43614342Y-166848214D02*
X43423866Y-166848214D01*
X43423866Y-166848214D02*
X43328628Y-166895833D01*
X43328628Y-166895833D02*
X43281009Y-166943452D01*
X43281009Y-166943452D02*
X43233390Y-167038690D01*
D11*
%TO.C,R1*%
X54860436Y-176265000D02*
X55314564Y-176265000D01*
X54860436Y-177735000D02*
X55314564Y-177735000D01*
%TO.C,R2*%
X48772936Y-167265000D02*
X49227064Y-167265000D01*
X48772936Y-168735000D02*
X49227064Y-168735000D01*
%TO.C,1N4148*%
X44040000Y-171247500D02*
X45960000Y-171247500D01*
X45960000Y-171247500D02*
X45960000Y-168562500D01*
X44040000Y-168562500D02*
X44040000Y-171247500D01*
%TO.C,D1*%
X47315000Y-176040000D02*
X47315000Y-177960000D01*
X47315000Y-177960000D02*
X50000000Y-177960000D01*
X50000000Y-176040000D02*
X47315000Y-176040000D01*
%TO.C,D2*%
X50685000Y-171460000D02*
X50685000Y-169540000D01*
X50685000Y-169540000D02*
X48000000Y-169540000D01*
X48000000Y-171460000D02*
X50685000Y-171460000D01*
%TO.C,J1*%
X57730000Y-158990000D02*
X59000000Y-158990000D01*
X57730000Y-160260000D02*
X57730000Y-158990000D01*
X60042929Y-162420000D02*
X60440000Y-162420000D01*
X60042929Y-163180000D02*
X60440000Y-163180000D01*
X60042929Y-164960000D02*
X60440000Y-164960000D01*
X60042929Y-165720000D02*
X60440000Y-165720000D01*
X60042929Y-167500000D02*
X60440000Y-167500000D01*
X60042929Y-168260000D02*
X60440000Y-168260000D01*
X60042929Y-170040000D02*
X60440000Y-170040000D01*
X60042929Y-170800000D02*
X60440000Y-170800000D01*
X60042929Y-172580000D02*
X60440000Y-172580000D01*
X60042929Y-173340000D02*
X60440000Y-173340000D01*
X60042929Y-175120000D02*
X60440000Y-175120000D01*
X60042929Y-175880000D02*
X60440000Y-175880000D01*
X60110000Y-159880000D02*
X60440000Y-159880000D01*
X60110000Y-160640000D02*
X60440000Y-160640000D01*
X60440000Y-158930000D02*
X60440000Y-176830000D01*
X60440000Y-161530000D02*
X63100000Y-161530000D01*
X60440000Y-164070000D02*
X63100000Y-164070000D01*
X60440000Y-166610000D02*
X63100000Y-166610000D01*
X60440000Y-169150000D02*
X63100000Y-169150000D01*
X60440000Y-171690000D02*
X63100000Y-171690000D01*
X60440000Y-174230000D02*
X63100000Y-174230000D01*
X60440000Y-176830000D02*
X63100000Y-176830000D01*
X63100000Y-158930000D02*
X60440000Y-158930000D01*
X63100000Y-159880000D02*
X69100000Y-159880000D01*
X63100000Y-159940000D02*
X69100000Y-159940000D01*
X63100000Y-160060000D02*
X69100000Y-160060000D01*
X63100000Y-160180000D02*
X69100000Y-160180000D01*
X63100000Y-160300000D02*
X69100000Y-160300000D01*
X63100000Y-160420000D02*
X69100000Y-160420000D01*
X63100000Y-160540000D02*
X69100000Y-160540000D01*
X63100000Y-162420000D02*
X69100000Y-162420000D01*
X63100000Y-164960000D02*
X69100000Y-164960000D01*
X63100000Y-167500000D02*
X69100000Y-167500000D01*
X63100000Y-170040000D02*
X69100000Y-170040000D01*
X63100000Y-172580000D02*
X69100000Y-172580000D01*
X63100000Y-175120000D02*
X69100000Y-175120000D01*
X63100000Y-176830000D02*
X63100000Y-158930000D01*
X69100000Y-159880000D02*
X69100000Y-160640000D01*
X69100000Y-160640000D02*
X63100000Y-160640000D01*
X69100000Y-162420000D02*
X69100000Y-163180000D01*
X69100000Y-163180000D02*
X63100000Y-163180000D01*
X69100000Y-164960000D02*
X69100000Y-165720000D01*
X69100000Y-165720000D02*
X63100000Y-165720000D01*
X69100000Y-167500000D02*
X69100000Y-168260000D01*
X69100000Y-168260000D02*
X63100000Y-168260000D01*
X69100000Y-170040000D02*
X69100000Y-170800000D01*
X69100000Y-170800000D02*
X63100000Y-170800000D01*
X69100000Y-172580000D02*
X69100000Y-173340000D01*
X69100000Y-173340000D02*
X63100000Y-173340000D01*
X69100000Y-175120000D02*
X69100000Y-175880000D01*
X69100000Y-175880000D02*
X63100000Y-175880000D01*
%TO.C,J2*%
X32330000Y-177950000D02*
X31000000Y-177950000D01*
X32330000Y-176620000D02*
X32330000Y-177950000D01*
X32330000Y-175350000D02*
X32330000Y-157510000D01*
X32330000Y-175350000D02*
X29670000Y-175350000D01*
X32330000Y-157510000D02*
X29670000Y-157510000D01*
X29670000Y-175350000D02*
X29670000Y-157510000D01*
%TD*%
M02*
