%TF.GenerationSoftware,KiCad,Pcbnew,7.0.7-7.0.7~ubuntu20.04.1*%
%TF.CreationDate,2023-08-31T15:52:27+01:00*%
%TF.ProjectId,hot-end-connector,686f742d-656e-4642-9d63-6f6e6e656374,rev?*%
%TF.SameCoordinates,Original*%
%TF.FileFunction,Copper,L1,Top*%
%TF.FilePolarity,Positive*%
%FSLAX46Y46*%
G04 Gerber Fmt 4.6, Leading zero omitted, Abs format (unit mm)*
G04 Created by KiCad (PCBNEW 7.0.7-7.0.7~ubuntu20.04.1) date 2023-08-31 15:52:27*
%MOMM*%
%LPD*%
G01*
G04 APERTURE LIST*
G04 Aperture macros list*
%AMRoundRect*
0 Rectangle with rounded corners*
0 $1 Rounding radius*
0 $2 $3 $4 $5 $6 $7 $8 $9 X,Y pos of 4 corners*
0 Add a 4 corners polygon primitive as box body*
4,1,4,$2,$3,$4,$5,$6,$7,$8,$9,$2,$3,0*
0 Add four circle primitives for the rounded corners*
1,1,$1+$1,$2,$3*
1,1,$1+$1,$4,$5*
1,1,$1+$1,$6,$7*
1,1,$1+$1,$8,$9*
0 Add four rect primitives between the rounded corners*
20,1,$1+$1,$2,$3,$4,$5,0*
20,1,$1+$1,$4,$5,$6,$7,0*
20,1,$1+$1,$6,$7,$8,$9,0*
20,1,$1+$1,$8,$9,$2,$3,0*%
G04 Aperture macros list end*
%TA.AperFunction,SMDPad,CuDef*%
%ADD10RoundRect,0.250000X-0.262500X-0.450000X0.262500X-0.450000X0.262500X0.450000X-0.262500X0.450000X0*%
%TD*%
%TA.AperFunction,SMDPad,CuDef*%
%ADD11RoundRect,0.243750X0.456250X-0.243750X0.456250X0.243750X-0.456250X0.243750X-0.456250X-0.243750X0*%
%TD*%
%TA.AperFunction,SMDPad,CuDef*%
%ADD12RoundRect,0.243750X-0.243750X-0.456250X0.243750X-0.456250X0.243750X0.456250X-0.243750X0.456250X0*%
%TD*%
%TA.AperFunction,SMDPad,CuDef*%
%ADD13RoundRect,0.243750X0.243750X0.456250X-0.243750X0.456250X-0.243750X-0.456250X0.243750X-0.456250X0*%
%TD*%
%TA.AperFunction,ComponentPad*%
%ADD14R,1.700000X1.700000*%
%TD*%
%TA.AperFunction,ComponentPad*%
%ADD15O,1.700000X1.700000*%
%TD*%
%TA.AperFunction,ViaPad*%
%ADD16C,0.800000*%
%TD*%
%TA.AperFunction,Conductor*%
%ADD17C,0.600000*%
%TD*%
%TA.AperFunction,Conductor*%
%ADD18C,1.000000*%
%TD*%
G04 APERTURE END LIST*
D10*
%TO.P,R1,1*%
%TO.N,Net-(D1-A)*%
X54175000Y-177000000D03*
%TO.P,R1,2*%
%TO.N,/+12V*%
X56000000Y-177000000D03*
%TD*%
%TO.P,R2,1*%
%TO.N,/probe*%
X48087500Y-168000000D03*
%TO.P,R2,2*%
%TO.N,/+3V3*%
X49912500Y-168000000D03*
%TD*%
D11*
%TO.P,1N4148,1,K*%
%TO.N,Net-(D2-A)*%
X45000000Y-170500000D03*
%TO.P,1N4148,2,A*%
%TO.N,/probe*%
X45000000Y-168625000D03*
%TD*%
D12*
%TO.P,D1,1,K*%
%TO.N,/H-*%
X48062500Y-177000000D03*
%TO.P,D1,2,A*%
%TO.N,Net-(D1-A)*%
X49937500Y-177000000D03*
%TD*%
D13*
%TO.P,D2,1,K*%
%TO.N,/GND*%
X49937500Y-170500000D03*
%TO.P,D2,2,A*%
%TO.N,Net-(D2-A)*%
X48062500Y-170500000D03*
%TD*%
D14*
%TO.P,J1,1,Pin_1*%
%TO.N,/T-b*%
X59000000Y-160260000D03*
D15*
%TO.P,J1,2,Pin_2*%
%TO.N,/T-a*%
X59000000Y-162800000D03*
%TO.P,J1,3,Pin_3*%
%TO.N,/probe*%
X59000000Y-165340000D03*
%TO.P,J1,4,Pin_4*%
%TO.N,/+3V3*%
X59000000Y-167880000D03*
%TO.P,J1,5,Pin_5*%
%TO.N,/GND*%
X59000000Y-170420000D03*
%TO.P,J1,6,Pin_6*%
%TO.N,/H-*%
X59000000Y-172960000D03*
%TO.P,J1,7,Pin_7*%
%TO.N,/+12V*%
X59000000Y-175500000D03*
%TD*%
D14*
%TO.P,J2,1,Pin_1*%
%TO.N,/+12V*%
X31000000Y-176620000D03*
D15*
%TO.P,J2,2,Pin_2*%
%TO.N,/H-*%
X31000000Y-174080000D03*
%TO.P,J2,3,Pin_3*%
%TO.N,/GND*%
X31000000Y-171540000D03*
%TO.P,J2,4,Pin_4*%
%TO.N,/probe*%
X31000000Y-169000000D03*
%TO.P,J2,5,Pin_5*%
%TO.N,/T-a*%
X31000000Y-166460000D03*
%TO.P,J2,6,Pin_6*%
%TO.N,/T-b*%
X31000000Y-163920000D03*
%TO.P,J2,7,Pin_7*%
%TO.N,/GND*%
X31000000Y-161380000D03*
%TO.P,J2,8,Pin_8*%
%TO.N,/+12V*%
X31000000Y-158840000D03*
%TD*%
D16*
%TO.N,/H-*%
X46000000Y-173000000D03*
%TO.N,/probe*%
X42000000Y-168500000D03*
%TD*%
D17*
%TO.N,/H-*%
X46000000Y-175000000D02*
X46000000Y-173000000D01*
X48000000Y-177000000D02*
X46000000Y-175000000D01*
X48062500Y-177000000D02*
X48000000Y-177000000D01*
%TO.N,Net-(D1-A)*%
X54175000Y-177000000D02*
X49937500Y-177000000D01*
%TO.N,/GND*%
X49937500Y-170500000D02*
X50017500Y-170420000D01*
D18*
X32960000Y-171540000D02*
X31000000Y-171540000D01*
X31000000Y-161380000D02*
X32880000Y-161380000D01*
X33000000Y-171500000D02*
X32960000Y-171540000D01*
D17*
X50017500Y-170420000D02*
X59000000Y-170420000D01*
D18*
X33000000Y-161500000D02*
X33000000Y-171500000D01*
X32880000Y-161380000D02*
X33000000Y-161500000D01*
D17*
%TO.N,/probe*%
X48087500Y-168000000D02*
X45625000Y-168000000D01*
X42125000Y-168625000D02*
X42000000Y-168500000D01*
X45000000Y-168625000D02*
X42125000Y-168625000D01*
X45625000Y-168000000D02*
X45000000Y-168625000D01*
%TO.N,/+3V3*%
X59000000Y-167880000D02*
X50032500Y-167880000D01*
X50032500Y-167880000D02*
X49912500Y-168000000D01*
D18*
%TO.N,/+12V*%
X32840000Y-158840000D02*
X31000000Y-158840000D01*
X31000000Y-176620000D02*
X32880000Y-176620000D01*
D17*
X57500000Y-177000000D02*
X56000000Y-177000000D01*
X57500000Y-177000000D02*
X59000000Y-175500000D01*
D18*
X35000000Y-161000000D02*
X32840000Y-158840000D01*
X32880000Y-176620000D02*
X35000000Y-174500000D01*
X35000000Y-174500000D02*
X35000000Y-161000000D01*
D17*
%TO.N,Net-(D2-A)*%
X45000000Y-170500000D02*
X48062500Y-170500000D01*
%TD*%
%TA.AperFunction,Conductor*%
%TO.N,/GND*%
G36*
X32441256Y-159860185D02*
G01*
X32461898Y-159876819D01*
X33963181Y-161378102D01*
X33996666Y-161439425D01*
X33999500Y-161465783D01*
X33999500Y-174034218D01*
X33979815Y-174101257D01*
X33963181Y-174121899D01*
X32501899Y-175583181D01*
X32440576Y-175616666D01*
X32414218Y-175619500D01*
X32414141Y-175619500D01*
X32347102Y-175599815D01*
X32301347Y-175547011D01*
X32297969Y-175538859D01*
X32293796Y-175527669D01*
X32293793Y-175527665D01*
X32293793Y-175527664D01*
X32207547Y-175412455D01*
X32207544Y-175412452D01*
X32092335Y-175326206D01*
X32092328Y-175326202D01*
X31960917Y-175277189D01*
X31904983Y-175235318D01*
X31880566Y-175169853D01*
X31895418Y-175101580D01*
X31916563Y-175073332D01*
X32038495Y-174951401D01*
X32174035Y-174757830D01*
X32273903Y-174543663D01*
X32335063Y-174315408D01*
X32355659Y-174080000D01*
X32335063Y-173844592D01*
X32273903Y-173616337D01*
X32174035Y-173402171D01*
X32150308Y-173368284D01*
X32038494Y-173208597D01*
X31871402Y-173041506D01*
X31871401Y-173041505D01*
X31685405Y-172911269D01*
X31641781Y-172856692D01*
X31634588Y-172787193D01*
X31666110Y-172724839D01*
X31685405Y-172708119D01*
X31871082Y-172578105D01*
X32038105Y-172411082D01*
X32173600Y-172217578D01*
X32273429Y-172003492D01*
X32273432Y-172003486D01*
X32330636Y-171790000D01*
X31613347Y-171790000D01*
X31546308Y-171770315D01*
X31500553Y-171717511D01*
X31490609Y-171648353D01*
X31494369Y-171631067D01*
X31500000Y-171611888D01*
X31500000Y-171468111D01*
X31494369Y-171448933D01*
X31494370Y-171379064D01*
X31532145Y-171320286D01*
X31595701Y-171291262D01*
X31613347Y-171290000D01*
X32330636Y-171290000D01*
X32330635Y-171289999D01*
X32273432Y-171076513D01*
X32273429Y-171076507D01*
X32173600Y-170862422D01*
X32173599Y-170862420D01*
X32038113Y-170668926D01*
X32038108Y-170668920D01*
X31871078Y-170501890D01*
X31685405Y-170371879D01*
X31641780Y-170317302D01*
X31634588Y-170247804D01*
X31666110Y-170185449D01*
X31685406Y-170168730D01*
X31871401Y-170038495D01*
X32038495Y-169871401D01*
X32174035Y-169677830D01*
X32273903Y-169463663D01*
X32335063Y-169235408D01*
X32355659Y-169000000D01*
X32335063Y-168764592D01*
X32273903Y-168536337D01*
X32174035Y-168322171D01*
X32166732Y-168311740D01*
X32038494Y-168128597D01*
X31871402Y-167961506D01*
X31871396Y-167961501D01*
X31685842Y-167831575D01*
X31642217Y-167776998D01*
X31635023Y-167707500D01*
X31666546Y-167645145D01*
X31685842Y-167628425D01*
X31727151Y-167599500D01*
X31871401Y-167498495D01*
X32038495Y-167331401D01*
X32174035Y-167137830D01*
X32273903Y-166923663D01*
X32335063Y-166695408D01*
X32355659Y-166460000D01*
X32335063Y-166224592D01*
X32273903Y-165996337D01*
X32174035Y-165782171D01*
X32038495Y-165588599D01*
X32038494Y-165588597D01*
X31871402Y-165421506D01*
X31871396Y-165421501D01*
X31685842Y-165291575D01*
X31642217Y-165236998D01*
X31635023Y-165167500D01*
X31666546Y-165105145D01*
X31685842Y-165088425D01*
X31708026Y-165072891D01*
X31871401Y-164958495D01*
X32038495Y-164791401D01*
X32174035Y-164597830D01*
X32273903Y-164383663D01*
X32335063Y-164155408D01*
X32355659Y-163920000D01*
X32335063Y-163684592D01*
X32273903Y-163456337D01*
X32174035Y-163242171D01*
X32038495Y-163048599D01*
X32038494Y-163048597D01*
X31871402Y-162881506D01*
X31871401Y-162881505D01*
X31685405Y-162751269D01*
X31641781Y-162696692D01*
X31634588Y-162627193D01*
X31666110Y-162564839D01*
X31685405Y-162548119D01*
X31871082Y-162418105D01*
X32038105Y-162251082D01*
X32173600Y-162057578D01*
X32273429Y-161843492D01*
X32273432Y-161843486D01*
X32330636Y-161630000D01*
X31613347Y-161630000D01*
X31546308Y-161610315D01*
X31500553Y-161557511D01*
X31490609Y-161488353D01*
X31494369Y-161471067D01*
X31500000Y-161451888D01*
X31500000Y-161308111D01*
X31494369Y-161288933D01*
X31494370Y-161219064D01*
X31532145Y-161160286D01*
X31595701Y-161131262D01*
X31613347Y-161130000D01*
X32330636Y-161130000D01*
X32330635Y-161129999D01*
X32273432Y-160916513D01*
X32273429Y-160916507D01*
X32173600Y-160702422D01*
X32173599Y-160702420D01*
X32038113Y-160508926D01*
X32038108Y-160508920D01*
X31871078Y-160341890D01*
X31685405Y-160211879D01*
X31641780Y-160157302D01*
X31634588Y-160087804D01*
X31666110Y-160025449D01*
X31685406Y-160008730D01*
X31871401Y-159878495D01*
X31873077Y-159876819D01*
X31873995Y-159876317D01*
X31875544Y-159875018D01*
X31875805Y-159875329D01*
X31934400Y-159843334D01*
X31960758Y-159840500D01*
X32374217Y-159840500D01*
X32441256Y-159860185D01*
G37*
%TD.AperFunction*%
%TA.AperFunction,Conductor*%
G36*
X62942539Y-154520185D02*
G01*
X62988294Y-154572989D01*
X62999500Y-154624500D01*
X62999500Y-181375500D01*
X62979815Y-181442539D01*
X62927011Y-181488294D01*
X62875500Y-181499500D01*
X29124500Y-181499500D01*
X29057461Y-181479815D01*
X29011706Y-181427011D01*
X29000500Y-181375500D01*
X29000500Y-178131187D01*
X36249500Y-178131187D01*
X36259948Y-178200498D01*
X36288604Y-178390615D01*
X36288605Y-178390617D01*
X36288606Y-178390623D01*
X36365938Y-178641326D01*
X36479767Y-178877696D01*
X36479768Y-178877697D01*
X36479770Y-178877700D01*
X36479772Y-178877704D01*
X36627567Y-179094478D01*
X36627567Y-179094479D01*
X36806014Y-179286801D01*
X36806018Y-179286804D01*
X36806019Y-179286805D01*
X37011143Y-179450386D01*
X37238357Y-179581568D01*
X37482584Y-179677420D01*
X37738370Y-179735802D01*
X37738376Y-179735802D01*
X37738379Y-179735803D01*
X37934500Y-179750500D01*
X37934506Y-179750500D01*
X38065500Y-179750500D01*
X38261620Y-179735803D01*
X38261622Y-179735802D01*
X38261630Y-179735802D01*
X38517416Y-179677420D01*
X38761643Y-179581568D01*
X38988857Y-179450386D01*
X39193981Y-179286805D01*
X39372433Y-179094479D01*
X39520228Y-178877704D01*
X39634063Y-178641323D01*
X39711396Y-178390615D01*
X39750500Y-178131182D01*
X39750500Y-177868818D01*
X39711396Y-177609385D01*
X39634063Y-177358677D01*
X39598923Y-177285708D01*
X39520232Y-177122303D01*
X39520231Y-177122302D01*
X39520230Y-177122301D01*
X39520228Y-177122296D01*
X39372433Y-176905521D01*
X39250310Y-176773903D01*
X39193985Y-176713198D01*
X39144872Y-176674032D01*
X38988857Y-176549614D01*
X38761643Y-176418432D01*
X38517416Y-176322580D01*
X38517411Y-176322578D01*
X38517402Y-176322576D01*
X38292522Y-176271249D01*
X38261630Y-176264198D01*
X38261629Y-176264197D01*
X38261625Y-176264197D01*
X38261620Y-176264196D01*
X38065500Y-176249500D01*
X38065494Y-176249500D01*
X37934506Y-176249500D01*
X37934500Y-176249500D01*
X37738379Y-176264196D01*
X37738374Y-176264197D01*
X37482597Y-176322576D01*
X37482578Y-176322582D01*
X37238356Y-176418432D01*
X37011143Y-176549614D01*
X36806014Y-176713198D01*
X36627567Y-176905520D01*
X36479768Y-177122302D01*
X36479767Y-177122303D01*
X36365938Y-177358673D01*
X36288606Y-177609376D01*
X36288605Y-177609381D01*
X36288604Y-177609385D01*
X36283201Y-177645234D01*
X36249500Y-177868812D01*
X36249500Y-178131187D01*
X29000500Y-178131187D01*
X29000500Y-174080000D01*
X29644341Y-174080000D01*
X29664936Y-174315403D01*
X29664938Y-174315413D01*
X29726094Y-174543655D01*
X29726096Y-174543659D01*
X29726097Y-174543663D01*
X29772614Y-174643418D01*
X29825965Y-174757830D01*
X29825967Y-174757834D01*
X29871017Y-174822171D01*
X29961501Y-174951396D01*
X29961506Y-174951402D01*
X30083430Y-175073326D01*
X30116915Y-175134649D01*
X30111931Y-175204341D01*
X30070059Y-175260274D01*
X30039083Y-175277189D01*
X29907669Y-175326203D01*
X29907664Y-175326206D01*
X29792455Y-175412452D01*
X29792452Y-175412455D01*
X29706206Y-175527664D01*
X29706202Y-175527671D01*
X29655908Y-175662517D01*
X29649501Y-175722116D01*
X29649500Y-175722135D01*
X29649500Y-177517870D01*
X29649501Y-177517876D01*
X29655908Y-177577483D01*
X29706202Y-177712328D01*
X29706206Y-177712335D01*
X29792452Y-177827544D01*
X29792455Y-177827547D01*
X29907664Y-177913793D01*
X29907671Y-177913797D01*
X30042517Y-177964091D01*
X30042516Y-177964091D01*
X30049444Y-177964835D01*
X30102127Y-177970500D01*
X31897872Y-177970499D01*
X31957483Y-177964091D01*
X32092331Y-177913796D01*
X32207546Y-177827546D01*
X32293796Y-177712331D01*
X32297960Y-177701165D01*
X32339829Y-177645234D01*
X32405293Y-177620816D01*
X32414141Y-177620500D01*
X32867284Y-177620500D01*
X32956358Y-177622757D01*
X32956358Y-177622756D01*
X32956363Y-177622757D01*
X33016753Y-177611932D01*
X33021412Y-177611280D01*
X33063607Y-177606988D01*
X33082438Y-177605074D01*
X33115227Y-177594786D01*
X33122840Y-177592918D01*
X33156653Y-177586858D01*
X33213621Y-177564101D01*
X33218053Y-177562524D01*
X33276588Y-177544159D01*
X33306627Y-177527484D01*
X33313708Y-177524122D01*
X33345617Y-177511377D01*
X33396854Y-177477608D01*
X33400851Y-177475187D01*
X33454502Y-177445409D01*
X33480568Y-177423030D01*
X33486843Y-177418300D01*
X33515519Y-177399402D01*
X33558917Y-177356002D01*
X33562336Y-177352834D01*
X33608895Y-177312866D01*
X33629931Y-177285688D01*
X33635101Y-177279818D01*
X35698487Y-175216433D01*
X35763053Y-175155059D01*
X35798112Y-175104686D01*
X35800925Y-175100957D01*
X35839698Y-175053407D01*
X35855607Y-175022948D01*
X35859667Y-175016248D01*
X35879295Y-174988049D01*
X35903492Y-174931660D01*
X35905498Y-174927435D01*
X35933909Y-174873049D01*
X35943360Y-174840015D01*
X35945991Y-174832628D01*
X35950479Y-174822171D01*
X35959540Y-174801058D01*
X35971893Y-174740940D01*
X35973006Y-174736412D01*
X35989887Y-174677418D01*
X35992495Y-174643155D01*
X35993587Y-174635376D01*
X35994981Y-174628597D01*
X36000500Y-174601741D01*
X36000500Y-174540401D01*
X36000679Y-174535692D01*
X36005337Y-174474525D01*
X36000997Y-174440441D01*
X36000500Y-174432602D01*
X36000500Y-168500000D01*
X41094540Y-168500000D01*
X41114326Y-168688256D01*
X41114327Y-168688259D01*
X41172818Y-168868277D01*
X41172821Y-168868284D01*
X41267467Y-169032216D01*
X41363302Y-169138651D01*
X41394129Y-169172888D01*
X41547265Y-169284148D01*
X41547270Y-169284151D01*
X41720192Y-169361142D01*
X41720197Y-169361144D01*
X41905354Y-169400500D01*
X41905368Y-169400500D01*
X41908415Y-169400821D01*
X41936405Y-169407100D01*
X41945745Y-169410368D01*
X41987241Y-169415043D01*
X41994093Y-169416207D01*
X42034806Y-169425500D01*
X42080046Y-169425500D01*
X43996658Y-169425500D01*
X44063697Y-169445185D01*
X44073568Y-169452233D01*
X44079001Y-169456529D01*
X44079703Y-169456962D01*
X44080083Y-169457384D01*
X44084663Y-169461006D01*
X44084044Y-169461788D01*
X44126428Y-169508910D01*
X44137649Y-169577872D01*
X44109806Y-169641954D01*
X44084544Y-169663842D01*
X44084664Y-169663993D01*
X44081315Y-169666640D01*
X44079703Y-169668038D01*
X44079000Y-169668471D01*
X44078996Y-169668474D01*
X43955974Y-169791496D01*
X43955971Y-169791500D01*
X43864642Y-169939566D01*
X43864637Y-169939577D01*
X43809913Y-170104723D01*
X43799500Y-170206644D01*
X43799500Y-170793355D01*
X43809913Y-170895276D01*
X43864637Y-171060422D01*
X43864642Y-171060433D01*
X43955971Y-171208499D01*
X43955974Y-171208503D01*
X44078996Y-171331525D01*
X44079000Y-171331528D01*
X44227066Y-171422857D01*
X44227069Y-171422858D01*
X44227075Y-171422862D01*
X44392225Y-171477587D01*
X44494152Y-171488000D01*
X44494157Y-171488000D01*
X45505843Y-171488000D01*
X45505848Y-171488000D01*
X45607775Y-171477587D01*
X45772925Y-171422862D01*
X45921003Y-171331526D01*
X45921007Y-171331521D01*
X45926432Y-171327233D01*
X45991227Y-171301093D01*
X46003342Y-171300500D01*
X47087440Y-171300500D01*
X47154479Y-171320185D01*
X47192978Y-171359403D01*
X47230971Y-171420999D01*
X47230974Y-171421003D01*
X47353996Y-171544025D01*
X47354000Y-171544028D01*
X47502066Y-171635357D01*
X47502069Y-171635358D01*
X47502075Y-171635362D01*
X47667225Y-171690087D01*
X47769152Y-171700500D01*
X47769157Y-171700500D01*
X48355843Y-171700500D01*
X48355848Y-171700500D01*
X48457775Y-171690087D01*
X48622925Y-171635362D01*
X48771003Y-171544026D01*
X48894026Y-171421003D01*
X48894755Y-171419821D01*
X48895466Y-171419181D01*
X48898507Y-171415336D01*
X48899163Y-171415855D01*
X48946701Y-171373097D01*
X49015664Y-171361873D01*
X49079746Y-171389715D01*
X49101761Y-171415123D01*
X49101888Y-171415023D01*
X49104113Y-171417838D01*
X49105833Y-171419822D01*
X49106365Y-171420685D01*
X49106369Y-171420690D01*
X49229308Y-171543629D01*
X49377285Y-171634903D01*
X49377290Y-171634905D01*
X49542326Y-171689592D01*
X49644184Y-171699999D01*
X49644197Y-171700000D01*
X49687500Y-171700000D01*
X49687500Y-170750000D01*
X50187500Y-170750000D01*
X50187500Y-171700000D01*
X50230803Y-171700000D01*
X50230815Y-171699999D01*
X50332673Y-171689592D01*
X50497709Y-171634905D01*
X50497714Y-171634903D01*
X50645691Y-171543629D01*
X50768629Y-171420691D01*
X50859903Y-171272714D01*
X50859905Y-171272709D01*
X50914592Y-171107673D01*
X50924999Y-171005815D01*
X50925000Y-171005802D01*
X50925000Y-170750000D01*
X50187500Y-170750000D01*
X49687500Y-170750000D01*
X49687500Y-170374000D01*
X49707185Y-170306961D01*
X49759989Y-170261206D01*
X49811500Y-170250000D01*
X50925000Y-170250000D01*
X50925000Y-169994197D01*
X50924999Y-169994184D01*
X50914592Y-169892326D01*
X50859905Y-169727290D01*
X50859903Y-169727285D01*
X50768629Y-169579308D01*
X50645691Y-169456370D01*
X50497714Y-169365096D01*
X50491169Y-169362045D01*
X50492402Y-169359400D01*
X50445858Y-169327153D01*
X50419056Y-169262629D01*
X50431392Y-169193857D01*
X50478952Y-169142672D01*
X50489936Y-169136864D01*
X50494323Y-169134817D01*
X50494334Y-169134814D01*
X50643656Y-169042712D01*
X50767712Y-168918656D01*
X50859814Y-168769334D01*
X50861086Y-168765493D01*
X50862673Y-168763201D01*
X50862866Y-168762789D01*
X50862936Y-168762821D01*
X50900861Y-168708049D01*
X50965378Y-168681228D01*
X50978792Y-168680500D01*
X57847309Y-168680500D01*
X57914348Y-168700185D01*
X57948884Y-168733376D01*
X57961508Y-168751405D01*
X58128597Y-168918493D01*
X58128603Y-168918498D01*
X58216403Y-168979976D01*
X58305996Y-169042710D01*
X58314594Y-169048730D01*
X58358219Y-169103307D01*
X58365413Y-169172805D01*
X58333890Y-169235160D01*
X58314595Y-169251880D01*
X58128922Y-169381890D01*
X58128920Y-169381891D01*
X57961891Y-169548920D01*
X57961886Y-169548926D01*
X57826400Y-169742420D01*
X57826399Y-169742422D01*
X57726570Y-169956507D01*
X57726567Y-169956513D01*
X57669364Y-170169999D01*
X57669364Y-170170000D01*
X58386653Y-170170000D01*
X58453692Y-170189685D01*
X58499447Y-170242489D01*
X58509391Y-170311647D01*
X58505631Y-170328933D01*
X58500000Y-170348111D01*
X58500000Y-170491888D01*
X58505631Y-170511067D01*
X58505630Y-170580936D01*
X58467855Y-170639714D01*
X58404299Y-170668738D01*
X58386653Y-170670000D01*
X57669364Y-170670000D01*
X57726567Y-170883486D01*
X57726570Y-170883492D01*
X57826399Y-171097578D01*
X57961894Y-171291082D01*
X58128917Y-171458105D01*
X58314595Y-171588119D01*
X58358219Y-171642696D01*
X58365412Y-171712195D01*
X58333890Y-171774549D01*
X58314595Y-171791269D01*
X58128594Y-171921508D01*
X57961505Y-172088597D01*
X57825965Y-172282169D01*
X57825964Y-172282171D01*
X57726098Y-172496335D01*
X57726094Y-172496344D01*
X57664938Y-172724586D01*
X57664936Y-172724596D01*
X57644341Y-172959999D01*
X57644341Y-172960000D01*
X57664936Y-173195403D01*
X57664938Y-173195413D01*
X57726094Y-173423655D01*
X57726096Y-173423659D01*
X57726097Y-173423663D01*
X57815942Y-173616335D01*
X57825965Y-173637830D01*
X57825967Y-173637834D01*
X57961501Y-173831395D01*
X57961506Y-173831402D01*
X58128597Y-173998493D01*
X58128603Y-173998498D01*
X58314158Y-174128425D01*
X58357783Y-174183002D01*
X58364977Y-174252500D01*
X58333454Y-174314855D01*
X58314158Y-174331575D01*
X58128597Y-174461505D01*
X57961505Y-174628597D01*
X57825965Y-174822169D01*
X57825964Y-174822171D01*
X57726098Y-175036335D01*
X57726094Y-175036344D01*
X57664938Y-175264586D01*
X57664936Y-175264596D01*
X57644341Y-175499999D01*
X57644341Y-175500002D01*
X57657288Y-175647991D01*
X57643521Y-175716491D01*
X57621441Y-175746479D01*
X57204741Y-176163181D01*
X57143418Y-176196666D01*
X57117060Y-176199500D01*
X56997298Y-176199500D01*
X56930259Y-176179815D01*
X56891759Y-176140597D01*
X56889941Y-176137649D01*
X56855212Y-176081344D01*
X56731156Y-175957288D01*
X56581834Y-175865186D01*
X56415297Y-175810001D01*
X56415295Y-175810000D01*
X56312510Y-175799500D01*
X55687498Y-175799500D01*
X55687480Y-175799501D01*
X55584703Y-175810000D01*
X55584700Y-175810001D01*
X55418168Y-175865185D01*
X55418163Y-175865187D01*
X55268842Y-175957289D01*
X55175181Y-176050951D01*
X55113858Y-176084436D01*
X55044166Y-176079452D01*
X54999819Y-176050951D01*
X54906157Y-175957289D01*
X54906156Y-175957288D01*
X54756834Y-175865186D01*
X54590297Y-175810001D01*
X54590295Y-175810000D01*
X54487510Y-175799500D01*
X53862498Y-175799500D01*
X53862480Y-175799501D01*
X53759703Y-175810000D01*
X53759700Y-175810001D01*
X53593168Y-175865185D01*
X53593163Y-175865187D01*
X53443842Y-175957289D01*
X53319789Y-176081342D01*
X53283241Y-176140597D01*
X53231293Y-176187321D01*
X53177702Y-176199500D01*
X50912560Y-176199500D01*
X50845521Y-176179815D01*
X50807022Y-176140597D01*
X50769028Y-176079000D01*
X50769025Y-176078996D01*
X50646003Y-175955974D01*
X50645999Y-175955971D01*
X50497933Y-175864642D01*
X50497927Y-175864639D01*
X50497925Y-175864638D01*
X50497922Y-175864637D01*
X50332776Y-175809913D01*
X50230855Y-175799500D01*
X50230848Y-175799500D01*
X49644152Y-175799500D01*
X49644144Y-175799500D01*
X49542223Y-175809913D01*
X49377077Y-175864637D01*
X49377066Y-175864642D01*
X49229000Y-175955971D01*
X49228996Y-175955974D01*
X49105974Y-176078996D01*
X49105971Y-176079000D01*
X49105538Y-176079703D01*
X49105114Y-176080083D01*
X49101493Y-176084664D01*
X49100710Y-176084045D01*
X49053590Y-176126428D01*
X48984628Y-176137649D01*
X48920546Y-176109806D01*
X48898657Y-176084544D01*
X48898507Y-176084664D01*
X48895859Y-176081315D01*
X48894462Y-176079703D01*
X48894028Y-176079000D01*
X48894025Y-176078996D01*
X48771003Y-175955974D01*
X48770999Y-175955971D01*
X48622933Y-175864642D01*
X48622927Y-175864639D01*
X48622925Y-175864638D01*
X48622922Y-175864637D01*
X48457776Y-175809913D01*
X48355855Y-175799500D01*
X48355848Y-175799500D01*
X47982940Y-175799500D01*
X47915901Y-175779815D01*
X47895259Y-175763181D01*
X46836819Y-174704741D01*
X46803334Y-174643418D01*
X46800500Y-174617060D01*
X46800500Y-173447718D01*
X46817112Y-173385720D01*
X46827179Y-173368284D01*
X46885674Y-173188256D01*
X46905460Y-173000000D01*
X46885674Y-172811744D01*
X46827179Y-172631716D01*
X46732533Y-172467784D01*
X46605871Y-172327112D01*
X46544015Y-172282171D01*
X46452734Y-172215851D01*
X46452729Y-172215848D01*
X46279807Y-172138857D01*
X46279802Y-172138855D01*
X46134000Y-172107865D01*
X46094646Y-172099500D01*
X45905354Y-172099500D01*
X45872897Y-172106398D01*
X45720197Y-172138855D01*
X45720192Y-172138857D01*
X45547270Y-172215848D01*
X45547265Y-172215851D01*
X45394129Y-172327111D01*
X45267466Y-172467785D01*
X45172821Y-172631715D01*
X45172818Y-172631722D01*
X45122303Y-172787193D01*
X45114326Y-172811744D01*
X45094540Y-173000000D01*
X45114326Y-173188256D01*
X45114327Y-173188259D01*
X45172818Y-173368277D01*
X45172819Y-173368279D01*
X45172821Y-173368284D01*
X45182887Y-173385720D01*
X45199500Y-173447718D01*
X45199500Y-175090191D01*
X45199501Y-175090200D01*
X45208791Y-175130908D01*
X45209955Y-175137763D01*
X45214632Y-175179259D01*
X45228420Y-175218662D01*
X45230345Y-175225345D01*
X45239639Y-175266061D01*
X45257759Y-175303688D01*
X45260421Y-175310114D01*
X45274212Y-175349525D01*
X45296422Y-175384872D01*
X45299787Y-175390959D01*
X45317910Y-175428589D01*
X45343941Y-175461230D01*
X45347967Y-175466904D01*
X45370183Y-175502261D01*
X47038181Y-177170259D01*
X47071666Y-177231582D01*
X47074500Y-177257940D01*
X47074500Y-177505855D01*
X47084913Y-177607776D01*
X47139637Y-177772922D01*
X47139642Y-177772933D01*
X47230971Y-177920999D01*
X47230974Y-177921003D01*
X47353996Y-178044025D01*
X47354000Y-178044028D01*
X47502066Y-178135357D01*
X47502069Y-178135358D01*
X47502075Y-178135362D01*
X47667225Y-178190087D01*
X47769152Y-178200500D01*
X47769157Y-178200500D01*
X48355843Y-178200500D01*
X48355848Y-178200500D01*
X48457775Y-178190087D01*
X48622925Y-178135362D01*
X48771003Y-178044026D01*
X48894026Y-177921003D01*
X48894458Y-177920301D01*
X48894881Y-177919921D01*
X48898507Y-177915336D01*
X48899290Y-177915955D01*
X48946402Y-177873575D01*
X49015364Y-177862349D01*
X49079448Y-177890188D01*
X49101342Y-177915455D01*
X49101493Y-177915336D01*
X49104143Y-177918687D01*
X49105540Y-177920299D01*
X49105972Y-177920999D01*
X49105975Y-177921004D01*
X49228996Y-178044025D01*
X49229000Y-178044028D01*
X49377066Y-178135357D01*
X49377069Y-178135358D01*
X49377075Y-178135362D01*
X49542225Y-178190087D01*
X49644152Y-178200500D01*
X49644157Y-178200500D01*
X50230843Y-178200500D01*
X50230848Y-178200500D01*
X50332775Y-178190087D01*
X50497925Y-178135362D01*
X50646003Y-178044026D01*
X50769026Y-177921003D01*
X50798280Y-177873575D01*
X50807022Y-177859403D01*
X50858970Y-177812678D01*
X50912560Y-177800500D01*
X53177702Y-177800500D01*
X53244741Y-177820185D01*
X53283239Y-177859401D01*
X53319788Y-177918656D01*
X53443844Y-178042712D01*
X53593166Y-178134814D01*
X53759703Y-178189999D01*
X53862491Y-178200500D01*
X54487508Y-178200499D01*
X54487516Y-178200498D01*
X54487519Y-178200498D01*
X54543802Y-178194748D01*
X54590297Y-178189999D01*
X54756834Y-178134814D01*
X54906156Y-178042712D01*
X54999819Y-177949048D01*
X55061142Y-177915564D01*
X55130834Y-177920548D01*
X55175180Y-177949049D01*
X55268844Y-178042712D01*
X55418166Y-178134814D01*
X55584703Y-178189999D01*
X55687491Y-178200500D01*
X56312508Y-178200499D01*
X56312516Y-178200498D01*
X56312519Y-178200498D01*
X56368802Y-178194748D01*
X56415297Y-178189999D01*
X56581834Y-178134814D01*
X56731156Y-178042712D01*
X56855212Y-177918656D01*
X56891759Y-177859402D01*
X56943707Y-177812679D01*
X56997298Y-177800500D01*
X57590194Y-177800500D01*
X57630903Y-177791208D01*
X57637760Y-177790043D01*
X57679255Y-177785368D01*
X57718680Y-177771571D01*
X57725321Y-177769658D01*
X57766061Y-177760360D01*
X57803693Y-177742236D01*
X57810105Y-177739580D01*
X57849522Y-177725789D01*
X57884889Y-177703565D01*
X57890961Y-177700209D01*
X57928587Y-177682091D01*
X57961236Y-177656052D01*
X57966895Y-177652037D01*
X58002262Y-177629816D01*
X58129816Y-177502262D01*
X58188375Y-177443703D01*
X58188388Y-177443688D01*
X58753521Y-176878555D01*
X58814842Y-176845072D01*
X58852002Y-176842710D01*
X59000000Y-176855659D01*
X59000001Y-176855659D01*
X59039234Y-176852226D01*
X59235408Y-176835063D01*
X59463663Y-176773903D01*
X59677830Y-176674035D01*
X59871401Y-176538495D01*
X60038495Y-176371401D01*
X60174035Y-176177830D01*
X60273903Y-175963663D01*
X60335063Y-175735408D01*
X60355659Y-175500000D01*
X60335063Y-175264592D01*
X60273903Y-175036337D01*
X60174035Y-174822171D01*
X60159251Y-174801056D01*
X60038494Y-174628597D01*
X59871402Y-174461506D01*
X59871396Y-174461501D01*
X59685842Y-174331575D01*
X59642217Y-174276998D01*
X59635023Y-174207500D01*
X59666546Y-174145145D01*
X59685842Y-174128425D01*
X59820383Y-174034218D01*
X59871401Y-173998495D01*
X60038495Y-173831401D01*
X60174035Y-173637830D01*
X60273903Y-173423663D01*
X60335063Y-173195408D01*
X60355659Y-172960000D01*
X60335063Y-172724592D01*
X60273903Y-172496337D01*
X60174035Y-172282171D01*
X60127598Y-172215851D01*
X60038494Y-172088597D01*
X59871402Y-171921506D01*
X59871401Y-171921505D01*
X59685405Y-171791269D01*
X59641781Y-171736692D01*
X59634588Y-171667193D01*
X59666110Y-171604839D01*
X59685405Y-171588119D01*
X59871082Y-171458105D01*
X60038105Y-171291082D01*
X60173600Y-171097578D01*
X60273429Y-170883492D01*
X60273432Y-170883486D01*
X60330636Y-170670000D01*
X59613347Y-170670000D01*
X59546308Y-170650315D01*
X59500553Y-170597511D01*
X59490609Y-170528353D01*
X59494369Y-170511067D01*
X59500000Y-170491888D01*
X59500000Y-170348111D01*
X59494369Y-170328933D01*
X59494370Y-170259064D01*
X59532145Y-170200286D01*
X59595701Y-170171262D01*
X59613347Y-170170000D01*
X60330636Y-170170000D01*
X60330635Y-170169999D01*
X60273432Y-169956513D01*
X60273429Y-169956507D01*
X60173600Y-169742422D01*
X60173599Y-169742420D01*
X60038113Y-169548926D01*
X60038108Y-169548920D01*
X59871078Y-169381890D01*
X59685405Y-169251879D01*
X59641780Y-169197302D01*
X59634588Y-169127804D01*
X59666110Y-169065449D01*
X59685406Y-169048730D01*
X59694001Y-169042712D01*
X59871401Y-168918495D01*
X60038495Y-168751401D01*
X60174035Y-168557830D01*
X60273903Y-168343663D01*
X60335063Y-168115408D01*
X60355659Y-167880000D01*
X60335063Y-167644592D01*
X60273903Y-167416337D01*
X60174035Y-167202171D01*
X60172166Y-167199501D01*
X60038494Y-167008597D01*
X59871402Y-166841506D01*
X59871396Y-166841501D01*
X59685842Y-166711575D01*
X59642217Y-166656998D01*
X59635023Y-166587500D01*
X59666546Y-166525145D01*
X59685842Y-166508425D01*
X59755001Y-166459999D01*
X59871401Y-166378495D01*
X60038495Y-166211401D01*
X60174035Y-166017830D01*
X60273903Y-165803663D01*
X60335063Y-165575408D01*
X60355659Y-165340000D01*
X60335063Y-165104592D01*
X60273903Y-164876337D01*
X60174035Y-164662171D01*
X60128984Y-164597830D01*
X60038494Y-164468597D01*
X59871402Y-164301506D01*
X59871396Y-164301501D01*
X59685842Y-164171575D01*
X59642217Y-164116998D01*
X59635023Y-164047500D01*
X59666546Y-163985145D01*
X59685842Y-163968425D01*
X59755001Y-163919999D01*
X59871401Y-163838495D01*
X60038495Y-163671401D01*
X60174035Y-163477830D01*
X60273903Y-163263663D01*
X60335063Y-163035408D01*
X60355659Y-162800000D01*
X60335063Y-162564592D01*
X60273903Y-162336337D01*
X60174035Y-162122171D01*
X60038495Y-161928599D01*
X59916567Y-161806671D01*
X59883084Y-161745351D01*
X59888068Y-161675659D01*
X59929939Y-161619725D01*
X59960915Y-161602810D01*
X60092331Y-161553796D01*
X60207546Y-161467546D01*
X60293796Y-161352331D01*
X60344091Y-161217483D01*
X60350500Y-161157873D01*
X60350499Y-159362128D01*
X60344091Y-159302517D01*
X60338229Y-159286801D01*
X60293797Y-159167671D01*
X60293793Y-159167664D01*
X60207547Y-159052455D01*
X60207544Y-159052452D01*
X60092335Y-158966206D01*
X60092328Y-158966202D01*
X59957482Y-158915908D01*
X59957483Y-158915908D01*
X59897883Y-158909501D01*
X59897881Y-158909500D01*
X59897873Y-158909500D01*
X59897864Y-158909500D01*
X58102129Y-158909500D01*
X58102123Y-158909501D01*
X58042516Y-158915908D01*
X57907671Y-158966202D01*
X57907664Y-158966206D01*
X57792455Y-159052452D01*
X57792452Y-159052455D01*
X57706206Y-159167664D01*
X57706202Y-159167671D01*
X57655908Y-159302517D01*
X57649501Y-159362116D01*
X57649501Y-159362123D01*
X57649500Y-159362135D01*
X57649500Y-161157870D01*
X57649501Y-161157876D01*
X57655908Y-161217483D01*
X57706202Y-161352328D01*
X57706206Y-161352335D01*
X57792452Y-161467544D01*
X57792455Y-161467547D01*
X57907664Y-161553793D01*
X57907671Y-161553797D01*
X58039081Y-161602810D01*
X58095015Y-161644681D01*
X58119432Y-161710145D01*
X58104580Y-161778418D01*
X58083430Y-161806673D01*
X57961503Y-161928600D01*
X57825965Y-162122169D01*
X57825964Y-162122171D01*
X57726098Y-162336335D01*
X57726094Y-162336344D01*
X57664938Y-162564586D01*
X57664936Y-162564596D01*
X57644341Y-162799999D01*
X57644341Y-162800000D01*
X57664936Y-163035403D01*
X57664938Y-163035413D01*
X57726094Y-163263655D01*
X57726096Y-163263659D01*
X57726097Y-163263663D01*
X57815942Y-163456335D01*
X57825965Y-163477830D01*
X57825967Y-163477834D01*
X57961501Y-163671395D01*
X57961506Y-163671402D01*
X58128597Y-163838493D01*
X58128603Y-163838498D01*
X58314158Y-163968425D01*
X58357783Y-164023002D01*
X58364977Y-164092500D01*
X58333454Y-164154855D01*
X58314158Y-164171575D01*
X58128597Y-164301505D01*
X57961505Y-164468597D01*
X57825965Y-164662169D01*
X57825964Y-164662171D01*
X57726098Y-164876335D01*
X57726094Y-164876344D01*
X57664938Y-165104586D01*
X57664936Y-165104596D01*
X57644341Y-165339999D01*
X57644341Y-165340000D01*
X57664936Y-165575403D01*
X57664938Y-165575413D01*
X57726094Y-165803655D01*
X57726096Y-165803659D01*
X57726097Y-165803663D01*
X57815942Y-165996335D01*
X57825965Y-166017830D01*
X57825967Y-166017834D01*
X57961501Y-166211395D01*
X57961506Y-166211402D01*
X58128597Y-166378493D01*
X58128603Y-166378498D01*
X58314158Y-166508425D01*
X58357783Y-166563002D01*
X58364977Y-166632500D01*
X58333454Y-166694855D01*
X58314158Y-166711575D01*
X58128597Y-166841505D01*
X57961508Y-167008594D01*
X57948884Y-167026624D01*
X57894307Y-167070248D01*
X57847309Y-167079500D01*
X50817230Y-167079500D01*
X50750191Y-167059815D01*
X50729549Y-167043181D01*
X50643657Y-166957289D01*
X50643656Y-166957288D01*
X50494334Y-166865186D01*
X50327797Y-166810001D01*
X50327795Y-166810000D01*
X50225010Y-166799500D01*
X49599998Y-166799500D01*
X49599980Y-166799501D01*
X49497203Y-166810000D01*
X49497200Y-166810001D01*
X49330668Y-166865185D01*
X49330663Y-166865187D01*
X49181345Y-166957287D01*
X49087681Y-167050951D01*
X49026357Y-167084435D01*
X48956666Y-167079451D01*
X48912319Y-167050951D01*
X48869962Y-167008594D01*
X48818656Y-166957288D01*
X48669334Y-166865186D01*
X48502797Y-166810001D01*
X48502795Y-166810000D01*
X48400010Y-166799500D01*
X47774998Y-166799500D01*
X47774980Y-166799501D01*
X47672203Y-166810000D01*
X47672200Y-166810001D01*
X47505668Y-166865185D01*
X47505663Y-166865187D01*
X47356342Y-166957289D01*
X47232289Y-167081342D01*
X47232287Y-167081344D01*
X47232288Y-167081344D01*
X47197448Y-167137830D01*
X47195741Y-167140597D01*
X47143793Y-167187321D01*
X47090202Y-167199500D01*
X45715194Y-167199500D01*
X45534805Y-167199500D01*
X45534803Y-167199500D01*
X45534797Y-167199501D01*
X45494098Y-167208790D01*
X45487242Y-167209955D01*
X45445743Y-167214632D01*
X45406328Y-167228423D01*
X45399646Y-167230348D01*
X45358940Y-167239640D01*
X45321326Y-167257753D01*
X45314901Y-167260414D01*
X45275482Y-167274209D01*
X45275474Y-167274213D01*
X45240117Y-167296428D01*
X45234032Y-167299791D01*
X45196413Y-167317908D01*
X45196411Y-167317909D01*
X45163769Y-167343941D01*
X45158096Y-167347966D01*
X45122739Y-167370183D01*
X45032169Y-167460750D01*
X45032161Y-167460761D01*
X44892239Y-167600682D01*
X44830919Y-167634166D01*
X44804560Y-167637000D01*
X44494144Y-167637000D01*
X44392223Y-167647413D01*
X44227077Y-167702137D01*
X44227066Y-167702142D01*
X44079001Y-167793470D01*
X44073568Y-167797767D01*
X44008773Y-167823907D01*
X43996658Y-167824500D01*
X42642566Y-167824500D01*
X42575527Y-167804815D01*
X42569681Y-167800818D01*
X42452734Y-167715851D01*
X42452729Y-167715848D01*
X42279807Y-167638857D01*
X42279802Y-167638855D01*
X42134000Y-167607865D01*
X42094646Y-167599500D01*
X41905354Y-167599500D01*
X41872897Y-167606398D01*
X41720197Y-167638855D01*
X41720192Y-167638857D01*
X41547270Y-167715848D01*
X41547265Y-167715851D01*
X41394129Y-167827111D01*
X41267466Y-167967785D01*
X41172821Y-168131715D01*
X41172818Y-168131722D01*
X41114327Y-168311740D01*
X41114326Y-168311744D01*
X41094540Y-168500000D01*
X36000500Y-168500000D01*
X36000500Y-161012676D01*
X36001960Y-160955048D01*
X36002756Y-160923637D01*
X35991932Y-160863247D01*
X35991282Y-160858617D01*
X35985074Y-160797562D01*
X35974790Y-160764786D01*
X35972917Y-160757154D01*
X35966858Y-160723349D01*
X35966858Y-160723347D01*
X35944102Y-160666378D01*
X35942521Y-160661937D01*
X35924157Y-160603407D01*
X35907488Y-160573378D01*
X35904117Y-160566278D01*
X35891378Y-160534386D01*
X35891377Y-160534383D01*
X35857620Y-160483163D01*
X35855180Y-160479134D01*
X35844379Y-160459675D01*
X35825409Y-160425498D01*
X35825407Y-160425495D01*
X35803033Y-160399434D01*
X35798302Y-160393159D01*
X35779402Y-160364481D01*
X35736012Y-160321091D01*
X35732822Y-160317648D01*
X35692867Y-160271106D01*
X35692863Y-160271102D01*
X35665698Y-160250074D01*
X35659803Y-160244882D01*
X33556451Y-158141531D01*
X33546618Y-158131187D01*
X36249500Y-158131187D01*
X36269794Y-158265823D01*
X36288604Y-158390615D01*
X36288605Y-158390617D01*
X36288606Y-158390623D01*
X36365938Y-158641326D01*
X36479767Y-158877696D01*
X36479768Y-158877697D01*
X36479770Y-158877700D01*
X36479772Y-158877704D01*
X36614561Y-159075403D01*
X36627567Y-159094479D01*
X36806014Y-159286801D01*
X36806018Y-159286804D01*
X36806019Y-159286805D01*
X37011143Y-159450386D01*
X37238357Y-159581568D01*
X37482584Y-159677420D01*
X37738370Y-159735802D01*
X37738376Y-159735802D01*
X37738379Y-159735803D01*
X37934500Y-159750500D01*
X37934506Y-159750500D01*
X38065500Y-159750500D01*
X38261620Y-159735803D01*
X38261622Y-159735802D01*
X38261630Y-159735802D01*
X38517416Y-159677420D01*
X38761643Y-159581568D01*
X38988857Y-159450386D01*
X39193981Y-159286805D01*
X39372433Y-159094479D01*
X39520228Y-158877704D01*
X39634063Y-158641323D01*
X39711396Y-158390615D01*
X39750500Y-158131182D01*
X39750500Y-157868818D01*
X39711396Y-157609385D01*
X39634063Y-157358677D01*
X39622121Y-157333880D01*
X39520232Y-157122303D01*
X39520231Y-157122302D01*
X39520230Y-157122301D01*
X39520228Y-157122296D01*
X39372433Y-156905521D01*
X39362441Y-156894753D01*
X39193985Y-156713198D01*
X39154533Y-156681736D01*
X38988857Y-156549614D01*
X38761643Y-156418432D01*
X38517416Y-156322580D01*
X38517411Y-156322578D01*
X38517402Y-156322576D01*
X38299818Y-156272914D01*
X38261630Y-156264198D01*
X38261629Y-156264197D01*
X38261625Y-156264197D01*
X38261620Y-156264196D01*
X38065500Y-156249500D01*
X38065494Y-156249500D01*
X37934506Y-156249500D01*
X37934500Y-156249500D01*
X37738379Y-156264196D01*
X37738374Y-156264197D01*
X37482597Y-156322576D01*
X37482578Y-156322582D01*
X37238356Y-156418432D01*
X37011143Y-156549614D01*
X36806014Y-156713198D01*
X36627567Y-156905520D01*
X36479768Y-157122302D01*
X36479767Y-157122303D01*
X36365938Y-157358673D01*
X36288606Y-157609376D01*
X36288605Y-157609381D01*
X36288604Y-157609385D01*
X36273853Y-157707247D01*
X36249500Y-157868812D01*
X36249500Y-158131187D01*
X33546618Y-158131187D01*
X33495061Y-158076949D01*
X33495060Y-158076948D01*
X33495059Y-158076947D01*
X33467204Y-158057559D01*
X33444709Y-158041902D01*
X33440946Y-158039064D01*
X33393413Y-158000305D01*
X33393406Y-158000300D01*
X33362959Y-157984397D01*
X33356251Y-157980334D01*
X33328049Y-157960705D01*
X33328046Y-157960703D01*
X33328045Y-157960703D01*
X33328041Y-157960701D01*
X33271680Y-157936514D01*
X33267424Y-157934493D01*
X33213057Y-157906094D01*
X33213050Y-157906091D01*
X33213049Y-157906091D01*
X33207008Y-157904362D01*
X33180030Y-157896642D01*
X33172630Y-157894008D01*
X33141057Y-157880459D01*
X33141058Y-157880459D01*
X33080966Y-157868109D01*
X33076391Y-157866986D01*
X33017420Y-157850113D01*
X33017425Y-157850113D01*
X32983158Y-157847503D01*
X32975380Y-157846412D01*
X32941742Y-157839500D01*
X32941741Y-157839500D01*
X32880402Y-157839500D01*
X32875695Y-157839321D01*
X32870121Y-157838896D01*
X32814524Y-157834662D01*
X32794589Y-157837201D01*
X32780440Y-157839003D01*
X32772611Y-157839500D01*
X31960758Y-157839500D01*
X31893719Y-157819815D01*
X31873077Y-157803181D01*
X31871402Y-157801506D01*
X31871395Y-157801501D01*
X31677834Y-157665967D01*
X31677830Y-157665965D01*
X31677830Y-157665964D01*
X31463663Y-157566097D01*
X31463659Y-157566096D01*
X31463655Y-157566094D01*
X31235413Y-157504938D01*
X31235403Y-157504936D01*
X31000001Y-157484341D01*
X30999999Y-157484341D01*
X30764596Y-157504936D01*
X30764586Y-157504938D01*
X30536344Y-157566094D01*
X30536335Y-157566098D01*
X30322171Y-157665964D01*
X30322169Y-157665965D01*
X30128597Y-157801505D01*
X29961505Y-157968597D01*
X29825965Y-158162169D01*
X29825964Y-158162171D01*
X29726098Y-158376335D01*
X29726094Y-158376344D01*
X29664938Y-158604586D01*
X29664936Y-158604596D01*
X29644341Y-158839999D01*
X29644341Y-158840000D01*
X29664936Y-159075403D01*
X29664938Y-159075413D01*
X29726094Y-159303655D01*
X29726096Y-159303659D01*
X29726097Y-159303663D01*
X29753363Y-159362135D01*
X29825965Y-159517830D01*
X29825967Y-159517834D01*
X29961501Y-159711395D01*
X29961506Y-159711402D01*
X30128597Y-159878493D01*
X30128603Y-159878498D01*
X30314594Y-160008730D01*
X30358219Y-160063307D01*
X30365413Y-160132805D01*
X30333890Y-160195160D01*
X30314595Y-160211880D01*
X30128922Y-160341890D01*
X30128920Y-160341891D01*
X29961891Y-160508920D01*
X29961886Y-160508926D01*
X29826400Y-160702420D01*
X29826399Y-160702422D01*
X29726570Y-160916507D01*
X29726567Y-160916513D01*
X29669364Y-161129999D01*
X29669364Y-161130000D01*
X30386653Y-161130000D01*
X30453692Y-161149685D01*
X30499447Y-161202489D01*
X30509391Y-161271647D01*
X30505631Y-161288933D01*
X30500000Y-161308111D01*
X30500000Y-161451888D01*
X30505631Y-161471067D01*
X30505630Y-161540936D01*
X30467855Y-161599714D01*
X30404299Y-161628738D01*
X30386653Y-161630000D01*
X29669364Y-161630000D01*
X29726567Y-161843486D01*
X29726570Y-161843492D01*
X29826399Y-162057578D01*
X29961894Y-162251082D01*
X30128917Y-162418105D01*
X30314595Y-162548119D01*
X30358219Y-162602696D01*
X30365412Y-162672195D01*
X30333890Y-162734549D01*
X30314595Y-162751269D01*
X30128594Y-162881508D01*
X29961505Y-163048597D01*
X29825965Y-163242169D01*
X29825964Y-163242171D01*
X29726098Y-163456335D01*
X29726094Y-163456344D01*
X29664938Y-163684586D01*
X29664936Y-163684596D01*
X29644341Y-163919999D01*
X29644341Y-163920000D01*
X29664936Y-164155403D01*
X29664938Y-164155413D01*
X29726094Y-164383655D01*
X29726096Y-164383659D01*
X29726097Y-164383663D01*
X29825964Y-164597830D01*
X29825965Y-164597830D01*
X29825967Y-164597834D01*
X29961501Y-164791395D01*
X29961506Y-164791402D01*
X30128597Y-164958493D01*
X30128603Y-164958498D01*
X30314158Y-165088425D01*
X30357783Y-165143002D01*
X30364977Y-165212500D01*
X30333454Y-165274855D01*
X30314158Y-165291575D01*
X30128597Y-165421505D01*
X29961505Y-165588597D01*
X29825965Y-165782169D01*
X29825964Y-165782171D01*
X29726098Y-165996335D01*
X29726094Y-165996344D01*
X29664938Y-166224586D01*
X29664936Y-166224596D01*
X29644341Y-166459999D01*
X29644341Y-166460000D01*
X29664936Y-166695403D01*
X29664938Y-166695413D01*
X29726094Y-166923655D01*
X29726096Y-166923659D01*
X29726097Y-166923663D01*
X29825964Y-167137829D01*
X29825965Y-167137830D01*
X29825967Y-167137834D01*
X29961501Y-167331395D01*
X29961506Y-167331402D01*
X30128597Y-167498493D01*
X30128603Y-167498498D01*
X30314158Y-167628425D01*
X30357783Y-167683002D01*
X30364977Y-167752500D01*
X30333454Y-167814855D01*
X30314158Y-167831575D01*
X30128597Y-167961505D01*
X29961505Y-168128597D01*
X29825965Y-168322169D01*
X29825964Y-168322171D01*
X29726098Y-168536335D01*
X29726094Y-168536344D01*
X29664938Y-168764586D01*
X29664936Y-168764596D01*
X29644341Y-168999999D01*
X29644341Y-169000000D01*
X29664936Y-169235403D01*
X29664938Y-169235413D01*
X29726094Y-169463655D01*
X29726096Y-169463659D01*
X29726097Y-169463663D01*
X29782521Y-169584664D01*
X29825965Y-169677830D01*
X29825967Y-169677834D01*
X29961501Y-169871395D01*
X29961506Y-169871402D01*
X30128597Y-170038493D01*
X30128603Y-170038498D01*
X30314594Y-170168730D01*
X30358219Y-170223307D01*
X30365413Y-170292805D01*
X30333890Y-170355160D01*
X30314595Y-170371880D01*
X30128922Y-170501890D01*
X30128920Y-170501891D01*
X29961891Y-170668920D01*
X29961886Y-170668926D01*
X29826400Y-170862420D01*
X29826399Y-170862422D01*
X29726570Y-171076507D01*
X29726567Y-171076513D01*
X29669364Y-171289999D01*
X29669364Y-171290000D01*
X30386653Y-171290000D01*
X30453692Y-171309685D01*
X30499447Y-171362489D01*
X30509391Y-171431647D01*
X30505631Y-171448933D01*
X30500000Y-171468111D01*
X30500000Y-171611888D01*
X30505631Y-171631067D01*
X30505630Y-171700936D01*
X30467855Y-171759714D01*
X30404299Y-171788738D01*
X30386653Y-171790000D01*
X29669364Y-171790000D01*
X29726567Y-172003486D01*
X29726570Y-172003492D01*
X29826399Y-172217578D01*
X29961894Y-172411082D01*
X30128917Y-172578105D01*
X30314595Y-172708119D01*
X30358219Y-172762696D01*
X30365412Y-172832195D01*
X30333890Y-172894549D01*
X30314595Y-172911269D01*
X30128594Y-173041508D01*
X29961505Y-173208597D01*
X29825965Y-173402169D01*
X29825964Y-173402171D01*
X29726098Y-173616335D01*
X29726094Y-173616344D01*
X29664938Y-173844586D01*
X29664936Y-173844596D01*
X29644341Y-174079999D01*
X29644341Y-174080000D01*
X29000500Y-174080000D01*
X29000500Y-154624500D01*
X29020185Y-154557461D01*
X29072989Y-154511706D01*
X29124500Y-154500500D01*
X62875500Y-154500500D01*
X62942539Y-154520185D01*
G37*
%TD.AperFunction*%
%TD*%
M02*
