%TF.GenerationSoftware,KiCad,Pcbnew,7.0.7-7.0.7~ubuntu20.04.1*%
%TF.CreationDate,2023-08-31T15:52:28+01:00*%
%TF.ProjectId,hot-end-connector,686f742d-656e-4642-9d63-6f6e6e656374,rev?*%
%TF.SameCoordinates,Original*%
%TF.FileFunction,Copper,L2,Bot*%
%TF.FilePolarity,Positive*%
%FSLAX46Y46*%
G04 Gerber Fmt 4.6, Leading zero omitted, Abs format (unit mm)*
G04 Created by KiCad (PCBNEW 7.0.7-7.0.7~ubuntu20.04.1) date 2023-08-31 15:52:28*
%MOMM*%
%LPD*%
G01*
G04 APERTURE LIST*
%TA.AperFunction,ComponentPad*%
%ADD10R,1.700000X1.700000*%
%TD*%
%TA.AperFunction,ComponentPad*%
%ADD11O,1.700000X1.700000*%
%TD*%
%TA.AperFunction,ViaPad*%
%ADD12C,0.800000*%
%TD*%
%TA.AperFunction,Conductor*%
%ADD13C,1.500000*%
%TD*%
%TA.AperFunction,Conductor*%
%ADD14C,0.600000*%
%TD*%
G04 APERTURE END LIST*
D10*
%TO.P,J1,1,Pin_1*%
%TO.N,/T-b*%
X59000000Y-160260000D03*
D11*
%TO.P,J1,2,Pin_2*%
%TO.N,/T-a*%
X59000000Y-162800000D03*
%TO.P,J1,3,Pin_3*%
%TO.N,/probe*%
X59000000Y-165340000D03*
%TO.P,J1,4,Pin_4*%
%TO.N,/+3V3*%
X59000000Y-167880000D03*
%TO.P,J1,5,Pin_5*%
%TO.N,/GND*%
X59000000Y-170420000D03*
%TO.P,J1,6,Pin_6*%
%TO.N,/H-*%
X59000000Y-172960000D03*
%TO.P,J1,7,Pin_7*%
%TO.N,/+12V*%
X59000000Y-175500000D03*
%TD*%
D10*
%TO.P,J2,1,Pin_1*%
%TO.N,/+12V*%
X31000000Y-176620000D03*
D11*
%TO.P,J2,2,Pin_2*%
%TO.N,/H-*%
X31000000Y-174080000D03*
%TO.P,J2,3,Pin_3*%
%TO.N,/GND*%
X31000000Y-171540000D03*
%TO.P,J2,4,Pin_4*%
%TO.N,/probe*%
X31000000Y-169000000D03*
%TO.P,J2,5,Pin_5*%
%TO.N,/T-a*%
X31000000Y-166460000D03*
%TO.P,J2,6,Pin_6*%
%TO.N,/T-b*%
X31000000Y-163920000D03*
%TO.P,J2,7,Pin_7*%
%TO.N,/GND*%
X31000000Y-161380000D03*
%TO.P,J2,8,Pin_8*%
%TO.N,/+12V*%
X31000000Y-158840000D03*
%TD*%
D12*
%TO.N,/H-*%
X46000000Y-173000000D03*
%TO.N,/probe*%
X42000000Y-168500000D03*
%TD*%
D13*
%TO.N,/H-*%
X41500000Y-172500000D02*
X35000000Y-172500000D01*
X33420000Y-174080000D02*
X31000000Y-174080000D01*
X35000000Y-172500000D02*
X33420000Y-174080000D01*
X46000000Y-173000000D02*
X45960000Y-172960000D01*
X59000000Y-172960000D02*
X46040000Y-172960000D01*
X41960000Y-172960000D02*
X41500000Y-172500000D01*
X46040000Y-172960000D02*
X46000000Y-173000000D01*
X45960000Y-172960000D02*
X41960000Y-172960000D01*
%TO.N,/GND*%
X59000000Y-170420000D02*
X34080000Y-170420000D01*
X34080000Y-170420000D02*
X32960000Y-171540000D01*
X32960000Y-171540000D02*
X31000000Y-171540000D01*
D14*
%TO.N,/probe*%
X54660000Y-165340000D02*
X51500000Y-168500000D01*
X59000000Y-165340000D02*
X54660000Y-165340000D01*
X31500000Y-168500000D02*
X31000000Y-169000000D01*
X42000000Y-168500000D02*
X31500000Y-168500000D01*
X51500000Y-168500000D02*
X42000000Y-168500000D01*
%TO.N,/T-b*%
X31000000Y-163920000D02*
X50580000Y-163920000D01*
X50580000Y-163920000D02*
X54240000Y-160260000D01*
X54240000Y-160260000D02*
X59000000Y-160260000D01*
%TO.N,/T-a*%
X51040000Y-166460000D02*
X54700000Y-162800000D01*
X31000000Y-166460000D02*
X51040000Y-166460000D01*
X54700000Y-162800000D02*
X59000000Y-162800000D01*
D13*
%TO.N,/+12V*%
X40500000Y-174500000D02*
X36000000Y-174500000D01*
X36000000Y-174500000D02*
X33880000Y-176620000D01*
X33880000Y-176620000D02*
X31000000Y-176620000D01*
X59000000Y-175500000D02*
X41500000Y-175500000D01*
X41500000Y-175500000D02*
X40500000Y-174500000D01*
%TD*%
%TA.AperFunction,Conductor*%
%TO.N,/GND*%
G36*
X57914348Y-166160185D02*
G01*
X57948884Y-166193376D01*
X57961508Y-166211405D01*
X58128597Y-166378493D01*
X58128603Y-166378498D01*
X58314158Y-166508425D01*
X58357783Y-166563002D01*
X58364977Y-166632500D01*
X58333454Y-166694855D01*
X58314158Y-166711575D01*
X58128597Y-166841505D01*
X57961505Y-167008597D01*
X57825965Y-167202169D01*
X57825964Y-167202171D01*
X57726098Y-167416335D01*
X57726094Y-167416344D01*
X57664938Y-167644586D01*
X57664936Y-167644596D01*
X57644341Y-167879999D01*
X57644341Y-167880000D01*
X57664936Y-168115403D01*
X57664938Y-168115413D01*
X57726094Y-168343655D01*
X57726096Y-168343659D01*
X57726097Y-168343663D01*
X57815942Y-168536335D01*
X57825965Y-168557830D01*
X57825967Y-168557834D01*
X57961501Y-168751395D01*
X57961506Y-168751402D01*
X58128597Y-168918493D01*
X58128603Y-168918498D01*
X58314594Y-169048730D01*
X58358219Y-169103307D01*
X58365413Y-169172805D01*
X58333890Y-169235160D01*
X58314595Y-169251880D01*
X58128922Y-169381890D01*
X58128920Y-169381891D01*
X57961891Y-169548920D01*
X57961886Y-169548926D01*
X57826400Y-169742420D01*
X57826399Y-169742422D01*
X57726570Y-169956507D01*
X57726567Y-169956513D01*
X57669364Y-170169999D01*
X57669364Y-170170000D01*
X58386653Y-170170000D01*
X58453692Y-170189685D01*
X58499447Y-170242489D01*
X58509391Y-170311647D01*
X58505631Y-170328933D01*
X58500000Y-170348111D01*
X58500000Y-170491888D01*
X58505631Y-170511067D01*
X58505630Y-170580936D01*
X58467855Y-170639714D01*
X58404299Y-170668738D01*
X58386653Y-170670000D01*
X57669364Y-170670000D01*
X57726567Y-170883486D01*
X57726570Y-170883492D01*
X57826399Y-171097578D01*
X57961894Y-171291082D01*
X58128921Y-171458109D01*
X58165791Y-171483926D01*
X58209416Y-171538503D01*
X58216608Y-171608001D01*
X58185086Y-171670356D01*
X58124856Y-171705769D01*
X58094667Y-171709500D01*
X46113707Y-171709500D01*
X46106768Y-171709110D01*
X46083477Y-171706486D01*
X46068176Y-171704762D01*
X46068168Y-171704761D01*
X46031432Y-171707238D01*
X46025184Y-171707659D01*
X46022417Y-171707783D01*
X45945978Y-171709500D01*
X42529336Y-171709500D01*
X42462297Y-171689815D01*
X42441655Y-171673181D01*
X42436356Y-171667882D01*
X42431719Y-171662693D01*
X42407507Y-171632332D01*
X42356031Y-171587359D01*
X42352997Y-171584523D01*
X42344529Y-171576055D01*
X42312181Y-171549049D01*
X42237996Y-171484235D01*
X42234241Y-171481991D01*
X42218373Y-171470732D01*
X42215019Y-171467932D01*
X42215018Y-171467931D01*
X42215013Y-171467927D01*
X42147614Y-171429685D01*
X42129340Y-171419316D01*
X42073540Y-171385977D01*
X42044761Y-171368783D01*
X42040669Y-171367248D01*
X42023044Y-171359002D01*
X42019245Y-171356846D01*
X41926253Y-171324307D01*
X41834029Y-171289694D01*
X41834019Y-171289691D01*
X41829723Y-171288912D01*
X41810918Y-171283949D01*
X41806784Y-171282502D01*
X41806779Y-171282501D01*
X41709472Y-171267089D01*
X41612550Y-171249500D01*
X41612547Y-171249500D01*
X41608172Y-171249500D01*
X41588769Y-171247972D01*
X41584460Y-171247289D01*
X41485978Y-171249500D01*
X35073697Y-171249500D01*
X35066758Y-171249110D01*
X35039907Y-171246085D01*
X35028174Y-171244763D01*
X35028168Y-171244762D01*
X34982704Y-171247828D01*
X34959976Y-171249360D01*
X34955823Y-171249500D01*
X34943840Y-171249500D01*
X34901857Y-171253278D01*
X34803589Y-171259903D01*
X34799348Y-171260972D01*
X34780175Y-171264230D01*
X34775812Y-171264622D01*
X34775806Y-171264624D01*
X34680844Y-171290832D01*
X34585315Y-171314903D01*
X34585312Y-171314904D01*
X34581319Y-171316718D01*
X34563059Y-171323338D01*
X34558850Y-171324500D01*
X34558826Y-171324508D01*
X34470071Y-171367250D01*
X34380373Y-171407993D01*
X34380366Y-171407997D01*
X34376772Y-171410487D01*
X34359978Y-171420267D01*
X34356033Y-171422167D01*
X34356027Y-171422170D01*
X34276318Y-171480082D01*
X34195348Y-171536178D01*
X34195342Y-171536183D01*
X34192239Y-171539286D01*
X34177465Y-171551903D01*
X34173928Y-171554473D01*
X34173921Y-171554478D01*
X34143789Y-171585994D01*
X34105846Y-171625679D01*
X33513948Y-172217578D01*
X32938345Y-172793181D01*
X32877022Y-172826666D01*
X32850664Y-172829500D01*
X31905333Y-172829500D01*
X31838294Y-172809815D01*
X31792539Y-172757011D01*
X31782595Y-172687853D01*
X31811620Y-172624297D01*
X31834209Y-172603926D01*
X31871078Y-172578109D01*
X32038105Y-172411082D01*
X32173600Y-172217578D01*
X32273429Y-172003492D01*
X32273432Y-172003486D01*
X32330636Y-171790000D01*
X31613347Y-171790000D01*
X31546308Y-171770315D01*
X31500553Y-171717511D01*
X31490609Y-171648353D01*
X31494369Y-171631067D01*
X31500000Y-171611888D01*
X31500000Y-171468111D01*
X31494369Y-171448933D01*
X31494370Y-171379064D01*
X31532145Y-171320286D01*
X31595701Y-171291262D01*
X31613347Y-171290000D01*
X32330636Y-171290000D01*
X32330635Y-171289999D01*
X32273432Y-171076513D01*
X32273429Y-171076507D01*
X32173600Y-170862422D01*
X32173599Y-170862420D01*
X32038113Y-170668926D01*
X32038108Y-170668920D01*
X31871078Y-170501890D01*
X31685405Y-170371879D01*
X31641780Y-170317302D01*
X31634588Y-170247804D01*
X31666110Y-170185449D01*
X31685406Y-170168730D01*
X31871401Y-170038495D01*
X32038495Y-169871401D01*
X32174035Y-169677830D01*
X32273903Y-169463663D01*
X32292995Y-169392407D01*
X32329361Y-169332746D01*
X32392208Y-169302217D01*
X32412771Y-169300500D01*
X41557633Y-169300500D01*
X41608069Y-169311221D01*
X41720192Y-169361142D01*
X41720197Y-169361144D01*
X41905354Y-169400500D01*
X41905355Y-169400500D01*
X42094644Y-169400500D01*
X42094646Y-169400500D01*
X42279803Y-169361144D01*
X42391930Y-169311221D01*
X42442367Y-169300500D01*
X51590194Y-169300500D01*
X51630903Y-169291208D01*
X51637760Y-169290043D01*
X51679255Y-169285368D01*
X51718680Y-169271571D01*
X51725321Y-169269658D01*
X51766061Y-169260360D01*
X51803693Y-169242236D01*
X51810105Y-169239580D01*
X51849522Y-169225789D01*
X51884889Y-169203565D01*
X51890961Y-169200209D01*
X51928587Y-169182091D01*
X51961236Y-169156052D01*
X51966895Y-169152037D01*
X52002262Y-169129816D01*
X52129816Y-169002262D01*
X52129816Y-169002261D01*
X54955258Y-166176819D01*
X55016582Y-166143334D01*
X55042940Y-166140500D01*
X57847309Y-166140500D01*
X57914348Y-166160185D01*
G37*
%TD.AperFunction*%
%TA.AperFunction,Conductor*%
G36*
X62942539Y-154520185D02*
G01*
X62988294Y-154572989D01*
X62999500Y-154624500D01*
X62999500Y-181375500D01*
X62979815Y-181442539D01*
X62927011Y-181488294D01*
X62875500Y-181499500D01*
X29124500Y-181499500D01*
X29057461Y-181479815D01*
X29011706Y-181427011D01*
X29000500Y-181375500D01*
X29000500Y-178131187D01*
X36249500Y-178131187D01*
X36269794Y-178265823D01*
X36288604Y-178390615D01*
X36288605Y-178390617D01*
X36288606Y-178390623D01*
X36365938Y-178641326D01*
X36479767Y-178877696D01*
X36479768Y-178877697D01*
X36479770Y-178877700D01*
X36479772Y-178877704D01*
X36627567Y-179094478D01*
X36627567Y-179094479D01*
X36806014Y-179286801D01*
X36806018Y-179286804D01*
X36806019Y-179286805D01*
X37011143Y-179450386D01*
X37238357Y-179581568D01*
X37482584Y-179677420D01*
X37738370Y-179735802D01*
X37738376Y-179735802D01*
X37738379Y-179735803D01*
X37934500Y-179750500D01*
X37934506Y-179750500D01*
X38065500Y-179750500D01*
X38261620Y-179735803D01*
X38261622Y-179735802D01*
X38261630Y-179735802D01*
X38517416Y-179677420D01*
X38761643Y-179581568D01*
X38988857Y-179450386D01*
X39193981Y-179286805D01*
X39372433Y-179094479D01*
X39520228Y-178877704D01*
X39634063Y-178641323D01*
X39711396Y-178390615D01*
X39750500Y-178131182D01*
X39750500Y-177868818D01*
X39711396Y-177609385D01*
X39634063Y-177358677D01*
X39622121Y-177333880D01*
X39520232Y-177122303D01*
X39520231Y-177122302D01*
X39520230Y-177122301D01*
X39520228Y-177122296D01*
X39372433Y-176905521D01*
X39250310Y-176773903D01*
X39193985Y-176713198D01*
X39154533Y-176681736D01*
X38988857Y-176549614D01*
X38761643Y-176418432D01*
X38517416Y-176322580D01*
X38517411Y-176322578D01*
X38517402Y-176322576D01*
X38299818Y-176272914D01*
X38261630Y-176264198D01*
X38261629Y-176264197D01*
X38261625Y-176264197D01*
X38261620Y-176264196D01*
X38065500Y-176249500D01*
X38065494Y-176249500D01*
X37934506Y-176249500D01*
X37934500Y-176249500D01*
X37738379Y-176264196D01*
X37738374Y-176264197D01*
X37482597Y-176322576D01*
X37482578Y-176322582D01*
X37238356Y-176418432D01*
X37011143Y-176549614D01*
X36806014Y-176713198D01*
X36627567Y-176905520D01*
X36479768Y-177122302D01*
X36479767Y-177122303D01*
X36365938Y-177358673D01*
X36288606Y-177609376D01*
X36288605Y-177609381D01*
X36288604Y-177609385D01*
X36275274Y-177697823D01*
X36249500Y-177868812D01*
X36249500Y-178131187D01*
X29000500Y-178131187D01*
X29000500Y-174080000D01*
X29644341Y-174080000D01*
X29664936Y-174315403D01*
X29664938Y-174315413D01*
X29726094Y-174543655D01*
X29726096Y-174543659D01*
X29726097Y-174543663D01*
X29825964Y-174757829D01*
X29825965Y-174757830D01*
X29825967Y-174757834D01*
X29961501Y-174951395D01*
X29961506Y-174951402D01*
X30083430Y-175073326D01*
X30116915Y-175134649D01*
X30111931Y-175204341D01*
X30070059Y-175260274D01*
X30039083Y-175277189D01*
X29907669Y-175326203D01*
X29907664Y-175326206D01*
X29792455Y-175412452D01*
X29792452Y-175412455D01*
X29706206Y-175527664D01*
X29706202Y-175527671D01*
X29655908Y-175662517D01*
X29649501Y-175722116D01*
X29649500Y-175722135D01*
X29649500Y-177517870D01*
X29649501Y-177517876D01*
X29655908Y-177577483D01*
X29706202Y-177712328D01*
X29706206Y-177712335D01*
X29792452Y-177827544D01*
X29792455Y-177827547D01*
X29907664Y-177913793D01*
X29907671Y-177913797D01*
X30042517Y-177964091D01*
X30042516Y-177964091D01*
X30049444Y-177964835D01*
X30102127Y-177970500D01*
X31897872Y-177970499D01*
X31957483Y-177964091D01*
X32092331Y-177913796D01*
X32117127Y-177895233D01*
X32182592Y-177870816D01*
X32191439Y-177870500D01*
X33806293Y-177870500D01*
X33813231Y-177870889D01*
X33851827Y-177875238D01*
X33851829Y-177875237D01*
X33851830Y-177875238D01*
X33869586Y-177874040D01*
X33920032Y-177870639D01*
X33924188Y-177870500D01*
X33936147Y-177870500D01*
X33936155Y-177870500D01*
X33978123Y-177866722D01*
X34076412Y-177860096D01*
X34080646Y-177859028D01*
X34099841Y-177855767D01*
X34104188Y-177855377D01*
X34199165Y-177829164D01*
X34294683Y-177805096D01*
X34298655Y-177803291D01*
X34316962Y-177796654D01*
X34321170Y-177795493D01*
X34409935Y-177752746D01*
X34499626Y-177712007D01*
X34503220Y-177709516D01*
X34520035Y-177699724D01*
X34523973Y-177697829D01*
X34603676Y-177639921D01*
X34684654Y-177583820D01*
X34687743Y-177580730D01*
X34702545Y-177568088D01*
X34706078Y-177565522D01*
X34774153Y-177494320D01*
X36481654Y-175786819D01*
X36542978Y-175753334D01*
X36569336Y-175750500D01*
X39930664Y-175750500D01*
X39997703Y-175770185D01*
X40018345Y-175786819D01*
X40563642Y-176332116D01*
X40568279Y-176337304D01*
X40592492Y-176367666D01*
X40643967Y-176412639D01*
X40647000Y-176415474D01*
X40655471Y-176423945D01*
X40687819Y-176450951D01*
X40762004Y-176515765D01*
X40765753Y-176518005D01*
X40781622Y-176529264D01*
X40784980Y-176532067D01*
X40784983Y-176532070D01*
X40796312Y-176538498D01*
X40870673Y-176580691D01*
X40955236Y-176631215D01*
X40959322Y-176632748D01*
X40976956Y-176640997D01*
X40980756Y-176643154D01*
X41073755Y-176675695D01*
X41165976Y-176710307D01*
X41170266Y-176711085D01*
X41189094Y-176716055D01*
X41193218Y-176717498D01*
X41290539Y-176732912D01*
X41322843Y-176738774D01*
X41387451Y-176750500D01*
X41387453Y-176750500D01*
X41391822Y-176750500D01*
X41411220Y-176752026D01*
X41415541Y-176752711D01*
X41514048Y-176750500D01*
X58458659Y-176750500D01*
X58511063Y-176762118D01*
X58536330Y-176773900D01*
X58536332Y-176773900D01*
X58536337Y-176773903D01*
X58764592Y-176835063D01*
X58952918Y-176851539D01*
X58999999Y-176855659D01*
X59000000Y-176855659D01*
X59000001Y-176855659D01*
X59039234Y-176852226D01*
X59235408Y-176835063D01*
X59463663Y-176773903D01*
X59677830Y-176674035D01*
X59871401Y-176538495D01*
X60038495Y-176371401D01*
X60174035Y-176177830D01*
X60273903Y-175963663D01*
X60335063Y-175735408D01*
X60355659Y-175500000D01*
X60335063Y-175264592D01*
X60273903Y-175036337D01*
X60174035Y-174822171D01*
X60128984Y-174757830D01*
X60038494Y-174628597D01*
X59871402Y-174461506D01*
X59871396Y-174461501D01*
X59685842Y-174331575D01*
X59642217Y-174276998D01*
X59635023Y-174207500D01*
X59666546Y-174145145D01*
X59685842Y-174128425D01*
X59755001Y-174079999D01*
X59871401Y-173998495D01*
X60038495Y-173831401D01*
X60174035Y-173637830D01*
X60273903Y-173423663D01*
X60335063Y-173195408D01*
X60355659Y-172960000D01*
X60335063Y-172724592D01*
X60273903Y-172496337D01*
X60174035Y-172282171D01*
X60038495Y-172088599D01*
X60038494Y-172088597D01*
X59871402Y-171921506D01*
X59871401Y-171921505D01*
X59685405Y-171791269D01*
X59641781Y-171736692D01*
X59634588Y-171667193D01*
X59666110Y-171604839D01*
X59685405Y-171588119D01*
X59871082Y-171458105D01*
X60038105Y-171291082D01*
X60173600Y-171097578D01*
X60273429Y-170883492D01*
X60273432Y-170883486D01*
X60330636Y-170670000D01*
X59613347Y-170670000D01*
X59546308Y-170650315D01*
X59500553Y-170597511D01*
X59490609Y-170528353D01*
X59494369Y-170511067D01*
X59500000Y-170491888D01*
X59500000Y-170348111D01*
X59494369Y-170328933D01*
X59494370Y-170259064D01*
X59532145Y-170200286D01*
X59595701Y-170171262D01*
X59613347Y-170170000D01*
X60330636Y-170170000D01*
X60330635Y-170169999D01*
X60273432Y-169956513D01*
X60273429Y-169956507D01*
X60173600Y-169742422D01*
X60173599Y-169742420D01*
X60038113Y-169548926D01*
X60038108Y-169548920D01*
X59871078Y-169381890D01*
X59685405Y-169251879D01*
X59641780Y-169197302D01*
X59634588Y-169127804D01*
X59666110Y-169065449D01*
X59685406Y-169048730D01*
X59751769Y-169002262D01*
X59871401Y-168918495D01*
X60038495Y-168751401D01*
X60174035Y-168557830D01*
X60273903Y-168343663D01*
X60335063Y-168115408D01*
X60355659Y-167880000D01*
X60335063Y-167644592D01*
X60273903Y-167416337D01*
X60174035Y-167202171D01*
X60162565Y-167185789D01*
X60038494Y-167008597D01*
X59871402Y-166841506D01*
X59871396Y-166841501D01*
X59685842Y-166711575D01*
X59642217Y-166656998D01*
X59635023Y-166587500D01*
X59666546Y-166525145D01*
X59685842Y-166508425D01*
X59755001Y-166459999D01*
X59871401Y-166378495D01*
X60038495Y-166211401D01*
X60174035Y-166017830D01*
X60273903Y-165803663D01*
X60335063Y-165575408D01*
X60355659Y-165340000D01*
X60335063Y-165104592D01*
X60273903Y-164876337D01*
X60174035Y-164662171D01*
X60172220Y-164659578D01*
X60038494Y-164468597D01*
X59871402Y-164301506D01*
X59871396Y-164301501D01*
X59685842Y-164171575D01*
X59642217Y-164116998D01*
X59635023Y-164047500D01*
X59666546Y-163985145D01*
X59685842Y-163968425D01*
X59755001Y-163919999D01*
X59871401Y-163838495D01*
X60038495Y-163671401D01*
X60174035Y-163477830D01*
X60273903Y-163263663D01*
X60335063Y-163035408D01*
X60355659Y-162800000D01*
X60335063Y-162564592D01*
X60273903Y-162336337D01*
X60174035Y-162122171D01*
X60140453Y-162074211D01*
X60038496Y-161928600D01*
X59989896Y-161880000D01*
X59916567Y-161806671D01*
X59883084Y-161745351D01*
X59888068Y-161675659D01*
X59929939Y-161619725D01*
X59960915Y-161602810D01*
X60092331Y-161553796D01*
X60207546Y-161467546D01*
X60293796Y-161352331D01*
X60344091Y-161217483D01*
X60350500Y-161157873D01*
X60350499Y-159362128D01*
X60344091Y-159302517D01*
X60338229Y-159286801D01*
X60293797Y-159167671D01*
X60293793Y-159167664D01*
X60207547Y-159052455D01*
X60207544Y-159052452D01*
X60092335Y-158966206D01*
X60092328Y-158966202D01*
X59957482Y-158915908D01*
X59957483Y-158915908D01*
X59897883Y-158909501D01*
X59897881Y-158909500D01*
X59897873Y-158909500D01*
X59897864Y-158909500D01*
X58102129Y-158909500D01*
X58102123Y-158909501D01*
X58042516Y-158915908D01*
X57907671Y-158966202D01*
X57907664Y-158966206D01*
X57792455Y-159052452D01*
X57792452Y-159052455D01*
X57706206Y-159167664D01*
X57706202Y-159167671D01*
X57661769Y-159286805D01*
X57655909Y-159302517D01*
X57650937Y-159348757D01*
X57624201Y-159413306D01*
X57566809Y-159453154D01*
X57527649Y-159459500D01*
X54330195Y-159459500D01*
X54149806Y-159459500D01*
X54143888Y-159460850D01*
X54109089Y-159468791D01*
X54102235Y-159469955D01*
X54060743Y-159474632D01*
X54021339Y-159488419D01*
X54014658Y-159490344D01*
X53973935Y-159499641D01*
X53936308Y-159517759D01*
X53929885Y-159520420D01*
X53890481Y-159534210D01*
X53890475Y-159534212D01*
X53855122Y-159556425D01*
X53849036Y-159559789D01*
X53811417Y-159577905D01*
X53778763Y-159603945D01*
X53773091Y-159607969D01*
X53737743Y-159630180D01*
X53737740Y-159630182D01*
X53647165Y-159720754D01*
X53647161Y-159720760D01*
X50284741Y-163083181D01*
X50223418Y-163116666D01*
X50197060Y-163119500D01*
X32152691Y-163119500D01*
X32085652Y-163099815D01*
X32051116Y-163066624D01*
X32038491Y-163048594D01*
X31871402Y-162881506D01*
X31871401Y-162881505D01*
X31685405Y-162751269D01*
X31641781Y-162696692D01*
X31634588Y-162627193D01*
X31666110Y-162564839D01*
X31685405Y-162548119D01*
X31871082Y-162418105D01*
X32038105Y-162251082D01*
X32173600Y-162057578D01*
X32273429Y-161843492D01*
X32273432Y-161843486D01*
X32330636Y-161630000D01*
X31613347Y-161630000D01*
X31546308Y-161610315D01*
X31500553Y-161557511D01*
X31490609Y-161488353D01*
X31494369Y-161471067D01*
X31500000Y-161451888D01*
X31500000Y-161308111D01*
X31494369Y-161288933D01*
X31494370Y-161219064D01*
X31532145Y-161160286D01*
X31595701Y-161131262D01*
X31613347Y-161130000D01*
X32330636Y-161130000D01*
X32330635Y-161129999D01*
X32273432Y-160916513D01*
X32273429Y-160916507D01*
X32173600Y-160702422D01*
X32173599Y-160702420D01*
X32038113Y-160508926D01*
X32038108Y-160508920D01*
X31871078Y-160341890D01*
X31685405Y-160211879D01*
X31641780Y-160157302D01*
X31634588Y-160087804D01*
X31666110Y-160025449D01*
X31685406Y-160008730D01*
X31871401Y-159878495D01*
X32038495Y-159711401D01*
X32174035Y-159517830D01*
X32273903Y-159303663D01*
X32335063Y-159075408D01*
X32355659Y-158840000D01*
X32335063Y-158604592D01*
X32273903Y-158376337D01*
X32174035Y-158162171D01*
X32152341Y-158131187D01*
X36249500Y-158131187D01*
X36269794Y-158265823D01*
X36288604Y-158390615D01*
X36288605Y-158390617D01*
X36288606Y-158390623D01*
X36365938Y-158641326D01*
X36479767Y-158877696D01*
X36479768Y-158877697D01*
X36479770Y-158877700D01*
X36479772Y-158877704D01*
X36614561Y-159075403D01*
X36627567Y-159094479D01*
X36806014Y-159286801D01*
X36806018Y-159286804D01*
X36806019Y-159286805D01*
X37011143Y-159450386D01*
X37238357Y-159581568D01*
X37482584Y-159677420D01*
X37738370Y-159735802D01*
X37738376Y-159735802D01*
X37738379Y-159735803D01*
X37934500Y-159750500D01*
X37934506Y-159750500D01*
X38065500Y-159750500D01*
X38261620Y-159735803D01*
X38261622Y-159735802D01*
X38261630Y-159735802D01*
X38517416Y-159677420D01*
X38761643Y-159581568D01*
X38988857Y-159450386D01*
X39193981Y-159286805D01*
X39372433Y-159094479D01*
X39520228Y-158877704D01*
X39634063Y-158641323D01*
X39711396Y-158390615D01*
X39750500Y-158131182D01*
X39750500Y-157868818D01*
X39711396Y-157609385D01*
X39634063Y-157358677D01*
X39622121Y-157333880D01*
X39520232Y-157122303D01*
X39520231Y-157122302D01*
X39520230Y-157122301D01*
X39520228Y-157122296D01*
X39372433Y-156905521D01*
X39362441Y-156894753D01*
X39193985Y-156713198D01*
X39154533Y-156681736D01*
X38988857Y-156549614D01*
X38761643Y-156418432D01*
X38517416Y-156322580D01*
X38517411Y-156322578D01*
X38517402Y-156322576D01*
X38299818Y-156272914D01*
X38261630Y-156264198D01*
X38261629Y-156264197D01*
X38261625Y-156264197D01*
X38261620Y-156264196D01*
X38065500Y-156249500D01*
X38065494Y-156249500D01*
X37934506Y-156249500D01*
X37934500Y-156249500D01*
X37738379Y-156264196D01*
X37738374Y-156264197D01*
X37482597Y-156322576D01*
X37482578Y-156322582D01*
X37238356Y-156418432D01*
X37011143Y-156549614D01*
X36806014Y-156713198D01*
X36627567Y-156905520D01*
X36479768Y-157122302D01*
X36479767Y-157122303D01*
X36365938Y-157358673D01*
X36288606Y-157609376D01*
X36288605Y-157609381D01*
X36288604Y-157609385D01*
X36273853Y-157707247D01*
X36249500Y-157868812D01*
X36249500Y-158131187D01*
X32152341Y-158131187D01*
X32152337Y-158131182D01*
X32038494Y-157968597D01*
X31871402Y-157801506D01*
X31871395Y-157801501D01*
X31677834Y-157665967D01*
X31677830Y-157665965D01*
X31677830Y-157665964D01*
X31463663Y-157566097D01*
X31463659Y-157566096D01*
X31463655Y-157566094D01*
X31235413Y-157504938D01*
X31235403Y-157504936D01*
X31000001Y-157484341D01*
X30999999Y-157484341D01*
X30764596Y-157504936D01*
X30764586Y-157504938D01*
X30536344Y-157566094D01*
X30536335Y-157566098D01*
X30322171Y-157665964D01*
X30322169Y-157665965D01*
X30128597Y-157801505D01*
X29961505Y-157968597D01*
X29825965Y-158162169D01*
X29825964Y-158162171D01*
X29726098Y-158376335D01*
X29726094Y-158376344D01*
X29664938Y-158604586D01*
X29664936Y-158604596D01*
X29644341Y-158839999D01*
X29644341Y-158840000D01*
X29664936Y-159075403D01*
X29664938Y-159075413D01*
X29726094Y-159303655D01*
X29726096Y-159303659D01*
X29726097Y-159303663D01*
X29805821Y-159474632D01*
X29825965Y-159517830D01*
X29825967Y-159517834D01*
X29961501Y-159711395D01*
X29961506Y-159711402D01*
X30128597Y-159878493D01*
X30128603Y-159878498D01*
X30314594Y-160008730D01*
X30358219Y-160063307D01*
X30365413Y-160132805D01*
X30333890Y-160195160D01*
X30314595Y-160211880D01*
X30128922Y-160341890D01*
X30128920Y-160341891D01*
X29961891Y-160508920D01*
X29961886Y-160508926D01*
X29826400Y-160702420D01*
X29826399Y-160702422D01*
X29726570Y-160916507D01*
X29726567Y-160916513D01*
X29669364Y-161129999D01*
X29669364Y-161130000D01*
X30386653Y-161130000D01*
X30453692Y-161149685D01*
X30499447Y-161202489D01*
X30509391Y-161271647D01*
X30505631Y-161288933D01*
X30500000Y-161308111D01*
X30500000Y-161451888D01*
X30505631Y-161471067D01*
X30505630Y-161540936D01*
X30467855Y-161599714D01*
X30404299Y-161628738D01*
X30386653Y-161630000D01*
X29669364Y-161630000D01*
X29726567Y-161843486D01*
X29726570Y-161843492D01*
X29826399Y-162057578D01*
X29961894Y-162251082D01*
X30128917Y-162418105D01*
X30314595Y-162548119D01*
X30358219Y-162602696D01*
X30365412Y-162672195D01*
X30333890Y-162734549D01*
X30314595Y-162751269D01*
X30128594Y-162881508D01*
X29961505Y-163048597D01*
X29825965Y-163242169D01*
X29825964Y-163242171D01*
X29726098Y-163456335D01*
X29726094Y-163456344D01*
X29664938Y-163684586D01*
X29664936Y-163684596D01*
X29644341Y-163919999D01*
X29644341Y-163920000D01*
X29664936Y-164155403D01*
X29664938Y-164155413D01*
X29726094Y-164383655D01*
X29726096Y-164383659D01*
X29726097Y-164383663D01*
X29805821Y-164554632D01*
X29825965Y-164597830D01*
X29825967Y-164597834D01*
X29961501Y-164791395D01*
X29961506Y-164791402D01*
X30128597Y-164958493D01*
X30128603Y-164958498D01*
X30314158Y-165088425D01*
X30357783Y-165143002D01*
X30364977Y-165212500D01*
X30333454Y-165274855D01*
X30314158Y-165291575D01*
X30128597Y-165421505D01*
X29961505Y-165588597D01*
X29825965Y-165782169D01*
X29825964Y-165782171D01*
X29726098Y-165996335D01*
X29726094Y-165996344D01*
X29664938Y-166224586D01*
X29664936Y-166224596D01*
X29644341Y-166459999D01*
X29644341Y-166460000D01*
X29664936Y-166695403D01*
X29664938Y-166695413D01*
X29726094Y-166923655D01*
X29726096Y-166923659D01*
X29726097Y-166923663D01*
X29803576Y-167089816D01*
X29825965Y-167137830D01*
X29825967Y-167137834D01*
X29961501Y-167331395D01*
X29961506Y-167331402D01*
X30128597Y-167498493D01*
X30128603Y-167498498D01*
X30314158Y-167628425D01*
X30357783Y-167683002D01*
X30364977Y-167752500D01*
X30333454Y-167814855D01*
X30314158Y-167831575D01*
X30128597Y-167961505D01*
X29961505Y-168128597D01*
X29825965Y-168322169D01*
X29825964Y-168322171D01*
X29726098Y-168536335D01*
X29726094Y-168536344D01*
X29664938Y-168764586D01*
X29664936Y-168764596D01*
X29644341Y-168999999D01*
X29644341Y-169000000D01*
X29664936Y-169235403D01*
X29664938Y-169235413D01*
X29726094Y-169463655D01*
X29726096Y-169463659D01*
X29726097Y-169463663D01*
X29765853Y-169548920D01*
X29825965Y-169677830D01*
X29825967Y-169677834D01*
X29961501Y-169871395D01*
X29961506Y-169871402D01*
X30128597Y-170038493D01*
X30128603Y-170038498D01*
X30314594Y-170168730D01*
X30358219Y-170223307D01*
X30365413Y-170292805D01*
X30333890Y-170355160D01*
X30314595Y-170371880D01*
X30128922Y-170501890D01*
X30128920Y-170501891D01*
X29961891Y-170668920D01*
X29961886Y-170668926D01*
X29826400Y-170862420D01*
X29826399Y-170862422D01*
X29726570Y-171076507D01*
X29726567Y-171076513D01*
X29669364Y-171289999D01*
X29669364Y-171290000D01*
X30386653Y-171290000D01*
X30453692Y-171309685D01*
X30499447Y-171362489D01*
X30509391Y-171431647D01*
X30505631Y-171448933D01*
X30500000Y-171468111D01*
X30500000Y-171611888D01*
X30505631Y-171631067D01*
X30505630Y-171700936D01*
X30467855Y-171759714D01*
X30404299Y-171788738D01*
X30386653Y-171790000D01*
X29669364Y-171790000D01*
X29726567Y-172003486D01*
X29726570Y-172003492D01*
X29826399Y-172217578D01*
X29961894Y-172411082D01*
X30128917Y-172578105D01*
X30314595Y-172708119D01*
X30358219Y-172762696D01*
X30365412Y-172832195D01*
X30333890Y-172894549D01*
X30314595Y-172911269D01*
X30128594Y-173041508D01*
X29961505Y-173208597D01*
X29825965Y-173402169D01*
X29825964Y-173402171D01*
X29726098Y-173616335D01*
X29726094Y-173616344D01*
X29664938Y-173844586D01*
X29664936Y-173844596D01*
X29644341Y-174079999D01*
X29644341Y-174080000D01*
X29000500Y-174080000D01*
X29000500Y-154624500D01*
X29020185Y-154557461D01*
X29072989Y-154511706D01*
X29124500Y-154500500D01*
X62875500Y-154500500D01*
X62942539Y-154520185D01*
G37*
%TD.AperFunction*%
%TD*%
M02*
